Crimson-Italic.ufo
<glyph name="exclam" format="1">
  <advance width="234"/>
  <unicode hex="0021"/>
  <outline>
    <contour>
      <point x="20" y="36" type="curve" smooth="yes"/>
      <point x="20" y="73"/>
      <point x="49" y="102"/>
      <point x="86" y="102" type="curve" smooth="yes"/>
      <point x="110" y="102"/>
      <point x="129" y="80"/>
      <point x="129" y="56" type="curve" smooth="yes"/>
      <point x="129" y="18"/>
      <point x="102" y="-14"/>
      <point x="64" y="-14" type="curve" smooth="yes"/>
      <point x="38" y="-14"/>
      <point x="20" y="10"/>
    </contour>
    <contour>
      <point x="192" y="631" type="curve" smooth="yes"/>
      <point x="213" y="631"/>
      <point x="223" y="609"/>
      <point x="223" y="588" type="curve" smooth="yes"/>
      <point x="223" y="561"/>
      <point x="160" y="352"/>
      <point x="114" y="170" type="curve" smooth="yes"/>
      <point x="111" y="156"/>
      <point x="90" y="148"/>
      <point x="86" y="148" type="curve" smooth="yes"/>
      <point x="81" y="148"/>
      <point x="80" y="159"/>
      <point x="80" y="166" type="curve" smooth="yes"/>
      <point x="80" y="170"/>
      <point x="112" y="429"/>
      <point x="133" y="577" type="curve" smooth="yes"/>
      <point x="136" y="596"/>
      <point x="160" y="631"/>
    </contour>
  </outline>
</glyph>
<glyph name="quotedbl" format="1">
  <advance width="331"/>
  <unicode hex="0022"/>
  <outline>
    <contour>
      <point x="324" y="698" type="curve" smooth="yes"/>
      <point x="352" y="698"/>
      <point x="363" y="692"/>
      <point x="352" y="633" type="curve" smooth="yes"/>
      <point x="341" y="577"/>
      <point x="312" y="516"/>
      <point x="293" y="449" type="curve" smooth="yes"/>
      <point x="290" y="439"/>
      <point x="279" y="434"/>
      <point x="272" y="434" type="curve" smooth="yes"/>
      <point x="265" y="434"/>
      <point x="256" y="439"/>
      <point x="257" y="447" type="curve" smooth="yes"/>
      <point x="266" y="537"/>
      <point x="257" y="590"/>
      <point x="257" y="636" type="curve"/>
      <point x="260" y="654"/>
      <point x="288" y="698"/>
    </contour>
    <contour>
      <point x="174" y="698" type="curve" smooth="yes"/>
      <point x="202" y="698"/>
      <point x="213" y="692"/>
      <point x="202" y="633" type="curve" smooth="yes"/>
      <point x="191" y="577"/>
      <point x="162" y="516"/>
      <point x="143" y="449" type="curve" smooth="yes"/>
      <point x="140" y="439"/>
      <point x="129" y="434"/>
      <point x="122" y="434" type="curve" smooth="yes"/>
      <point x="115" y="434"/>
      <point x="106" y="439"/>
      <point x="107" y="447" type="curve" smooth="yes"/>
      <point x="116" y="537"/>
      <point x="107" y="590"/>
      <point x="107" y="636" type="curve"/>
      <point x="110" y="654"/>
      <point x="138" y="698"/>
    </contour>
  </outline>
</glyph>
<glyph name="percent" format="1">
  <advance width="630"/>
  <unicode hex="0025"/>
  <outline>
    <contour>
      <point x="458" y="300" type="curve" smooth="yes"/>
      <point x="395" y="300"/>
      <point x="349" y="210"/>
      <point x="349" y="132" type="curve" smooth="yes"/>
      <point x="349" y="81"/>
      <point x="366" y="20"/>
      <point x="414" y="20" type="curve" smooth="yes"/>
      <point x="477" y="20"/>
      <point x="516" y="116"/>
      <point x="516" y="195" type="curve" smooth="yes"/>
      <point x="516" y="242"/>
      <point x="503" y="300"/>
    </contour>
    <contour>
      <point x="468" y="327" type="curve" smooth="yes"/>
      <point x="545" y="327"/>
      <point x="581" y="263"/>
      <point x="581" y="195" type="curve" smooth="yes"/>
      <point x="581" y="99"/>
      <point x="500" y="-8"/>
      <point x="402" y="-8" type="curve" smooth="yes"/>
      <point x="326" y="-8"/>
      <point x="286" y="55"/>
      <point x="286" y="123" type="curve" smooth="yes"/>
      <point x="286" y="221"/>
      <point x="366" y="327"/>
    </contour>
    <contour>
      <point x="246" y="646" type="curve" smooth="yes"/>
      <point x="183" y="646"/>
      <point x="137" y="556"/>
      <point x="137" y="478" type="curve" smooth="yes"/>
      <point x="137" y="427"/>
      <point x="154" y="366"/>
      <point x="202" y="366" type="curve" smooth="yes"/>
      <point x="265" y="366"/>
      <point x="304" y="462"/>
      <point x="304" y="541" type="curve" smooth="yes"/>
      <point x="304" y="588"/>
      <point x="291" y="646"/>
    </contour>
    <contour>
      <point x="256" y="673" type="curve" smooth="yes"/>
      <point x="333" y="673"/>
      <point x="369" y="609"/>
      <point x="369" y="541" type="curve" smooth="yes"/>
      <point x="369" y="445"/>
      <point x="288" y="338"/>
      <point x="190" y="338" type="curve" smooth="yes"/>
      <point x="114" y="338"/>
      <point x="74" y="401"/>
      <point x="74" y="469" type="curve" smooth="yes"/>
      <point x="74" y="567"/>
      <point x="154" y="673"/>
    </contour>
    <contour>
      <point x="647" y="650" type="curve"/>
      <point x="51" y="0" type="line" smooth="yes"/>
      <point x="47" y="-4"/>
      <point x="31" y="-12"/>
      <point x="17" y="-12" type="curve" smooth="yes"/>
      <point x="10" y="-12"/>
      <point x="4" y="-9"/>
      <point x="2" y="-1" type="curve"/>
      <point x="598" y="652" type="line" smooth="yes"/>
      <point x="602" y="656"/>
      <point x="610" y="663"/>
      <point x="620" y="663" type="curve" smooth="yes"/>
      <point x="632" y="663"/>
      <point x="643" y="660"/>
    </contour>
  </outline>
</glyph>
<glyph name="parenleft" format="1">
  <advance width="260"/>
  <unicode hex="0028"/>
  <outline>
    <contour>
      <point x="277" y="748" type="curve"/>
      <point x="282" y="746"/>
      <point x="284" y="739"/>
      <point x="284" y="735" type="curve"/>
      <point x="222" y="664"/>
      <point x="86" y="418"/>
      <point x="108" y="164" type="curve" smooth="yes"/>
      <point x="120" y="23"/>
      <point x="152" y="-54"/>
      <point x="203" y="-109" type="curve"/>
      <point x="203" y="-112"/>
      <point x="203" y="-119"/>
      <point x="198" y="-121" type="curve"/>
      <point x="139" y="-99"/>
      <point x="64" y="4"/>
      <point x="49" y="177" type="curve" smooth="yes"/>
      <point x="23" y="474"/>
      <point x="197" y="676"/>
    </contour>
  </outline>
</glyph>
<glyph name="parenright" format="1">
  <advance width="260"/>
  <unicode hex="0029"/>
  <outline>
    <contour>
      <point x="2" y="-121" type="curve"/>
      <point x="-3" y="-119"/>
      <point x="-6" y="-112"/>
      <point x="-5" y="-108" type="curve"/>
      <point x="57" y="-37"/>
      <point x="193" y="209"/>
      <point x="171" y="463" type="curve" smooth="yes"/>
      <point x="159" y="604"/>
      <point x="127" y="681"/>
      <point x="76" y="736" type="curve"/>
      <point x="76" y="739"/>
      <point x="76" y="746"/>
      <point x="81" y="748" type="curve"/>
      <point x="140" y="726"/>
      <point x="215" y="623"/>
      <point x="230" y="450" type="curve" smooth="yes"/>
      <point x="256" y="153"/>
      <point x="82" y="-49"/>
    </contour>
  </outline>
</glyph>
<glyph name="asterisk" format="1">
  <advance width="400"/>
  <unicode hex="002A"/>
  <outline>
    <contour>
      <point x="256" y="514" type="curve" smooth="yes"/>
      <point x="281" y="514"/>
      <point x="328" y="633"/>
      <point x="379" y="633" type="curve" smooth="yes"/>
      <point x="393" y="633"/>
      <point x="402" y="623"/>
      <point x="402" y="609" type="curve" smooth="yes"/>
      <point x="402" y="552"/>
      <point x="269" y="523"/>
      <point x="269" y="491" type="curve" smooth="yes"/>
      <point x="269" y="464"/>
      <point x="393" y="473"/>
      <point x="393" y="419" type="curve" smooth="yes"/>
      <point x="393" y="400"/>
      <point x="376" y="383"/>
      <point x="356" y="383" type="curve" smooth="yes"/>
      <point x="313" y="383"/>
      <point x="280" y="466"/>
      <point x="255" y="466" type="curve" smooth="yes"/>
      <point x="232" y="466"/>
      <point x="243" y="398"/>
      <point x="225" y="341" type="curve" smooth="yes"/>
      <point x="216" y="311"/>
      <point x="198" y="298"/>
      <point x="184" y="298" type="curve" smooth="yes"/>
      <point x="171" y="298"/>
      <point x="161" y="309"/>
      <point x="161" y="326" type="curve" smooth="yes"/>
      <point x="161" y="366"/>
      <point x="226" y="438"/>
      <point x="226" y="464" type="curve" smooth="yes"/>
      <point x="226" y="469"/>
      <point x="224" y="473"/>
      <point x="217" y="473" type="curve" smooth="yes"/>
      <point x="196" y="473"/>
      <point x="132" y="432"/>
      <point x="94" y="432" type="curve" smooth="yes"/>
      <point x="77" y="432"/>
      <point x="64" y="440"/>
      <point x="64" y="456" type="curve" smooth="yes"/>
      <point x="64" y="469"/>
      <point x="71" y="500"/>
      <point x="125" y="500" type="curve" smooth="yes"/>
      <point x="154" y="500"/>
      <point x="183" y="493"/>
      <point x="203" y="493" type="curve" smooth="yes"/>
      <point x="225" y="493"/>
      <point x="228" y="503"/>
      <point x="228" y="510" type="curve" smooth="yes"/>
      <point x="228" y="534"/>
      <point x="177" y="580"/>
      <point x="177" y="623" type="curve" smooth="yes"/>
      <point x="177" y="648"/>
      <point x="194" y="664"/>
      <point x="211" y="664" type="curve" smooth="yes"/>
      <point x="242" y="664"/>
      <point x="244" y="620"/>
      <point x="244" y="580" type="curve" smooth="yes"/>
      <point x="244" y="574"/>
      <point x="242" y="514"/>
    </contour>
  </outline>
</glyph>
<glyph name="plus" format="1">
  <advance width="454"/>
  <unicode hex="002B"/>
  <outline>
    <contour>
      <point x="23" y="217" type="line" smooth="yes"/>
      <point x="20" y="217"/>
      <point x="18" y="220"/>
      <point x="18" y="225" type="curve" smooth="yes"/>
      <point x="18" y="238"/>
      <point x="21" y="247"/>
      <point x="31" y="260" type="curve"/>
      <point x="203" y="260" type="line"/>
      <point x="236" y="435" type="line" smooth="yes"/>
      <point x="239" y="448"/>
      <point x="273" y="451"/>
      <point x="277" y="451" type="curve" smooth="yes"/>
      <point x="285" y="451"/>
      <point x="287" y="447"/>
      <point x="286" y="443" type="curve" smooth="yes"/>
      <point x="251" y="260" type="line"/>
      <point x="422" y="260" type="line" smooth="yes"/>
      <point x="424" y="260"/>
      <point x="425" y="257"/>
      <point x="425" y="252" type="curve" smooth="yes"/>
      <point x="425" y="239"/>
      <point x="424" y="229"/>
      <point x="413" y="217" type="curve"/>
      <point x="243" y="217" type="line"/>
      <point x="208" y="39" type="line" smooth="yes"/>
      <point x="206" y="29"/>
      <point x="189" y="23"/>
      <point x="173" y="23" type="curve" smooth="yes"/>
      <point x="163" y="23"/>
      <point x="159" y="27"/>
      <point x="159" y="31" type="curve" smooth="yes"/>
      <point x="195" y="217" type="line"/>
    </contour>
  </outline>
</glyph>
<glyph name="comma" format="1">
  <advance width="200"/>
  <unicode hex="002C"/>
  <outline>
    <contour>
      <point x="-28" y="-89" type="curve"/>
      <point x="-15" y="-83"/>
      <point x="40" y="-48"/>
      <point x="40" y="-2" type="curve" smooth="yes"/>
      <point x="40" y="47"/>
      <point x="23" y="46"/>
      <point x="23" y="79" type="curve" smooth="yes"/>
      <point x="23" y="110"/>
      <point x="49" y="129"/>
      <point x="78" y="129" type="curve" smooth="yes"/>
      <point x="90" y="129"/>
      <point x="102" y="124"/>
      <point x="106" y="119" type="curve"/>
      <point x="108" y="114"/>
      <point x="109" y="98"/>
      <point x="109" y="95" type="curve" smooth="yes"/>
      <point x="109" y="51"/>
      <point x="98" y="13"/>
      <point x="73" y="-28" type="curve" smooth="yes"/>
      <point x="45" y="-74"/>
      <point x="4" y="-102"/>
      <point x="-14" y="-109" type="curve"/>
      <point x="-18" y="-109"/>
      <point x="-28" y="-97"/>
    </contour>
  </outline>
</glyph>
<glyph name="hyphen" format="1">
  <advance width="371"/>
  <unicode hex="002D"/>
  <outline>
    <contour>
      <point x="74" y="261" type="curve" smooth="yes"/>
      <point x="301" y="273" type="line" smooth="yes"/>
      <point x="306" y="273"/>
      <point x="307" y="266"/>
      <point x="307" y="261" type="curve" smooth="yes"/>
      <point x="307" y="248"/>
      <point x="294" y="211"/>
      <point x="284" y="210" type="curve" smooth="yes"/>
      <point x="58" y="199" type="line" smooth="yes"/>
      <point x="55" y="199"/>
      <point x="53" y="206"/>
      <point x="53" y="214" type="curve" smooth="yes"/>
      <point x="53" y="225"/>
      <point x="63" y="260"/>
    </contour>
  </outline>
</glyph>
<glyph name="period" format="1">
  <advance width="208"/>
  <unicode hex="002E"/>
  <outline>
    <contour>
      <point x="8" y="33" type="curve" smooth="yes"/>
      <point x="8" y="70"/>
      <point x="42" y="102"/>
      <point x="75" y="102" type="curve" smooth="yes"/>
      <point x="101" y="102"/>
      <point x="118" y="83"/>
      <point x="118" y="57" type="curve" smooth="yes"/>
      <point x="118" y="20"/>
      <point x="85" y="-14"/>
      <point x="52" y="-14" type="curve" smooth="yes"/>
      <point x="26" y="-14"/>
      <point x="8" y="6"/>
    </contour>
  </outline>
</glyph>
<glyph name="slash" format="1">
  <advance width="382"/>
  <unicode hex="002F"/>
  <outline>
    <contour>
      <point x="451" y="755" type="curve"/>
      <point x="27" y="-12" type="line" smooth="yes"/>
      <point x="24" y="-17"/>
      <point x="3" y="-34"/>
      <point x="-20" y="-34" type="curve" smooth="yes"/>
      <point x="-24" y="-34"/>
      <point x="-31" y="-30"/>
      <point x="-32" y="-28" type="curve"/>
      <point x="393" y="739" type="line" smooth="yes"/>
      <point x="398" y="747"/>
      <point x="421" y="761"/>
      <point x="439" y="761" type="curve" smooth="yes"/>
      <point x="445" y="761"/>
      <point x="449" y="758"/>
    </contour>
  </outline>
</glyph>
<glyph name="zero" format="1">
  <advance width="456"/>
  <unicode hex="0030"/>
  <outline>
    <contour>
      <point x="169.507" y="320" type="curve" smooth="yes"/>
      <point x="138.507" y="163"/>
      <point x="161.507" y="32"/>
      <point x="230.507" y="32" type="curve" smooth="yes"/>
      <point x="313.507" y="32"/>
      <point x="381.507" y="168"/>
      <point x="412.507" y="325" type="curve" smooth="yes"/>
      <point x="443.507" y="482"/>
      <point x="419.507" y="606"/>
      <point x="350.507" y="606" type="curve" smooth="yes"/>
      <point x="272.507" y="606"/>
      <point x="200.507" y="477"/>
    </contour>
    <contour>
      <point x="87.5068" y="319" type="curve" smooth="yes"/>
      <point x="121.507" y="493"/>
      <point x="224.507" y="641"/>
      <point x="352.507" y="641" type="curve" smooth="yes"/>
      <point x="482.507" y="641"/>
      <point x="526.507" y="493"/>
      <point x="492.507" y="319" type="curve" smooth="yes"/>
      <point x="458.507" y="145"/>
      <point x="355.507" y="-3"/>
      <point x="227.507" y="-3" type="curve" smooth="yes"/>
      <point x="101.507" y="-3"/>
      <point x="53.5068" y="145"/>
    </contour>
  </outline>
</glyph>
<glyph name="three" format="1">
  <advance width="456"/>
  <unicode hex="0033"/>
  <outline>
    <contour>
      <point x="359.73" y="642" type="curve" smooth="yes"/>
      <point x="406.73" y="642"/>
      <point x="460.73" y="607"/>
      <point x="460.73" y="533" type="curve" smooth="yes"/>
      <point x="460.73" y="467"/>
      <point x="396.73" y="408"/>
      <point x="344.73" y="379" type="curve"/>
      <point x="400.73" y="372"/>
      <point x="447.73" y="304"/>
      <point x="447.73" y="244" type="curve" smooth="yes"/>
      <point x="447.73" y="90"/>
      <point x="264.73" y="-5"/>
      <point x="176.73" y="-5" type="curve" smooth="yes"/>
      <point x="128.73" y="-5"/>
      <point x="94.7305" y="4"/>
      <point x="71.7305" y="20" type="curve"/>
      <point x="67.7305" y="25"/>
      <point x="62.7305" y="37"/>
      <point x="62.7305" y="48" type="curve" smooth="yes"/>
      <point x="62.7305" y="78"/>
      <point x="82.7305" y="106"/>
      <point x="104.73" y="106" type="curve" smooth="yes"/>
      <point x="137.73" y="106"/>
      <point x="142.73" y="76"/>
      <point x="156.73" y="59" type="curve" smooth="yes"/>
      <point x="173.73" y="38"/>
      <point x="195.73" y="35"/>
      <point x="220.73" y="35" type="curve" smooth="yes"/>
      <point x="277.73" y="35"/>
      <point x="362.73" y="106"/>
      <point x="362.73" y="219" type="curve" smooth="yes"/>
      <point x="362.73" y="286"/>
      <point x="326.73" y="327"/>
      <point x="265.73" y="327" type="curve" smooth="yes"/>
      <point x="245.73" y="327"/>
      <point x="218.73" y="320"/>
      <point x="206.73" y="317" type="curve"/>
      <point x="203.73" y="322"/>
      <point x="202.73" y="326"/>
      <point x="202.73" y="331" type="curve" smooth="yes"/>
      <point x="202.73" y="335"/>
      <point x="203.73" y="345"/>
      <point x="205.73" y="348" type="curve"/>
      <point x="285.73" y="362"/>
      <point x="387.73" y="425"/>
      <point x="387.73" y="513" type="curve" smooth="yes"/>
      <point x="387.73" y="568"/>
      <point x="352.73" y="588"/>
      <point x="310.73" y="588" type="curve" smooth="yes"/>
      <point x="251.73" y="588"/>
      <point x="209.73" y="535"/>
      <point x="199.73" y="528" type="curve"/>
      <point x="193.73" y="528"/>
      <point x="192.73" y="543"/>
      <point x="194.73" y="552" type="curve"/>
      <point x="232.73" y="598"/>
      <point x="286.73" y="642"/>
    </contour>
  </outline>
</glyph>
<glyph name="four" format="1">
  <advance width="456"/>
  <unicode hex="0034"/>
  <outline>
    <contour>
      <point x="475.725" y="644" type="curve" smooth="yes"/>
      <point x="484.725" y="644"/>
      <point x="490.725" y="634"/>
      <point x="488.725" y="626" type="curve" smooth="yes"/>
      <point x="411.725" y="231" type="line"/>
      <point x="467.725" y="231" type="line" smooth="yes"/>
      <point x="473.725" y="231"/>
      <point x="476.725" y="211"/>
      <point x="472.725" y="190" type="curve" smooth="yes"/>
      <point x="470.725" y="181"/>
      <point x="467.725" y="177"/>
      <point x="465.725" y="174" type="curve"/>
      <point x="400.725" y="174" type="line"/>
      <point x="366.725" y="-1" type="line"/>
      <point x="366.725" y="-1"/>
      <point x="359.725" y="-6"/>
      <point x="323.725" y="-6" type="curve" smooth="yes"/>
      <point x="301.725" y="-6"/>
      <point x="289.725" y="-5"/>
      <point x="290.725" y="2" type="curve" smooth="yes"/>
      <point x="324.725" y="174" type="line"/>
      <point x="62.7246" y="174" type="line"/>
      <point x="56.7246" y="178"/>
      <point x="56.7246" y="187"/>
      <point x="57.7246" y="193" type="curve"/>
      <point x="442.725" y="619" type="line" smooth="yes"/>
      <point x="449.725" y="627"/>
      <point x="468.725" y="644"/>
    </contour>
    <contour>
      <point x="392.725" y="524" type="line"/>
      <point x="128.725" y="231" type="line"/>
      <point x="335.725" y="231" type="line"/>
    </contour>
  </outline>
</glyph>
<glyph name="five" format="1">
  <advance width="456"/>
  <unicode hex="0035"/>
  <outline>
    <contour>
      <point x="448.007" y="247" type="curve" smooth="yes"/>
      <point x="448.007" y="93"/>
      <point x="266.007" y="-5"/>
      <point x="177.007" y="-5" type="curve" smooth="yes"/>
      <point x="129.007" y="-5"/>
      <point x="95.0068" y="4"/>
      <point x="72.0068" y="20" type="curve"/>
      <point x="68.0068" y="25"/>
      <point x="63.0068" y="37"/>
      <point x="63.0068" y="48" type="curve" smooth="yes"/>
      <point x="63.0068" y="78"/>
      <point x="83.0068" y="106"/>
      <point x="105.007" y="106" type="curve" smooth="yes"/>
      <point x="138.007" y="106"/>
      <point x="143.007" y="76"/>
      <point x="157.007" y="59" type="curve" smooth="yes"/>
      <point x="174.007" y="38"/>
      <point x="196.007" y="35"/>
      <point x="221.007" y="35" type="curve" smooth="yes"/>
      <point x="278.007" y="35"/>
      <point x="363.007" y="106"/>
      <point x="363.007" y="219" type="curve" smooth="yes"/>
      <point x="363.007" y="255"/>
      <point x="350.007" y="332"/>
      <point x="242.007" y="332" type="curve" smooth="yes"/>
      <point x="222.007" y="332"/>
      <point x="186.007" y="325"/>
      <point x="167.007" y="319" type="curve"/>
      <point x="164.007" y="321"/>
      <point x="157.007" y="328"/>
      <point x="153.007" y="333" type="curve"/>
      <point x="198.007" y="465"/>
      <point x="228.007" y="589"/>
      <point x="243.007" y="631" type="curve"/>
      <point x="309.007" y="633"/>
      <point x="442.007" y="636"/>
      <point x="477.007" y="644" type="curve"/>
      <point x="483.007" y="641"/>
      <point x="487.007" y="635"/>
      <point x="487.007" y="631" type="curve" smooth="yes"/>
      <point x="487.007" y="614"/>
      <point x="464.007" y="575"/>
      <point x="454.007" y="561" type="curve"/>
      <point x="409.007" y="551"/>
      <point x="273.007" y="554"/>
      <point x="258.007" y="551" type="curve"/>
      <point x="254.007" y="544"/>
      <point x="223.007" y="430"/>
      <point x="204.007" y="377" type="curve"/>
      <point x="224.007" y="385"/>
      <point x="276.007" y="395"/>
      <point x="301.007" y="395" type="curve" smooth="yes"/>
      <point x="401.007" y="395"/>
      <point x="448.007" y="314"/>
    </contour>
  </outline>
</glyph>
<glyph name="six" format="1">
  <advance width="456"/>
  <unicode hex="0036"/>
  <outline>
    <contour>
      <point x="325.203" y="380" type="curve" smooth="yes"/>
      <point x="402.203" y="380"/>
      <point x="455.203" y="311"/>
      <point x="455.203" y="230" type="curve" smooth="yes"/>
      <point x="455.203" y="114"/>
      <point x="337.203" y="-6"/>
      <point x="228.203" y="-6" type="curve" smooth="yes"/>
      <point x="140.203" y="-6"/>
      <point x="81.2031" y="61"/>
      <point x="81.2031" y="173" type="curve" smooth="yes"/>
      <point x="81.2031" y="251"/>
      <point x="118.203" y="365"/>
      <point x="205.203" y="464" type="curve" smooth="yes"/>
      <point x="263.203" y="530"/>
      <point x="373.203" y="603"/>
      <point x="489.203" y="643" type="curve"/>
      <point x="495.203" y="643"/>
      <point x="497.203" y="624"/>
      <point x="496.203" y="618" type="curve"/>
      <point x="381.203" y="569"/>
      <point x="265.203" y="491"/>
      <point x="205.203" y="350" type="curve" smooth="yes"/>
      <point x="171.203" y="270"/>
      <point x="163.203" y="215"/>
      <point x="163.203" y="160" type="curve" smooth="yes"/>
      <point x="163.203" y="99"/>
      <point x="182.203" y="27"/>
      <point x="240.203" y="27" type="curve" smooth="yes"/>
      <point x="294.203" y="27"/>
      <point x="375.203" y="106"/>
      <point x="375.203" y="224" type="curve" smooth="yes"/>
      <point x="375.203" y="286"/>
      <point x="348.203" y="333"/>
      <point x="279.203" y="333" type="curve" smooth="yes"/>
      <point x="255.203" y="333"/>
      <point x="240.203" y="324"/>
      <point x="231.203" y="319" type="curve"/>
      <point x="228.203" y="321"/>
      <point x="225.203" y="325"/>
      <point x="225.203" y="329" type="curve" smooth="yes"/>
      <point x="225.203" y="341"/>
      <point x="291.203" y="380"/>
    </contour>
  </outline>
</glyph>
<glyph name="eight" format="1">
  <advance width="456"/>
  <unicode hex="0038"/>
  <outline>
    <contour>
      <point x="357.697" y="643" type="curve" smooth="yes"/>
      <point x="440.697" y="643"/>
      <point x="498.697" y="586"/>
      <point x="480.697" y="491" type="curve" smooth="yes"/>
      <point x="467.697" y="424"/>
      <point x="395.697" y="373"/>
      <point x="347.697" y="344" type="curve"/>
      <point x="343.697" y="343"/>
      <point x="344.697" y="340"/>
      <point x="346.697" y="338" type="curve" smooth="yes"/>
      <point x="395.697" y="304"/>
      <point x="449.697" y="239"/>
      <point x="435.697" y="167" type="curve" smooth="yes"/>
      <point x="416.697" y="67"/>
      <point x="316.697" y="-9"/>
      <point x="223.697" y="-9" type="curve" smooth="yes"/>
      <point x="121.697" y="-9"/>
      <point x="63.6973" y="57"/>
      <point x="82.6973" y="154" type="curve" smooth="yes"/>
      <point x="99.6973" y="242"/>
      <point x="193.697" y="293"/>
      <point x="234.697" y="318" type="curve" smooth="yes"/>
      <point x="237.697" y="320"/>
      <point x="238.697" y="323"/>
      <point x="236.697" y="324" type="curve" smooth="yes"/>
      <point x="202.697" y="349"/>
      <point x="157.697" y="406"/>
      <point x="171.697" y="480" type="curve" smooth="yes"/>
      <point x="188.697" y="565"/>
      <point x="275.697" y="643"/>
    </contour>
    <contour>
      <point x="345.697" y="608" type="curve" smooth="yes"/>
      <point x="300.697" y="608"/>
      <point x="256.697" y="562"/>
      <point x="242.697" y="492" type="curve" smooth="yes"/>
      <point x="230.697" y="430"/>
      <point x="283.697" y="386"/>
      <point x="314.697" y="364" type="curve" smooth="yes"/>
      <point x="316.697" y="363"/>
      <point x="317.697" y="362"/>
      <point x="319.697" y="362" type="curve" smooth="yes"/>
      <point x="321.697" y="362"/>
      <point x="322.697" y="362"/>
      <point x="325.697" y="364" type="curve" smooth="yes"/>
      <point x="368.697" y="391"/>
      <point x="401.697" y="431"/>
      <point x="412.697" y="486" type="curve" smooth="yes"/>
      <point x="423.697" y="544"/>
      <point x="401.697" y="608"/>
    </contour>
    <contour>
      <point x="232.697" y="27" type="curve" smooth="yes"/>
      <point x="293.697" y="27"/>
      <point x="341.697" y="70"/>
      <point x="354.697" y="138" type="curve" smooth="yes"/>
      <point x="370.697" y="221"/>
      <point x="276.697" y="287"/>
      <point x="265.697" y="295" type="curve" smooth="yes"/>
      <point x="263.697" y="296"/>
      <point x="263.697" y="297"/>
      <point x="260.697" y="297" type="curve" smooth="yes"/>
      <point x="259.697" y="297"/>
      <point x="257.697" y="297"/>
      <point x="256.697" y="296" type="curve" smooth="yes"/>
      <point x="198.697" y="261"/>
      <point x="168.697" y="221"/>
      <point x="156.697" y="157" type="curve" smooth="yes"/>
      <point x="140.697" y="75"/>
      <point x="183.697" y="27"/>
    </contour>
  </outline>
</glyph>
<glyph name="colon" format="1">
  <advance width="236"/>
  <unicode hex="003A"/>
  <outline>
    <contour>
      <point x="83" y="367" type="curve" smooth="yes"/>
      <point x="83" y="405"/>
      <point x="118" y="438"/>
      <point x="152" y="438" type="curve" smooth="yes"/>
      <point x="179" y="438"/>
      <point x="197" y="418"/>
      <point x="197" y="391" type="curve" smooth="yes"/>
      <point x="197" y="353"/>
      <point x="163" y="318"/>
      <point x="129" y="318" type="curve" smooth="yes"/>
      <point x="102" y="318"/>
      <point x="83" y="339"/>
    </contour>
    <contour>
      <point x="19" y="34" type="curve" smooth="yes"/>
      <point x="19" y="72"/>
      <point x="53" y="106"/>
      <point x="87" y="106" type="curve" smooth="yes"/>
      <point x="114" y="106"/>
      <point x="132" y="85"/>
      <point x="132" y="58" type="curve" smooth="yes"/>
      <point x="132" y="20"/>
      <point x="98" y="-14"/>
      <point x="64" y="-14" type="curve" smooth="yes"/>
      <point x="37" y="-14"/>
      <point x="19" y="7"/>
    </contour>
  </outline>
</glyph>
<glyph name="greater" format="1">
  <advance width="448"/>
  <unicode hex="003E"/>
  <outline>
    <contour>
      <point x="339" y="209" type="line"/>
      <point x="67" y="374" type="line"/>
      <point x="67" y="374"/>
      <point x="65" y="375"/>
      <point x="65" y="378" type="curve" smooth="yes"/>
      <point x="65" y="385"/>
      <point x="86" y="430"/>
      <point x="91" y="430" type="curve" smooth="yes"/>
      <point x="92" y="430"/>
      <point x="93" y="429"/>
      <point x="95" y="428" type="curve" smooth="yes"/>
      <point x="402" y="241" type="line" smooth="yes"/>
      <point x="409" y="237"/>
      <point x="414" y="230"/>
      <point x="414" y="221" type="curve" smooth="yes"/>
      <point x="414" y="218"/>
      <point x="412" y="188"/>
      <point x="390" y="177" type="curve" smooth="yes"/>
      <point x="5" y="-13" type="line" smooth="yes"/>
      <point x="3" y="-14"/>
      <point x="1" y="-15"/>
      <point x="-1" y="-15" type="curve" smooth="yes"/>
      <point x="-6" y="-15"/>
      <point x="-7" y="4"/>
      <point x="-7" y="33" type="curve" smooth="yes"/>
      <point x="-7" y="38"/>
      <point x="-2" y="41"/>
      <point x="-2" y="41" type="curve"/>
    </contour>
  </outline>
</glyph>
<glyph name="A" format="1">
  <advance width="586"/>
  <unicode hex="0041"/>
  <outline>
    <contour>
      <point x="341" y="26" type="curve"/>
      <point x="376" y="26"/>
      <point x="398" y="37"/>
      <point x="398" y="57" type="curve" smooth="yes"/>
      <point x="398" y="67"/>
      <point x="398" y="87"/>
      <point x="395" y="106" type="curve" smooth="yes"/>
      <point x="373" y="256" type="line"/>
      <point x="174" y="256" type="line"/>
      <point x="140" y="194"/>
      <point x="112" y="142"/>
      <point x="103" y="125" type="curve" smooth="yes"/>
      <point x="85" y="90"/>
      <point x="74" y="65"/>
      <point x="74" y="50" type="curve" smooth="yes"/>
      <point x="74" y="29"/>
      <point x="129" y="26"/>
      <point x="136" y="26" type="curve"/>
      <point x="138" y="23"/>
      <point x="135" y="3"/>
      <point x="132" y="-3" type="curve"/>
      <point x="95" y="-1"/>
      <point x="84" y="2"/>
      <point x="43" y="2" type="curve" smooth="yes"/>
      <point x="0" y="2"/>
      <point x="-12" y="-1"/>
      <point x="-55" y="-3" type="curve"/>
      <point x="-57" y="0"/>
      <point x="-53" y="19"/>
      <point x="-49" y="26" type="curve"/>
      <point x="-38" y="26"/>
      <point x="-4" y="32"/>
      <point x="8" y="45" type="curve" smooth="yes"/>
      <point x="32" y="71"/>
      <point x="50" y="103"/>
      <point x="70" y="139" type="curve" smooth="yes"/>
      <point x="346" y="634" type="line" smooth="yes"/>
      <point x="355" y="650"/>
      <point x="378" y="663"/>
      <point x="386" y="663" type="curve" smooth="yes"/>
      <point x="389" y="663"/>
      <point x="390" y="661"/>
      <point x="391" y="660" type="curve" smooth="yes"/>
      <point x="477" y="126" type="line" smooth="yes"/>
      <point x="483" y="89"/>
      <point x="487" y="62"/>
      <point x="488" y="58" type="curve" smooth="yes"/>
      <point x="494" y="29"/>
      <point x="544" y="26"/>
      <point x="551" y="26" type="curve"/>
      <point x="554" y="19"/>
      <point x="550" y="0"/>
      <point x="548" y="-3" type="curve"/>
      <point x="511" y="-1"/>
      <point x="480" y="2"/>
      <point x="439" y="2" type="curve" smooth="yes"/>
      <point x="396" y="2"/>
      <point x="378" y="-1"/>
      <point x="335" y="-3" type="curve"/>
      <point x="331" y="2"/>
      <point x="335" y="21"/>
    </contour>
    <contour>
      <point x="192" y="289" type="line"/>
      <point x="367" y="289" type="line"/>
      <point x="329" y="535" type="line"/>
    </contour>
  </outline>
</glyph>
<glyph name="B" format="1">
  <advance width="566"/>
  <unicode hex="0042"/>
  <outline>
    <contour>
      <point x="218" y="370" type="line"/>
      <point x="312" y="370" type="line" smooth="yes"/>
      <point x="379" y="370"/>
      <point x="433" y="437"/>
      <point x="433" y="522" type="curve" smooth="yes"/>
      <point x="433" y="578"/>
      <point x="405" y="630"/>
      <point x="319" y="630" type="curve" smooth="yes"/>
      <point x="308" y="630"/>
      <point x="275" y="629"/>
      <point x="270" y="620" type="curve" smooth="yes"/>
      <point x="263" y="608"/>
      <point x="257" y="575"/>
      <point x="251" y="545" type="curve" smooth="yes"/>
    </contour>
    <contour>
      <point x="211" y="339" type="line"/>
      <point x="167" y="114" type="line" smooth="yes"/>
      <point x="164" y="100"/>
      <point x="156" y="50"/>
      <point x="161" y="43" type="curve" smooth="yes"/>
      <point x="172" y="27"/>
      <point x="197" y="26"/>
      <point x="231" y="26" type="curve" smooth="yes"/>
      <point x="334" y="26"/>
      <point x="409" y="96"/>
      <point x="409" y="220" type="curve" smooth="yes"/>
      <point x="409" y="250"/>
      <point x="411" y="339"/>
      <point x="268" y="339" type="curve" smooth="yes"/>
    </contour>
    <contour>
      <point x="233" y="657" type="curve" smooth="yes"/>
      <point x="269" y="657"/>
      <point x="310" y="659"/>
      <point x="365" y="659" type="curve" smooth="yes"/>
      <point x="450" y="659"/>
      <point x="521" y="623"/>
      <point x="521" y="537" type="curve" smooth="yes"/>
      <point x="521" y="437"/>
      <point x="441" y="387"/>
      <point x="401" y="366" type="curve"/>
      <point x="446" y="362"/>
      <point x="504" y="308"/>
      <point x="504" y="226" type="curve" smooth="yes"/>
      <point x="504" y="90"/>
      <point x="378" y="-3"/>
      <point x="209" y="-3" type="curve" smooth="yes"/>
      <point x="-5" y="-3" type="line"/>
      <point x="-9" y="2"/>
      <point x="-4" y="21"/>
      <point x="1" y="26" type="curve"/>
      <point x="12" y="26"/>
      <point x="63" y="31"/>
      <point x="68" y="42" type="curve" smooth="yes"/>
      <point x="76" y="58"/>
      <point x="81" y="86"/>
      <point x="87" y="116" type="curve" smooth="yes"/>
      <point x="170" y="543" type="line" smooth="yes"/>
      <point x="176" y="573"/>
      <point x="181" y="602"/>
      <point x="180" y="617" type="curve" smooth="yes"/>
      <point x="180" y="629"/>
      <point x="130" y="633"/>
      <point x="119" y="633" type="curve"/>
      <point x="116" y="638"/>
      <point x="118" y="657"/>
      <point x="124" y="662" type="curve"/>
      <point x="162" y="660"/>
      <point x="197" y="657"/>
    </contour>
  </outline>
</glyph>
<glyph name="H" format="1">
  <advance width="686"/>
  <unicode hex="0048"/>
  <outline>
    <contour>
      <point x="168" y="116" type="line" smooth="yes"/>
      <point x="162" y="86"/>
      <point x="156" y="58"/>
      <point x="158" y="42" type="curve" smooth="yes"/>
      <point x="159" y="31"/>
      <point x="208" y="26"/>
      <point x="219" y="26" type="curve"/>
      <point x="222" y="21"/>
      <point x="219" y="2"/>
      <point x="213" y="-3" type="curve"/>
      <point x="175" y="-1"/>
      <point x="142" y="2"/>
      <point x="106" y="2" type="curve" smooth="yes"/>
      <point x="70" y="2"/>
      <point x="34" y="-1"/>
      <point x="-5" y="-3" type="curve"/>
      <point x="-9" y="2"/>
      <point x="-5" y="21"/>
      <point x="-0" y="26" type="curve"/>
      <point x="11" y="26"/>
      <point x="63" y="31"/>
      <point x="68" y="42" type="curve" smooth="yes"/>
      <point x="76" y="58"/>
      <point x="81" y="86"/>
      <point x="87" y="116" type="curve" smooth="yes"/>
      <point x="170" y="543" type="line" smooth="yes"/>
      <point x="176" y="573"/>
      <point x="181" y="601"/>
      <point x="179" y="617" type="curve" smooth="yes"/>
      <point x="178" y="628"/>
      <point x="129" y="633"/>
      <point x="118" y="633" type="curve"/>
      <point x="115" y="638"/>
      <point x="118" y="657"/>
      <point x="124" y="662" type="curve"/>
      <point x="162" y="660"/>
      <point x="197" y="657"/>
      <point x="233" y="657" type="curve" smooth="yes"/>
      <point x="269" y="657"/>
      <point x="304" y="660"/>
      <point x="343" y="662" type="curve"/>
      <point x="347" y="657"/>
      <point x="342" y="638"/>
      <point x="337" y="633" type="curve"/>
      <point x="326" y="633"/>
      <point x="275" y="628"/>
      <point x="270" y="617" type="curve" smooth="yes"/>
      <point x="262" y="601"/>
      <point x="256" y="573"/>
      <point x="251" y="543" type="curve" smooth="yes"/>
      <point x="214" y="356" type="line"/>
      <point x="506" y="356" type="line"/>
      <point x="543" y="543" type="line" smooth="yes"/>
      <point x="548" y="573"/>
      <point x="554" y="601"/>
      <point x="552" y="617" type="curve" smooth="yes"/>
      <point x="551" y="628"/>
      <point x="502" y="633"/>
      <point x="491" y="633" type="curve"/>
      <point x="488" y="638"/>
      <point x="491" y="657"/>
      <point x="497" y="662" type="curve"/>
      <point x="535" y="660"/>
      <point x="570" y="657"/>
      <point x="606" y="657" type="curve" smooth="yes"/>
      <point x="642" y="657"/>
      <point x="677" y="660"/>
      <point x="716" y="662" type="curve"/>
      <point x="720" y="657"/>
      <point x="715" y="638"/>
      <point x="710" y="633" type="curve"/>
      <point x="699" y="633"/>
      <point x="648" y="628"/>
      <point x="643" y="617" type="curve" smooth="yes"/>
      <point x="635" y="601"/>
      <point x="630" y="573"/>
      <point x="624" y="543" type="curve" smooth="yes"/>
      <point x="541" y="116" type="line" smooth="yes"/>
      <point x="535" y="86"/>
      <point x="529" y="58"/>
      <point x="531" y="42" type="curve" smooth="yes"/>
      <point x="532" y="31"/>
      <point x="581" y="26"/>
      <point x="592" y="26" type="curve"/>
      <point x="595" y="21"/>
      <point x="592" y="2"/>
      <point x="586" y="-3" type="curve"/>
      <point x="548" y="-1"/>
      <point x="514" y="2"/>
      <point x="478" y="2" type="curve" smooth="yes"/>
      <point x="442" y="2"/>
      <point x="407" y="-1"/>
      <point x="368" y="-3" type="curve"/>
      <point x="364" y="2"/>
      <point x="368" y="21"/>
      <point x="373" y="26" type="curve"/>
      <point x="384" y="26"/>
      <point x="436" y="31"/>
      <point x="441" y="42" type="curve" smooth="yes"/>
      <point x="449" y="58"/>
      <point x="454" y="86"/>
      <point x="460" y="116" type="curve" smooth="yes"/>
      <point x="499" y="316" type="line"/>
      <point x="207" y="316" type="line"/>
    </contour>
  </outline>
</glyph>
<glyph name="J" format="1">
  <advance width="313"/>
  <unicode hex="004A"/>
  <outline>
    <contour>
      <point x="164" y="543" type="line" smooth="yes"/>
      <point x="169" y="573"/>
      <point x="175" y="601"/>
      <point x="173" y="617" type="curve" smooth="yes"/>
      <point x="172" y="628"/>
      <point x="123" y="633"/>
      <point x="112" y="633" type="curve"/>
      <point x="109" y="638"/>
      <point x="112" y="657"/>
      <point x="118" y="662" type="curve"/>
      <point x="156" y="660"/>
      <point x="191" y="657"/>
      <point x="227" y="657" type="curve" smooth="yes"/>
      <point x="263" y="657"/>
      <point x="298" y="660"/>
      <point x="337" y="662" type="curve"/>
      <point x="341" y="657"/>
      <point x="336" y="638"/>
      <point x="331" y="633" type="curve"/>
      <point x="320" y="633"/>
      <point x="269" y="628"/>
      <point x="264" y="617" type="curve" smooth="yes"/>
      <point x="256" y="601"/>
      <point x="250" y="573"/>
      <point x="245" y="543" type="curve" smooth="yes"/>
      <point x="164" y="116" type="line" smooth="yes"/>
      <point x="114" y="-148"/>
      <point x="-25" y="-233"/>
      <point x="-105" y="-233" type="curve"/>
      <point x="-107" y="-230"/>
      <point x="-108" y="-225"/>
      <point x="-108" y="-220" type="curve" smooth="yes"/>
      <point x="-108" y="-218"/>
      <point x="-107" y="-214"/>
      <point x="-107" y="-214" type="curve"/>
      <point x="5" y="-179"/>
      <point x="49" y="-83"/>
      <point x="84" y="109" type="curve" smooth="yes"/>
    </contour>
  </outline>
</glyph>
<glyph name="L" format="1">
  <advance width="530"/>
  <unicode hex="004C"/>
  <outline>
    <contour>
      <point x="166" y="112" type="line" smooth="yes"/>
      <point x="163" y="97"/>
      <point x="153" y="45"/>
      <point x="158" y="40" type="curve" smooth="yes"/>
      <point x="168" y="30"/>
      <point x="183" y="30"/>
      <point x="222" y="30" type="curve" smooth="yes"/>
      <point x="275" y="30" type="line" smooth="yes"/>
      <point x="310" y="30"/>
      <point x="352" y="39"/>
      <point x="383" y="57" type="curve" smooth="yes"/>
      <point x="413" y="74"/>
      <point x="443" y="109"/>
      <point x="468" y="162" type="curve" smooth="yes"/>
      <point x="470" y="166"/>
      <point x="476" y="168"/>
      <point x="483" y="168" type="curve" smooth="yes"/>
      <point x="492" y="168"/>
      <point x="503" y="165"/>
      <point x="505" y="162" type="curve"/>
      <point x="477" y="108"/>
      <point x="437" y="40"/>
      <point x="422" y="-4" type="curve"/>
      <point x="321" y="-4"/>
      <point x="230" y="0"/>
      <point x="106" y="0" type="curve" smooth="yes"/>
      <point x="62" y="0"/>
      <point x="31" y="-3"/>
      <point x="-5" y="-3" type="curve"/>
      <point x="-9" y="2"/>
      <point x="-4" y="21"/>
      <point x="1" y="26" type="curve"/>
      <point x="12" y="26"/>
      <point x="63" y="31"/>
      <point x="68" y="42" type="curve" smooth="yes"/>
      <point x="76" y="58"/>
      <point x="81" y="86"/>
      <point x="87" y="116" type="curve" smooth="yes"/>
      <point x="170" y="543" type="line" smooth="yes"/>
      <point x="176" y="573"/>
      <point x="182" y="601"/>
      <point x="180" y="617" type="curve" smooth="yes"/>
      <point x="179" y="628"/>
      <point x="130" y="633"/>
      <point x="119" y="633" type="curve"/>
      <point x="116" y="638"/>
      <point x="118" y="657"/>
      <point x="124" y="662" type="curve"/>
      <point x="162" y="660"/>
      <point x="197" y="657"/>
      <point x="233" y="657" type="curve" smooth="yes"/>
      <point x="269" y="657"/>
      <point x="304" y="660"/>
      <point x="343" y="662" type="curve"/>
      <point x="347" y="657"/>
      <point x="342" y="638"/>
      <point x="337" y="633" type="curve"/>
      <point x="326" y="633"/>
      <point x="275" y="628"/>
      <point x="270" y="617" type="curve" smooth="yes"/>
      <point x="262" y="601"/>
      <point x="257" y="573"/>
      <point x="251" y="543" type="curve" smooth="yes"/>
    </contour>
  </outline>
</glyph>
<glyph name="M" format="1">
  <advance width="838"/>
  <unicode hex="004D"/>
  <outline>
    <contour>
      <point x="397" y="49" type="curve" smooth="yes"/>
      <point x="392" y="40"/>
      <point x="363" y="0"/>
      <point x="352" y="-2" type="curve" smooth="yes"/>
      <point x="349" y="-3"/>
      <point x="347" y="-1"/>
      <point x="344" y="0" type="curve"/>
      <point x="230" y="584" type="line"/>
      <point x="184" y="366"/>
      <point x="121" y="85"/>
      <point x="119" y="75" type="curve" smooth="yes"/>
      <point x="117" y="66"/>
      <point x="116" y="52"/>
      <point x="117" y="44" type="curve" smooth="yes"/>
      <point x="120" y="29"/>
      <point x="180" y="26"/>
      <point x="187" y="26" type="curve"/>
      <point x="190" y="20"/>
      <point x="185" y="0"/>
      <point x="183" y="-3" type="curve"/>
      <point x="146" y="-1"/>
      <point x="127" y="2"/>
      <point x="86" y="2" type="curve" smooth="yes"/>
      <point x="43" y="2"/>
      <point x="19" y="-1"/>
      <point x="-24" y="-3" type="curve"/>
      <point x="-25" y="-1"/>
      <point x="-23" y="18"/>
      <point x="-18" y="26" type="curve"/>
      <point x="-7" y="26"/>
      <point x="49" y="31"/>
      <point x="60" y="44" type="curve" smooth="yes"/>
      <point x="71" y="57"/>
      <point x="76" y="73"/>
      <point x="81" y="94" type="curve" smooth="yes"/>
      <point x="136" y="334"/>
      <point x="184" y="554"/>
      <point x="187" y="572" type="curve" smooth="yes"/>
      <point x="190" y="586"/>
      <point x="193" y="601"/>
      <point x="191" y="612" type="curve"/>
      <point x="190" y="624"/>
      <point x="141" y="633"/>
      <point x="130" y="633" type="curve"/>
      <point x="128" y="639"/>
      <point x="132" y="659"/>
      <point x="136" y="662" type="curve"/>
      <point x="165" y="660"/>
      <point x="189" y="658"/>
      <point x="226" y="658" type="curve" smooth="yes"/>
      <point x="254" y="658"/>
      <point x="286" y="660"/>
      <point x="307" y="662" type="curve"/>
      <point x="313" y="599"/>
      <point x="407" y="143"/>
      <point x="407" y="139" type="curve"/>
      <point x="409" y="144"/>
      <point x="632" y="542"/>
      <point x="632" y="542" type="curve" smooth="yes"/>
      <point x="658" y="588"/>
      <point x="696" y="662"/>
      <point x="696" y="662" type="curve"/>
      <point x="725" y="660"/>
      <point x="748" y="658"/>
      <point x="766" y="658" type="curve" smooth="yes"/>
      <point x="799" y="658"/>
      <point x="834" y="660"/>
      <point x="858" y="662" type="curve"/>
      <point x="858" y="659"/>
      <point x="856" y="633"/>
      <point x="856" y="633" type="curve"/>
      <point x="843" y="633"/>
      <point x="793" y="625"/>
      <point x="786" y="615" type="curve"/>
      <point x="781" y="606"/>
      <point x="776" y="589"/>
      <point x="774" y="577" type="curve" smooth="yes"/>
      <point x="698" y="140" type="line" smooth="yes"/>
      <point x="691" y="101"/>
      <point x="687" y="67"/>
      <point x="691" y="43" type="curve" smooth="yes"/>
      <point x="693" y="29"/>
      <point x="745" y="26"/>
      <point x="752" y="26" type="curve"/>
      <point x="755" y="17"/>
      <point x="751" y="0"/>
      <point x="749" y="-3" type="curve"/>
      <point x="712" y="-1"/>
      <point x="680" y="2"/>
      <point x="639" y="2" type="curve" smooth="yes"/>
      <point x="596" y="2"/>
      <point x="569" y="-1"/>
      <point x="526" y="-3" type="curve"/>
      <point x="525" y="-1"/>
      <point x="527" y="18"/>
      <point x="532" y="26" type="curve"/>
      <point x="543" y="26"/>
      <point x="582" y="30"/>
      <point x="595" y="37" type="curve" smooth="yes"/>
      <point x="602" y="41"/>
      <point x="608" y="65"/>
      <point x="611" y="79" type="curve" smooth="yes"/>
      <point x="614" y="93"/>
      <point x="659" y="376"/>
      <point x="690" y="566" type="curve"/>
      <point x="677" y="545"/>
      <point x="397" y="49"/>
    </contour>
  </outline>
</glyph>
<glyph name="P" format="1">
  <advance width="511"/>
  <unicode hex="0050"/>
  <outline>
    <contour>
      <point x="523" y="508" type="curve" smooth="yes"/>
      <point x="523" y="380"/>
      <point x="412" y="282"/>
      <point x="290" y="282" type="curve" smooth="yes"/>
      <point x="269" y="282"/>
      <point x="250" y="288"/>
      <point x="245" y="292" type="curve" smooth="yes"/>
      <point x="243" y="294"/>
      <point x="237" y="303"/>
      <point x="237" y="308" type="curve" smooth="yes"/>
      <point x="237" y="310"/>
      <point x="239" y="311"/>
      <point x="241" y="312" type="curve"/>
      <point x="249" y="308"/>
      <point x="265" y="308"/>
      <point x="274" y="308" type="curve" smooth="yes"/>
      <point x="348" y="308"/>
      <point x="434" y="382"/>
      <point x="434" y="494" type="curve" smooth="yes"/>
      <point x="434" y="550"/>
      <point x="421" y="630"/>
      <point x="318" y="630" type="curve" smooth="yes"/>
      <point x="307" y="630"/>
      <point x="275" y="629"/>
      <point x="270" y="620" type="curve" smooth="yes"/>
      <point x="263" y="608"/>
      <point x="257" y="575"/>
      <point x="251" y="545" type="curve" smooth="yes"/>
      <point x="167" y="116" type="line" smooth="yes"/>
      <point x="161" y="86"/>
      <point x="156" y="58"/>
      <point x="158" y="42" type="curve" smooth="yes"/>
      <point x="159" y="31"/>
      <point x="208" y="26"/>
      <point x="219" y="26" type="curve"/>
      <point x="222" y="21"/>
      <point x="219" y="2"/>
      <point x="213" y="-3" type="curve"/>
      <point x="175" y="-1"/>
      <point x="141" y="2"/>
      <point x="105" y="2" type="curve" smooth="yes"/>
      <point x="69" y="2"/>
      <point x="34" y="-1"/>
      <point x="-5" y="-3" type="curve"/>
      <point x="-9" y="2"/>
      <point x="-5" y="21"/>
      <point x="-0" y="26" type="curve"/>
      <point x="11" y="26"/>
      <point x="63" y="31"/>
      <point x="68" y="42" type="curve" smooth="yes"/>
      <point x="76" y="58"/>
      <point x="81" y="86"/>
      <point x="87" y="116" type="curve" smooth="yes"/>
      <point x="170" y="543" type="line" smooth="yes"/>
      <point x="176" y="573"/>
      <point x="181" y="601"/>
      <point x="179" y="617" type="curve" smooth="yes"/>
      <point x="178" y="628"/>
      <point x="129" y="633"/>
      <point x="118" y="633" type="curve"/>
      <point x="115" y="638"/>
      <point x="118" y="657"/>
      <point x="124" y="662" type="curve"/>
      <point x="162" y="660"/>
      <point x="199" y="657"/>
      <point x="235" y="657" type="curve" smooth="yes"/>
      <point x="271" y="657"/>
      <point x="287" y="659"/>
      <point x="342" y="659" type="curve" smooth="yes"/>
      <point x="448" y="659"/>
      <point x="523" y="599"/>
    </contour>
  </outline>
</glyph>
<glyph name="Q" format="1">
  <advance width="710"/>
  <unicode hex="0051"/>
  <outline>
    <contour>
      <point x="415" y="665" type="curve" smooth="yes"/>
      <point x="573" y="665"/>
      <point x="672" y="542"/>
      <point x="672" y="382" type="curve" smooth="yes"/>
      <point x="672" y="176"/>
      <point x="547" y="28"/>
      <point x="386" y="-4" type="curve"/>
      <point x="459" y="-47"/>
      <point x="484" y="-81"/>
      <point x="575" y="-81" type="curve" smooth="yes"/>
      <point x="612" y="-81"/>
      <point x="659" y="-70"/>
      <point x="666" y="-68" type="curve"/>
      <point x="673" y="-68"/>
      <point x="685" y="-77"/>
      <point x="685" y="-81" type="curve"/>
      <point x="628" y="-110"/>
      <point x="566" y="-136"/>
      <point x="509" y="-136" type="curve" smooth="yes"/>
      <point x="411" y="-136"/>
      <point x="343" y="-37"/>
      <point x="228" y="4" type="curve" smooth="yes"/>
      <point x="122" y="42"/>
      <point x="61" y="147"/>
      <point x="61" y="273" type="curve" smooth="yes"/>
      <point x="61" y="503"/>
      <point x="233" y="665"/>
    </contour>
    <contour>
      <point x="406" y="635" type="curve" smooth="yes"/>
      <point x="280" y="635"/>
      <point x="155" y="478"/>
      <point x="155" y="268" type="curve" smooth="yes"/>
      <point x="155" y="153"/>
      <point x="191" y="18"/>
      <point x="328" y="18" type="curve" smooth="yes"/>
      <point x="481" y="18"/>
      <point x="578" y="214"/>
      <point x="578" y="393" type="curve" smooth="yes"/>
      <point x="578" y="489"/>
      <point x="547" y="635"/>
    </contour>
  </outline>
</glyph>
<glyph name="V" format="1">
  <advance width="596"/>
  <unicode hex="0056"/>
  <outline>
    <contour>
      <point x="175" y="657" type="curve" smooth="yes"/>
      <point x="216" y="657"/>
      <point x="253" y="660"/>
      <point x="291" y="662" type="curve"/>
      <point x="292" y="656"/>
      <point x="288" y="634"/>
      <point x="284" y="633" type="curve"/>
      <point x="277" y="633"/>
      <point x="227" y="628"/>
      <point x="222" y="600" type="curve" smooth="yes"/>
      <point x="220" y="590"/>
      <point x="221" y="565"/>
      <point x="226" y="529" type="curve" smooth="yes"/>
      <point x="238" y="440"/>
      <point x="285" y="131"/>
      <point x="286" y="128" type="curve"/>
      <point x="290" y="133"/>
      <point x="511" y="524"/>
      <point x="511" y="524" type="curve" smooth="yes"/>
      <point x="525" y="547"/>
      <point x="535" y="576"/>
      <point x="538" y="594" type="curve" smooth="yes"/>
      <point x="544" y="626"/>
      <point x="496" y="633"/>
      <point x="485" y="633" type="curve"/>
      <point x="481" y="635"/>
      <point x="484" y="657"/>
      <point x="490" y="662" type="curve"/>
      <point x="524" y="660"/>
      <point x="554" y="657"/>
      <point x="588" y="657" type="curve" smooth="yes"/>
      <point x="631" y="657"/>
      <point x="642" y="660"/>
      <point x="680" y="662" type="curve"/>
      <point x="682" y="657"/>
      <point x="676" y="633"/>
      <point x="673" y="633" type="curve" smooth="yes"/>
      <point x="666" y="633"/>
      <point x="628" y="627"/>
      <point x="608" y="607" type="curve" smooth="yes"/>
      <point x="594" y="593"/>
      <point x="563" y="544"/>
      <point x="542" y="506" type="curve" smooth="yes"/>
      <point x="269" y="32" type="line" smooth="yes"/>
      <point x="254" y="5"/>
      <point x="239" y="-2"/>
      <point x="227" y="-2" type="curve" smooth="yes"/>
      <point x="223" y="-2"/>
      <point x="222" y="10"/>
      <point x="221" y="14" type="curve" smooth="yes"/>
      <point x="192" y="192"/>
      <point x="174" y="322"/>
      <point x="142" y="514" type="curve" smooth="yes"/>
      <point x="136" y="553"/>
      <point x="129" y="584"/>
      <point x="118" y="610" type="curve" smooth="yes"/>
      <point x="111" y="626"/>
      <point x="73" y="633"/>
      <point x="62" y="633" type="curve" smooth="yes"/>
      <point x="60" y="633"/>
      <point x="66" y="660"/>
      <point x="68" y="662" type="curve"/>
      <point x="110" y="660"/>
      <point x="132" y="657"/>
    </contour>
  </outline>
</glyph>
<glyph name="W" format="1">
  <advance width="841"/>
  <unicode hex="0057"/>
  <outline>
    <contour>
      <point x="172" y="657" type="curve" smooth="yes"/>
      <point x="213" y="657"/>
      <point x="247" y="660"/>
      <point x="285" y="662" type="curve"/>
      <point x="286" y="656"/>
      <point x="281" y="634"/>
      <point x="277" y="633" type="curve"/>
      <point x="270" y="633"/>
      <point x="220" y="628"/>
      <point x="215" y="600" type="curve" smooth="yes"/>
      <point x="214" y="594"/>
      <point x="215" y="575"/>
      <point x="217" y="545" type="curve" smooth="yes"/>
      <point x="222" y="460"/>
      <point x="235" y="294"/>
      <point x="247" y="145" type="curve"/>
      <point x="476" y="629" type="line" smooth="yes"/>
      <point x="486" y="648"/>
      <point x="506" y="662"/>
      <point x="516" y="662" type="curve" smooth="yes"/>
      <point x="520" y="662"/>
      <point x="521" y="657"/>
      <point x="524" y="646" type="curve"/>
      <point x="526" y="624"/>
      <point x="559" y="343"/>
      <point x="583" y="144" type="curve"/>
      <point x="754" y="524" type="line" smooth="yes"/>
      <point x="765" y="548"/>
      <point x="775" y="576"/>
      <point x="778" y="594" type="curve" smooth="yes"/>
      <point x="784" y="626"/>
      <point x="733" y="633"/>
      <point x="722" y="633" type="curve"/>
      <point x="718" y="635"/>
      <point x="722" y="657"/>
      <point x="728" y="662" type="curve"/>
      <point x="762" y="660"/>
      <point x="793" y="657"/>
      <point x="827" y="657" type="curve" smooth="yes"/>
      <point x="870" y="657"/>
      <point x="881" y="660"/>
      <point x="919" y="662" type="curve"/>
      <point x="921" y="657"/>
      <point x="915" y="633"/>
      <point x="912" y="633" type="curve" smooth="yes"/>
      <point x="905" y="633"/>
      <point x="869" y="624"/>
      <point x="847" y="607" type="curve" smooth="yes"/>
      <point x="832" y="595"/>
      <point x="818" y="572"/>
      <point x="799" y="531" type="curve" smooth="yes"/>
      <point x="566" y="32" type="line" smooth="yes"/>
      <point x="558" y="14"/>
      <point x="536" y="-2"/>
      <point x="524" y="-2" type="curve" smooth="yes"/>
      <point x="520" y="-2"/>
      <point x="518" y="10"/>
      <point x="518" y="14" type="curve" smooth="yes"/>
      <point x="496" y="202"/>
      <point x="481" y="317"/>
      <point x="457" y="511" type="curve"/>
      <point x="229" y="32" type="line" smooth="yes"/>
      <point x="221" y="14"/>
      <point x="200" y="-2"/>
      <point x="188" y="-2" type="curve" smooth="yes"/>
      <point x="184" y="-2"/>
      <point x="181" y="10"/>
      <point x="181" y="14" type="curve" smooth="yes"/>
      <point x="133" y="532" type="line" smooth="yes"/>
      <point x="130" y="572"/>
      <point x="130" y="595"/>
      <point x="116" y="613" type="curve" smooth="yes"/>
      <point x="106" y="626"/>
      <point x="76" y="633"/>
      <point x="65" y="633" type="curve" smooth="yes"/>
      <point x="63" y="633"/>
      <point x="69" y="660"/>
      <point x="71" y="662" type="curve"/>
      <point x="113" y="660"/>
      <point x="129" y="657"/>
    </contour>
  </outline>
</glyph>
<glyph name="X" format="1">
  <advance width="620"/>
  <unicode hex="0058"/>
  <outline>
    <contour>
      <point x="224" y="657" type="curve" smooth="yes"/>
      <point x="270" y="657"/>
      <point x="306" y="660"/>
      <point x="344" y="662" type="curve"/>
      <point x="345" y="656"/>
      <point x="342" y="633"/>
      <point x="337" y="633" type="curve" smooth="yes"/>
      <point x="324" y="633"/>
      <point x="280" y="627"/>
      <point x="275" y="601" type="curve" smooth="yes"/>
      <point x="273" y="593"/>
      <point x="275" y="583"/>
      <point x="280" y="571" type="curve" smooth="yes"/>
      <point x="354" y="392" type="line"/>
      <point x="425" y="472"/>
      <point x="507" y="564"/>
      <point x="526" y="592" type="curve" smooth="yes"/>
      <point x="528" y="595"/>
      <point x="533" y="602"/>
      <point x="534" y="608" type="curve" smooth="yes"/>
      <point x="535" y="614"/>
      <point x="525" y="632"/>
      <point x="473" y="632" type="curve"/>
      <point x="469" y="633"/>
      <point x="473" y="654"/>
      <point x="477" y="661" type="curve"/>
      <point x="514" y="658"/>
      <point x="542" y="656"/>
      <point x="576" y="656" type="curve" smooth="yes"/>
      <point x="624" y="656"/>
      <point x="656" y="659"/>
      <point x="679" y="661" type="curve"/>
      <point x="681" y="656"/>
      <point x="678" y="638"/>
      <point x="671" y="632" type="curve"/>
      <point x="664" y="632"/>
      <point x="614" y="628"/>
      <point x="581" y="592" type="curve" smooth="yes"/>
      <point x="368" y="361" type="line"/>
      <point x="491" y="66" type="line" smooth="yes"/>
      <point x="503" y="37"/>
      <point x="543" y="26"/>
      <point x="574" y="26" type="curve"/>
      <point x="577" y="21"/>
      <point x="570" y="-1"/>
      <point x="569" y="-3" type="curve"/>
      <point x="532" y="-1"/>
      <point x="513" y="2"/>
      <point x="475" y="2" type="curve" smooth="yes"/>
      <point x="423" y="2"/>
      <point x="390" y="-1"/>
      <point x="338" y="-3" type="curve"/>
      <point x="334" y="2"/>
      <point x="338" y="26"/>
      <point x="343" y="26" type="curve" smooth="yes"/>
      <point x="353" y="26"/>
      <point x="399" y="35"/>
      <point x="403" y="54" type="curve" smooth="yes"/>
      <point x="404" y="57"/>
      <point x="402" y="63"/>
      <point x="401" y="66" type="curve" smooth="yes"/>
      <point x="305" y="300" type="line"/>
      <point x="234" y="220"/>
      <point x="128" y="93"/>
      <point x="106" y="66" type="curve" smooth="yes"/>
      <point x="104" y="63"/>
      <point x="99" y="56"/>
      <point x="98" y="50" type="curve" smooth="yes"/>
      <point x="97" y="44"/>
      <point x="112" y="26"/>
      <point x="164" y="26" type="curve"/>
      <point x="167" y="20"/>
      <point x="162" y="0"/>
      <point x="160" y="-3" type="curve"/>
      <point x="126" y="-1"/>
      <point x="90" y="2"/>
      <point x="56" y="2" type="curve" smooth="yes"/>
      <point x="8" y="2"/>
      <point x="-21" y="-1"/>
      <point x="-59" y="-3" type="curve"/>
      <point x="-61" y="3"/>
      <point x="-54" y="23"/>
      <point x="-52" y="26" type="curve"/>
      <point x="-45" y="26"/>
      <point x="19" y="30"/>
      <point x="52" y="66" type="curve" smooth="yes"/>
      <point x="289" y="332" type="line"/>
      <point x="200" y="548" type="line" smooth="yes"/>
      <point x="186" y="584"/>
      <point x="175" y="601"/>
      <point x="152" y="617" type="curve" smooth="yes"/>
      <point x="138" y="627"/>
      <point x="114" y="633"/>
      <point x="103" y="633" type="curve" smooth="yes"/>
      <point x="98" y="633"/>
      <point x="103" y="657"/>
      <point x="109" y="662" type="curve"/>
      <point x="154" y="660"/>
      <point x="178" y="657"/>
    </contour>
  </outline>
</glyph>
<glyph name="Z" format="1">
  <advance width="602"/>
  <unicode hex="005A"/>
  <outline>
    <contour>
      <point x="279" y="629" type="line" smooth="yes"/>
      <point x="216" y="629"/>
      <point x="161" y="574"/>
      <point x="125" y="492" type="curve" smooth="yes"/>
      <point x="123" y="489"/>
      <point x="119" y="488"/>
      <point x="114" y="488" type="curve" smooth="yes"/>
      <point x="106" y="488"/>
      <point x="93" y="493"/>
      <point x="91" y="496" type="curve"/>
      <point x="116" y="542"/>
      <point x="136" y="601"/>
      <point x="155" y="669" type="curve"/>
      <point x="174" y="666"/>
      <point x="205" y="661"/>
      <point x="230" y="661" type="curve" smooth="yes"/>
      <point x="411" y="661" type="line" smooth="yes"/>
      <point x="489" y="661"/>
      <point x="529" y="665"/>
      <point x="608" y="671" type="curve"/>
      <point x="612" y="670"/>
      <point x="622" y="657"/>
      <point x="620" y="649" type="curve" smooth="yes"/>
      <point x="617" y="641"/>
      <point x="312" y="270"/>
      <point x="103" y="32" type="curve"/>
      <point x="347" y="32" type="line" smooth="yes"/>
      <point x="394" y="32"/>
      <point x="432" y="58"/>
      <point x="457" y="85" type="curve" smooth="yes"/>
      <point x="483" y="113"/>
      <point x="499" y="147"/>
      <point x="513" y="172" type="curve" smooth="yes"/>
      <point x="514" y="174"/>
      <point x="521" y="175"/>
      <point x="526" y="175" type="curve" smooth="yes"/>
      <point x="535" y="175"/>
      <point x="544" y="170"/>
      <point x="547" y="166" type="curve"/>
      <point x="509" y="87"/>
      <point x="493" y="50"/>
      <point x="474" y="0" type="curve"/>
      <point x="4" y="0" type="line" smooth="yes"/>
      <point x="-6" y="0"/>
      <point x="-15" y="8"/>
      <point x="-10" y="14" type="curve" smooth="yes"/>
      <point x="508" y="630" type="line"/>
    </contour>
  </outline>
</glyph>
<glyph name="bracketleft" format="1">
  <advance width="260"/>
  <unicode hex="005B"/>
  <outline>
    <contour>
      <point x="161" y="717" type="line" smooth="yes"/>
      <point x="161" y="718"/>
      <point x="167" y="740"/>
      <point x="184" y="740" type="curve" smooth="yes"/>
      <point x="259" y="740"/>
      <point x="319" y="749"/>
      <point x="334" y="749" type="curve" smooth="yes"/>
      <point x="336" y="749"/>
      <point x="339" y="749"/>
      <point x="339" y="743" type="curve" smooth="yes"/>
      <point x="339" y="721"/>
      <point x="316" y="707"/>
      <point x="315" y="706" type="curve" smooth="yes"/>
      <point x="315" y="706"/>
      <point x="269" y="695"/>
      <point x="219" y="695" type="curve" smooth="yes"/>
      <point x="213" y="695"/>
      <point x="211" y="687"/>
      <point x="211" y="687" type="curve"/>
      <point x="67" y="-49" type="line"/>
    </contour>
  </outline>
</glyph>
<glyph name="underscore" format="1">
  <advance width="475"/>
  <unicode hex="005F"/>
  <outline>
    <contour>
      <point x="-34" y="-43" type="curve" smooth="yes"/>
      <point x="-39" y="-43"/>
      <point x="-39" y="-38"/>
      <point x="-39" y="-32" type="curve"/>
      <point x="-39" y="-21"/>
      <point x="-26" y="13"/>
      <point x="-15" y="13" type="curve" smooth="yes"/>
      <point x="148" y="13"/>
      <point x="352" y="13"/>
      <point x="399" y="13" type="curve" smooth="yes"/>
      <point x="403" y="13"/>
      <point x="405" y="9"/>
      <point x="405" y="5" type="curve"/>
      <point x="405" y="-15.8806"/>
      <point x="392" y="-43"/>
      <point x="381" y="-43" type="curve" smooth="yes"/>
      <point x="369" y="-43"/>
      <point x="-14" y="-43"/>
    </contour>
  </outline>
</glyph>
<glyph name="a" format="1">
  <advance width="449"/>
  <unicode hex="0061"/>
  <outline>
    <contour>
      <point x="305" y="435" type="curve" smooth="yes"/>
      <point x="340" y="435"/>
      <point x="364" y="429"/>
      <point x="383" y="422" type="curve"/>
      <point x="322" y="106" type="line" smooth="yes"/>
      <point x="319" y="94"/>
      <point x="311" y="49"/>
      <point x="328" y="49" type="curve" smooth="yes"/>
      <point x="349" y="49"/>
      <point x="395" y="104"/>
      <point x="398" y="107" type="curve"/>
      <point x="401" y="107"/>
      <point x="408" y="94"/>
      <point x="408" y="88" type="curve"/>
      <point x="397" y="69"/>
      <point x="324" y="-6"/>
      <point x="277" y="-6" type="curve" smooth="yes"/>
      <point x="256" y="-6"/>
      <point x="243" y="16"/>
      <point x="243" y="46" type="curve" smooth="yes"/>
      <point x="243" y="54"/>
      <point x="246" y="78"/>
      <point x="250" y="99" type="curve" smooth="yes"/>
      <point x="253" y="117"/>
      <point x="254" y="123"/>
      <point x="255" y="130" type="curve"/>
      <point x="235" y="94"/>
      <point x="166" y="-5"/>
      <point x="108" y="-5" type="curve" smooth="yes"/>
      <point x="54" y="-5"/>
      <point x="19" y="43"/>
      <point x="19" y="113" type="curve" smooth="yes"/>
      <point x="19" y="287"/>
      <point x="183" y="435"/>
    </contour>
    <contour>
      <point x="259" y="395" type="curve" smooth="yes"/>
      <point x="182" y="395"/>
      <point x="93" y="266"/>
      <point x="93" y="151" type="curve" smooth="yes"/>
      <point x="93" y="89"/>
      <point x="109" y="53"/>
      <point x="144" y="53" type="curve" smooth="yes"/>
      <point x="194" y="53"/>
      <point x="265" y="178"/>
      <point x="284" y="274" type="curve" smooth="yes"/>
      <point x="305" y="380" type="line"/>
      <point x="296" y="390"/>
      <point x="272" y="395"/>
    </contour>
  </outline>
</glyph>
<glyph name="c" format="1">
  <advance width="359"/>
  <unicode hex="0063"/>
  <outline>
    <contour>
      <point x="275" y="435" type="curve" smooth="yes"/>
      <point x="307" y="435"/>
      <point x="324" y="421"/>
      <point x="337" y="410" type="curve"/>
      <point x="340" y="406"/>
      <point x="346" y="394"/>
      <point x="346" y="383" type="curve" smooth="yes"/>
      <point x="346" y="360"/>
      <point x="335" y="338"/>
      <point x="312" y="338" type="curve" smooth="yes"/>
      <point x="298" y="338"/>
      <point x="283" y="346"/>
      <point x="276" y="358" type="curve" smooth="yes"/>
      <point x="266" y="374"/>
      <point x="253" y="394"/>
      <point x="224" y="394" type="curve" smooth="yes"/>
      <point x="169" y="394"/>
      <point x="102" y="296"/>
      <point x="102" y="162" type="curve" smooth="yes"/>
      <point x="102" y="127"/>
      <point x="108" y="53"/>
      <point x="171" y="53" type="curve" smooth="yes"/>
      <point x="216" y="53"/>
      <point x="271" y="119"/>
      <point x="274" y="122" type="curve"/>
      <point x="277" y="122"/>
      <point x="286" y="108"/>
      <point x="286" y="102" type="curve"/>
      <point x="275" y="83"/>
      <point x="198" y="-6"/>
      <point x="135" y="-6" type="curve" smooth="yes"/>
      <point x="64" y="-6"/>
      <point x="24" y="47"/>
      <point x="24" y="140" type="curve" smooth="yes"/>
      <point x="24" y="300"/>
      <point x="172" y="435"/>
    </contour>
  </outline>
</glyph>
<glyph name="d" format="1">
  <advance width="449"/>
  <unicode hex="0064"/>
  <outline>
    <contour>
      <point x="296" y="341" type="line" smooth="yes"/>
      <point x="300" y="364"/>
      <point x="288" y="395"/>
      <point x="261" y="395" type="curve" smooth="yes"/>
      <point x="180" y="395"/>
      <point x="93" y="265"/>
      <point x="93" y="150" type="curve" smooth="yes"/>
      <point x="93" y="95"/>
      <point x="107" y="53"/>
      <point x="144" y="53" type="curve" smooth="yes"/>
      <point x="195" y="53"/>
      <point x="265" y="179"/>
      <point x="284" y="276" type="curve"/>
    </contour>
    <contour>
      <point x="339" y="559" type="line" smooth="yes"/>
      <point x="342" y="577"/>
      <point x="348" y="601"/>
      <point x="348" y="612" type="curve" smooth="yes"/>
      <point x="348" y="631"/>
      <point x="303" y="631"/>
      <point x="287" y="631" type="curve"/>
      <point x="284" y="635"/>
      <point x="287" y="648"/>
      <point x="291" y="652" type="curve"/>
      <point x="346" y="657"/>
      <point x="401" y="677"/>
      <point x="423" y="685" type="curve"/>
      <point x="428" y="682"/>
      <point x="429" y="672"/>
      <point x="429" y="666" type="curve" smooth="yes"/>
      <point x="429" y="658"/>
      <point x="421" y="616"/>
      <point x="416" y="591" type="curve" smooth="yes"/>
      <point x="322" y="106" type="line" smooth="yes"/>
      <point x="321" y="102"/>
      <point x="318" y="78"/>
      <point x="318" y="73" type="curve" smooth="yes"/>
      <point x="318" y="64"/>
      <point x="318" y="49"/>
      <point x="328" y="49" type="curve" smooth="yes"/>
      <point x="349" y="49"/>
      <point x="395" y="104"/>
      <point x="398" y="107" type="curve"/>
      <point x="401" y="107"/>
      <point x="408" y="94"/>
      <point x="408" y="88" type="curve"/>
      <point x="397" y="69"/>
      <point x="324" y="-6"/>
      <point x="277" y="-6" type="curve" smooth="yes"/>
      <point x="256" y="-6"/>
      <point x="243" y="16"/>
      <point x="243" y="46" type="curve" smooth="yes"/>
      <point x="243" y="54"/>
      <point x="246" y="78"/>
      <point x="250" y="99" type="curve" smooth="yes"/>
      <point x="254" y="118"/>
      <point x="254" y="123"/>
      <point x="255" y="130" type="curve"/>
      <point x="240" y="100"/>
      <point x="167" y="-5"/>
      <point x="107" y="-5" type="curve" smooth="yes"/>
      <point x="45" y="-5"/>
      <point x="19" y="58"/>
      <point x="19" y="116" type="curve" smooth="yes"/>
      <point x="19" y="273"/>
      <point x="173" y="435"/>
      <point x="303" y="435" type="curve" smooth="yes"/>
      <point x="316" y="435" type="line"/>
    </contour>
  </outline>
</glyph>
<glyph name="f" format="1">
  <advance width="296"/>
  <unicode hex="0066"/>
  <outline>
    <contour>
      <point x="336" y="685" type="line" smooth="yes"/>
      <point x="365" y="685"/>
      <point x="383" y="673"/>
      <point x="390" y="660" type="curve"/>
      <point x="390" y="657"/>
      <point x="390" y="654"/>
      <point x="390" y="651" type="curve" smooth="yes"/>
      <point x="388" y="628"/>
      <point x="379" y="604"/>
      <point x="360" y="604" type="curve" smooth="yes"/>
      <point x="343" y="604"/>
      <point x="333" y="615"/>
      <point x="322" y="627" type="curve" smooth="yes"/>
      <point x="315" y="634"/>
      <point x="307" y="642"/>
      <point x="293" y="642" type="curve" smooth="yes"/>
      <point x="254" y="642"/>
      <point x="234" y="572"/>
      <point x="203" y="413" type="curve"/>
      <point x="303" y="413" type="line" smooth="yes"/>
      <point x="307" y="413"/>
      <point x="308" y="406"/>
      <point x="308" y="401" type="curve" smooth="yes"/>
      <point x="308" y="391"/>
      <point x="304" y="384"/>
      <point x="299" y="376" type="curve"/>
      <point x="196" y="376" type="line"/>
    </contour>
  </outline>
</glyph>
<glyph name="h" format="1">
  <advance width="470"/>
  <unicode hex="0068"/>
  <outline>
    <contour>
      <point x="207" y="591" type="curve" smooth="yes"/>
      <point x="156" y="330" type="line"/>
      <point x="138" y="238" type="line"/>
      <point x="151" y="263"/>
      <point x="271" y="435"/>
      <point x="337" y="435" type="curve" smooth="yes"/>
      <point x="376" y="435"/>
      <point x="392" y="407"/>
      <point x="392" y="369" type="curve" smooth="yes"/>
      <point x="392" y="335"/>
      <point x="386" y="298"/>
      <point x="378" y="260" type="curve" smooth="yes"/>
      <point x="345" y="106" type="line" smooth="yes"/>
      <point x="344" y="102"/>
      <point x="341" y="79"/>
      <point x="341" y="74" type="curve" smooth="yes"/>
      <point x="341" y="65"/>
      <point x="341" y="49"/>
      <point x="351" y="49" type="curve" smooth="yes"/>
      <point x="372" y="49"/>
      <point x="418" y="104"/>
      <point x="421" y="107" type="curve"/>
      <point x="424" y="107"/>
      <point x="431" y="94"/>
      <point x="431" y="88" type="curve"/>
      <point x="420" y="69"/>
      <point x="347" y="-6"/>
      <point x="300" y="-6" type="curve" smooth="yes"/>
      <point x="278" y="-6"/>
      <point x="266" y="16"/>
      <point x="266" y="46" type="curve" smooth="yes"/>
      <point x="266" y="54"/>
      <point x="268" y="78"/>
      <point x="273" y="99" type="curve" smooth="yes"/>
      <point x="308" y="264" type="line" smooth="yes"/>
      <point x="310" y="273"/>
      <point x="315" y="307"/>
      <point x="315" y="318" type="curve" smooth="yes"/>
      <point x="315" y="341"/>
      <point x="313" y="361"/>
      <point x="296" y="361" type="curve" smooth="yes"/>
      <point x="260" y="361"/>
      <point x="140" y="236"/>
      <point x="117" y="119" type="curve" smooth="yes"/>
      <point x="111" y="88"/>
      <point x="102" y="46"/>
      <point x="92" y="0" type="curve"/>
      <point x="82" y="-3"/>
      <point x="66" y="-4"/>
      <point x="56" y="-4" type="curve" smooth="yes"/>
      <point x="46" y="-4"/>
      <point x="34" y="-3"/>
      <point x="22" y="0" type="curve"/>
      <point x="130" y="559" type="line" smooth="yes"/>
      <point x="133" y="577"/>
      <point x="139" y="601"/>
      <point x="139" y="612" type="curve" smooth="yes"/>
      <point x="139" y="631"/>
      <point x="94" y="631"/>
      <point x="78" y="631" type="curve"/>
      <point x="75" y="635"/>
      <point x="78" y="648"/>
      <point x="82" y="652" type="curve"/>
      <point x="137" y="657"/>
      <point x="192" y="677"/>
      <point x="214" y="685" type="curve"/>
      <point x="219" y="682"/>
      <point x="220" y="672"/>
      <point x="220" y="666" type="curve" smooth="yes"/>
      <point x="220" y="658"/>
      <point x="212" y="616"/>
    </contour>
  </outline>
</glyph>
<glyph name="o" format="1">
  <advance width="414"/>
  <unicode hex="006F"/>
  <outline>
    <contour>
      <point x="237" y="403" type="curve" smooth="yes"/>
      <point x="153" y="403"/>
      <point x="102" y="258"/>
      <point x="102" y="158" type="curve" smooth="yes"/>
      <point x="102" y="78"/>
      <point x="123" y="27"/>
      <point x="159" y="27" type="curve" smooth="yes"/>
      <point x="242" y="27"/>
      <point x="290" y="173"/>
      <point x="290" y="273" type="curve" smooth="yes"/>
      <point x="290" y="353"/>
      <point x="273" y="403"/>
    </contour>
    <contour>
      <point x="251" y="435" type="curve" smooth="yes"/>
      <point x="331" y="435"/>
      <point x="368" y="374"/>
      <point x="368" y="288" type="curve" smooth="yes"/>
      <point x="368" y="148"/>
      <point x="255" y="-5"/>
      <point x="140" y="-5" type="curve" smooth="yes"/>
      <point x="60" y="-5"/>
      <point x="24" y="52"/>
      <point x="24" y="138" type="curve" smooth="yes"/>
      <point x="24" y="278"/>
      <point x="136" y="435"/>
    </contour>
  </outline>
</glyph>
<glyph name="p" format="1">
  <advance width="448"/>
  <unicode hex="0070"/>
  <outline>
    <contour>
      <point x="280" y="380" type="curve" smooth="yes"/>
      <point x="247" y="380"/>
      <point x="189" y="338"/>
      <point x="162" y="300" type="curve"/>
      <point x="129" y="131" type="line" smooth="yes"/>
      <point x="118" y="72"/>
      <point x="146" y="30"/>
      <point x="176" y="30" type="curve" smooth="yes"/>
      <point x="261" y="30"/>
      <point x="333" y="184"/>
      <point x="333" y="303" type="curve" smooth="yes"/>
      <point x="333" y="358"/>
      <point x="312" y="380"/>
    </contour>
    <contour>
      <point x="320" y="435" type="curve" smooth="yes"/>
      <point x="384" y="435"/>
      <point x="407" y="384"/>
      <point x="407" y="314" type="curve" smooth="yes"/>
      <point x="407" y="159"/>
      <point x="277" y="-5"/>
      <point x="155" y="-5" type="curve" smooth="yes"/>
      <point x="138" y="-5"/>
      <point x="115" y="-2"/>
      <point x="109" y="8" type="curve"/>
      <point x="76" y="-145" type="line" smooth="yes"/>
      <point x="74" y="-154"/>
      <point x="73" y="-163"/>
      <point x="73" y="-173" type="curve" smooth="yes"/>
      <point x="73" y="-178"/>
      <point x="77" y="-193"/>
      <point x="87" y="-196" type="curve" smooth="yes"/>
      <point x="104" y="-200"/>
      <point x="131" y="-199"/>
      <point x="134" y="-199" type="curve" smooth="yes"/>
      <point x="138" y="-200"/>
      <point x="136" y="-225"/>
      <point x="131" y="-227" type="curve"/>
      <point x="118" y="-227"/>
      <point x="107" y="-226"/>
      <point x="96" y="-226" type="curve" smooth="yes"/>
      <point x="45" y="-226"/>
      <point x="6" y="-228"/>
      <point x="-52" y="-235" type="curve"/>
      <point x="-57" y="-234"/>
      <point x="-56" y="-209"/>
      <point x="-51" y="-206" type="curve"/>
      <point x="-33" y="-206"/>
      <point x="-20" y="-201"/>
      <point x="-11" y="-190" type="curve" smooth="yes"/>
      <point x="-4" y="-181"/>
      <point x="0" y="-170"/>
      <point x="5" y="-147" type="curve" smooth="yes"/>
      <point x="84" y="250" type="line"/>
      <point x="36" y="202" type="line"/>
      <point x="32" y="207"/>
      <point x="30" y="217"/>
      <point x="30" y="222" type="curve" smooth="yes"/>
      <point x="30" y="226"/>
      <point x="32" y="228"/>
      <point x="33" y="229" type="curve" smooth="yes"/>
      <point x="92" y="292" type="line"/>
      <point x="118" y="433" type="line"/>
      <point x="129" y="436"/>
      <point x="145" y="437"/>
      <point x="156" y="437" type="curve" smooth="yes"/>
      <point x="167" y="437"/>
      <point x="178" y="435"/>
      <point x="188" y="430" type="curve"/>
      <point x="184" y="411"/>
      <point x="173" y="353"/>
      <point x="172" y="346" type="curve"/>
      <point x="199" y="371"/>
      <point x="269" y="435"/>
    </contour>
  </outline>
</glyph>
<glyph name="q" format="1">
  <advance width="426"/>
  <unicode hex="0071"/>
  <outline>
    <contour>
      <point x="317" y="-228" type="curve"/>
      <point x="303" y="-228"/>
      <point x="290" y="-227"/>
      <point x="277" y="-227" type="curve" smooth="yes"/>
      <point x="219" y="-227"/>
      <point x="164" y="-231"/>
      <point x="127" y="-235" type="curve"/>
      <point x="125" y="-233"/>
      <point x="124" y="-208"/>
      <point x="130" y="-208" type="curve" smooth="yes"/>
      <point x="159" y="-205"/>
      <point x="193" y="-197"/>
      <point x="198" y="-171" type="curve" smooth="yes"/>
      <point x="254" y="130" type="line"/>
      <point x="234" y="94"/>
      <point x="165" y="-5"/>
      <point x="107" y="-5" type="curve" smooth="yes"/>
      <point x="45" y="-5"/>
      <point x="19" y="58"/>
      <point x="19" y="116" type="curve" smooth="yes"/>
      <point x="19" y="273"/>
      <point x="173" y="435"/>
      <point x="303" y="435" type="curve" smooth="yes"/>
      <point x="338" y="435"/>
      <point x="363" y="429"/>
      <point x="382" y="422" type="curve"/>
      <point x="321" y="106" type="line" smooth="yes"/>
      <point x="320" y="102"/>
      <point x="275" y="-150"/>
      <point x="275" y="-150" type="curve" smooth="yes"/>
      <point x="274" y="-158"/>
      <point x="273" y="-165"/>
      <point x="273" y="-171" type="curve" smooth="yes"/>
      <point x="273" y="-185"/>
      <point x="275" y="-201"/>
      <point x="319" y="-201" type="curve" smooth="yes"/>
      <point x="323" y="-201"/>
      <point x="322" y="-225"/>
    </contour>
    <contour>
      <point x="296" y="341" type="line" smooth="yes"/>
      <point x="300" y="364"/>
      <point x="288" y="395"/>
      <point x="261" y="395" type="curve" smooth="yes"/>
      <point x="180" y="395"/>
      <point x="93" y="265"/>
      <point x="93" y="150" type="curve" smooth="yes"/>
      <point x="93" y="95"/>
      <point x="107" y="53"/>
      <point x="144" y="53" type="curve" smooth="yes"/>
      <point x="195" y="53"/>
      <point x="265" y="179"/>
      <point x="284" y="276" type="curve"/>
    </contour>
  </outline>
</glyph>
<glyph name="s" format="1">
  <advance width="322"/>
  <unicode hex="0073"/>
  <outline>
    <contour>
      <point x="199" y="438" type="curve" smooth="yes"/>
      <point x="239" y="438"/>
      <point x="264" y="429"/>
      <point x="285" y="411" type="curve"/>
      <point x="290" y="404"/>
      <point x="295" y="386"/>
      <point x="295" y="379" type="curve" smooth="yes"/>
      <point x="295" y="356"/>
      <point x="281" y="338"/>
      <point x="261" y="338" type="curve" smooth="yes"/>
      <point x="243" y="338"/>
      <point x="227" y="355"/>
      <point x="214" y="373" type="curve" smooth="yes"/>
      <point x="203" y="389"/>
      <point x="196" y="404"/>
      <point x="167" y="404" type="curve" smooth="yes"/>
      <point x="132" y="404"/>
      <point x="118" y="369"/>
      <point x="118" y="348" type="curve" smooth="yes"/>
      <point x="118" y="308"/>
      <point x="153" y="277"/>
      <point x="184" y="242" type="curve" smooth="yes"/>
      <point x="215" y="206"/>
      <point x="245" y="167"/>
      <point x="245" y="117" type="curve" smooth="yes"/>
      <point x="245" y="43"/>
      <point x="184" y="-6"/>
      <point x="100" y="-6" type="curve" smooth="yes"/>
      <point x="69" y="-6"/>
      <point x="38" y="2"/>
      <point x="12" y="24" type="curve"/>
      <point x="9" y="29"/>
      <point x="2" y="44"/>
      <point x="2" y="54" type="curve" smooth="yes"/>
      <point x="2" y="83"/>
      <point x="19" y="100"/>
      <point x="39" y="100" type="curve" smooth="yes"/>
      <point x="59" y="100"/>
      <point x="67" y="76"/>
      <point x="82" y="55" type="curve" smooth="yes"/>
      <point x="93" y="40"/>
      <point x="108" y="26"/>
      <point x="135" y="26" type="curve" smooth="yes"/>
      <point x="175" y="26"/>
      <point x="184" y="63"/>
      <point x="184" y="84" type="curve" smooth="yes"/>
      <point x="184" y="119"/>
      <point x="158" y="146"/>
      <point x="132" y="176" type="curve" smooth="yes"/>
      <point x="97" y="215"/>
      <point x="60" y="255"/>
      <point x="60" y="312" type="curve" smooth="yes"/>
      <point x="60" y="368"/>
      <point x="115" y="438"/>
    </contour>
  </outline>
</glyph>
<glyph name="w" format="1">
  <advance width="629"/>
  <unicode hex="0077"/>
  <outline>
    <contour>
      <point x="385" y="375" type="curve"/>
      <point x="386" y="334"/>
      <point x="388" y="246"/>
      <point x="391" y="183" type="curve" smooth="yes"/>
      <point x="393" y="140"/>
      <point x="396" y="92"/>
      <point x="406" y="76" type="curve"/>
      <point x="459" y="122"/>
      <point x="490" y="165"/>
      <point x="513" y="229" type="curve" smooth="yes"/>
      <point x="527" y="267"/>
      <point x="527" y="310"/>
      <point x="527" y="333" type="curve" smooth="yes"/>
      <point x="527" y="354"/>
      <point x="518" y="379"/>
      <point x="501" y="396" type="curve"/>
      <point x="507" y="413"/>
      <point x="524" y="435"/>
      <point x="548" y="435" type="curve" smooth="yes"/>
      <point x="586" y="435"/>
      <point x="603" y="401"/>
      <point x="603" y="355" type="curve" smooth="yes"/>
      <point x="603" y="229"/>
      <point x="408" y="-6"/>
      <point x="339" y="-6" type="curve"/>
      <point x="332" y="2"/>
      <point x="320" y="120"/>
      <point x="319" y="150" type="curve" smooth="yes"/>
      <point x="317" y="214" type="line"/>
      <point x="250" y="118"/>
      <point x="157" y="-6"/>
      <point x="115" y="-6" type="curve"/>
      <point x="108" y="2"/>
      <point x="107" y="118"/>
      <point x="107" y="148" type="curve" smooth="yes"/>
      <point x="107" y="355" type="line" smooth="yes"/>
      <point x="107" y="364"/>
      <point x="107" y="380"/>
      <point x="97" y="380" type="curve" smooth="yes"/>
      <point x="76" y="380"/>
      <point x="30" y="325"/>
      <point x="27" y="322" type="curve"/>
      <point x="24" y="322"/>
      <point x="17" y="335"/>
      <point x="17" y="341" type="curve"/>
      <point x="28" y="360"/>
      <point x="96" y="435"/>
      <point x="143" y="435" type="curve" smooth="yes"/>
      <point x="164" y="435"/>
      <point x="182" y="411"/>
      <point x="182" y="381" type="curve" smooth="yes"/>
      <point x="182" y="328" type="line"/>
      <point x="182" y="176" type="line" smooth="yes"/>
      <point x="182" y="133"/>
      <point x="183" y="111"/>
      <point x="186" y="90" type="curve"/>
      <point x="231" y="138"/>
      <point x="281" y="223"/>
      <point x="299" y="255" type="curve" smooth="yes"/>
      <point x="323" y="299"/>
      <point x="333" y="326"/>
      <point x="342" y="347" type="curve"/>
      <point x="350" y="357"/>
      <point x="372" y="372"/>
    </contour>
  </outline>
</glyph>
<glyph name="y" format="1">
  <advance width="447"/>
  <unicode hex="0079"/>
  <outline>
    <contour>
      <point x="132" y="435" type="curve" smooth="yes"/>
      <point x="218" y="435"/>
      <point x="221" y="76"/>
      <point x="221" y="15" type="curve"/>
      <point x="257" y="59"/>
      <point x="336" y="176"/>
      <point x="336" y="285" type="curve" smooth="yes"/>
      <point x="336" y="346"/>
      <point x="322" y="371"/>
      <point x="311" y="392" type="curve"/>
      <point x="319" y="418"/>
      <point x="337" y="435"/>
      <point x="361" y="435" type="curve" smooth="yes"/>
      <point x="403" y="435"/>
      <point x="405" y="378"/>
      <point x="405" y="356" type="curve" smooth="yes"/>
      <point x="405" y="122"/>
      <point x="84" y="-233"/>
      <point x="-51" y="-233" type="curve" smooth="yes"/>
      <point x="-87" y="-233"/>
      <point x="-111" y="-214"/>
      <point x="-111" y="-192" type="curve" smooth="yes"/>
      <point x="-111" y="-175"/>
      <point x="-103" y="-156"/>
      <point x="-88" y="-148" type="curve"/>
      <point x="-73" y="-157"/>
      <point x="-30" y="-167"/>
      <point x="-8" y="-167" type="curve" smooth="yes"/>
      <point x="54" y="-167"/>
      <point x="95" y="-132"/>
      <point x="128" y="-84" type="curve" smooth="yes"/>
      <point x="151" y="-50"/>
      <point x="146" y="19"/>
      <point x="146" y="62" type="curve" smooth="yes"/>
      <point x="146" y="176"/>
      <point x="135" y="380"/>
      <point x="86" y="380" type="curve" smooth="yes"/>
      <point x="65" y="380"/>
      <point x="19" y="325"/>
      <point x="16" y="322" type="curve"/>
      <point x="13" y="322"/>
      <point x="6" y="335"/>
      <point x="6" y="341" type="curve"/>
      <point x="17" y="360"/>
      <point x="85" y="435"/>
    </contour>
  </outline>
</glyph>
<glyph name="bar" format="1">
  <advance width="207"/>
  <unicode hex="007C"/>
  <outline>
    <contour>
      <point x="169" y="757" type="line"/>
      <point x="179" y="767"/>
      <point x="195" y="773"/>
      <point x="213" y="773" type="curve" smooth="yes"/>
      <point x="220" y="773"/>
      <point x="229" y="770"/>
      <point x="228" y="766" type="curve" smooth="yes"/>
      <point x="60" y="-106" type="line"/>
      <point x="53" y="-114"/>
      <point x="33" y="-123"/>
      <point x="14" y="-123" type="curve" smooth="yes"/>
      <point x="8" y="-123"/>
      <point x="-1" y="-120"/>
      <point x="0" y="-115" type="curve" smooth="yes"/>
    </contour>
  </outline>
</glyph>
<glyph name="exclamdown" format="1">
  <advance width="203"/>
  <unicode hex="00A1"/>
  <outline>
    <contour>
      <point x="0" y="-269" type="line" smooth="yes"/>
      <point x="-25" y="-269"/>
      <point x="-37" y="-248"/>
      <point x="-37" y="-223" type="curve" smooth="yes"/>
      <point x="-37" y="-198"/>
      <point x="-32" y="-193"/>
      <point x="82" y="256" type="curve" smooth="yes"/>
      <point x="85" y="268"/>
      <point x="92" y="281"/>
      <point x="98" y="278" type="curve" smooth="yes"/>
      <point x="111" y="271"/>
      <point x="115" y="267"/>
      <point x="115" y="257" type="curve"/>
    </contour>
    <contour>
      <point x="71" y="369" type="curve" smooth="yes"/>
      <point x="71" y="406"/>
      <point x="103" y="440"/>
      <point x="136" y="440" type="curve" smooth="yes"/>
      <point x="162" y="440"/>
      <point x="179" y="419"/>
      <point x="179" y="393" type="curve" smooth="yes"/>
      <point x="179" y="355"/>
      <point x="147" y="324"/>
      <point x="114" y="324" type="curve" smooth="yes"/>
      <point x="88" y="324"/>
      <point x="71" y="343"/>
    </contour>
  </outline>
</glyph>
<glyph name="sterling" format="1">
  <advance width="447"/>
  <unicode hex="00A3"/>
  <outline>
    <contour>
      <point x="172" y="248" type="curve" smooth="yes"/>
      <point x="157" y="173"/>
      <point x="117" y="118"/>
      <point x="87" y="88" type="curve"/>
      <point x="105" y="95"/>
      <point x="121" y="93"/>
      <point x="162" y="93" type="curve" smooth="yes"/>
      <point x="212" y="93"/>
      <point x="266" y="61"/>
      <point x="302" y="61" type="curve" smooth="yes"/>
      <point x="343" y="61"/>
      <point x="367" y="111"/>
      <point x="384" y="134" type="curve" smooth="yes"/>
      <point x="388" y="134"/>
      <point x="393" y="127"/>
      <point x="393" y="117" type="curve" smooth="yes"/>
      <point x="393" y="113"/>
      <point x="392" y="110"/>
      <point x="391" y="108" type="curve" smooth="yes"/>
      <point x="371" y="71"/>
      <point x="325" y="-8"/>
      <point x="259" y="-8" type="curve" smooth="yes"/>
      <point x="199" y="-8"/>
      <point x="135" y="29"/>
      <point x="89" y="29" type="curve" smooth="yes"/>
      <point x="60" y="29"/>
      <point x="31" y="7"/>
      <point x="12" y="-9" type="curve"/>
      <point x="0" y="-9"/>
      <point x="-3" y="4"/>
      <point x="-2" y="10" type="curve" smooth="yes"/>
      <point x="19" y="40"/>
      <point x="36" y="56"/>
      <point x="56" y="82" type="curve"/>
      <point x="78" y="128"/>
      <point x="90" y="181"/>
      <point x="101" y="237" type="curve" smooth="yes"/>
      <point x="103.506" y="249.253"/>
      <point x="105.082" y="263.91"/>
      <point x="106.31" y="280" type="curve"/>
      <point x="50" y="280" type="line"/>
      <point x="45" y="293"/>
      <point x="57" y="309"/>
      <point x="67" y="319" type="curve"/>
      <point x="108.78" y="319" type="line"/>
      <point x="110.675" y="351.342"/>
      <point x="112.898" y="385.981"/>
      <point x="119" y="417" type="curve" smooth="yes"/>
      <point x="143" y="543"/>
      <point x="239" y="635"/>
      <point x="339" y="635" type="curve" smooth="yes"/>
      <point x="374" y="635"/>
      <point x="393" y="622"/>
      <point x="403" y="598" type="curve"/>
      <point x="403" y="573"/>
      <point x="388" y="539"/>
      <point x="364" y="539" type="curve" smooth="yes"/>
      <point x="326" y="539"/>
      <point x="332" y="593"/>
      <point x="294" y="593" type="curve" smooth="yes"/>
      <point x="231" y="593"/>
      <point x="207" y="518"/>
      <point x="194" y="450" type="curve" smooth="yes"/>
      <point x="187.204" y="413.55"/>
      <point x="183.844" y="363.359"/>
      <point x="180.145" y="319" type="curve"/>
      <point x="311" y="319" type="line" smooth="yes"/>
      <point x="315" y="319"/>
      <point x="306" y="287"/>
      <point x="294" y="280" type="curve"/>
      <point x="176.495" y="280" type="line"/>
      <point x="175.177" y="268.009"/>
      <point x="173.716" y="257.15"/>
    </contour>
  </outline>
</glyph>
<glyph name="currency" format="1">
  <advance width="504"/>
  <unicode hex="00A4"/>
  <outline>
    <contour>
      <point x="237" y="152" type="curve" smooth="yes"/>
      <point x="305" y="152"/>
      <point x="363" y="249"/>
      <point x="363" y="341" type="curve" smooth="yes"/>
      <point x="363" y="411"/>
      <point x="330" y="463"/>
      <point x="281" y="463" type="curve" smooth="yes"/>
      <point x="213" y="463"/>
      <point x="154" y="365"/>
      <point x="154" y="273" type="curve" smooth="yes"/>
      <point x="154" y="203"/>
      <point x="188" y="152"/>
    </contour>
    <contour>
      <point x="392" y="455" type="curve"/>
      <point x="458" y="510" type="line" smooth="yes"/>
      <point x="459" y="511"/>
      <point x="461" y="511"/>
      <point x="462" y="511" type="curve" smooth="yes"/>
      <point x="472" y="511"/>
      <point x="486" y="487"/>
      <point x="488" y="466" type="curve"/>
      <point x="421" y="410" type="line"/>
      <point x="428" y="391"/>
      <point x="432" y="370"/>
      <point x="432" y="347" type="curve" smooth="yes"/>
      <point x="432" y="282"/>
      <point x="400" y="228"/>
      <point x="376" y="199" type="curve"/>
      <point x="415" y="141" type="line" smooth="yes"/>
      <point x="415" y="140"/>
      <point x="416" y="140"/>
      <point x="416" y="139" type="curve" smooth="yes"/>
      <point x="416" y="129"/>
      <point x="388" y="106"/>
      <point x="366" y="100" type="curve"/>
      <point x="329" y="155" type="line"/>
      <point x="297" y="133"/>
      <point x="260" y="120"/>
      <point x="223" y="120" type="curve" smooth="yes"/>
      <point x="183" y="120"/>
      <point x="149" y="135"/>
      <point x="125" y="160" type="curve"/>
      <point x="66" y="110" type="line" smooth="yes"/>
      <point x="65" y="109"/>
      <point x="63" y="109"/>
      <point x="62" y="109" type="curve" smooth="yes"/>
      <point x="52" y="109"/>
      <point x="38" y="133"/>
      <point x="36" y="154" type="curve"/>
      <point x="96" y="205" type="line"/>
      <point x="88" y="224"/>
      <point x="84" y="245"/>
      <point x="84" y="268" type="curve" smooth="yes"/>
      <point x="84" y="330"/>
      <point x="114" y="388"/>
      <point x="146" y="423" type="curve"/>
      <point x="109" y="479" type="line" smooth="yes"/>
      <point x="109" y="480"/>
      <point x="108" y="480"/>
      <point x="108" y="481" type="curve" smooth="yes"/>
      <point x="108" y="491"/>
      <point x="136" y="514"/>
      <point x="158" y="520" type="curve"/>
      <point x="195" y="465" type="line"/>
      <point x="226" y="485"/>
      <point x="261" y="496"/>
      <point x="296" y="496" type="curve" smooth="yes"/>
      <point x="336" y="496"/>
      <point x="368" y="481"/>
    </contour>
  </outline>
</glyph>
<glyph name="brokenbar" format="1">
  <advance width="211"/>
  <unicode hex="00A6"/>
  <outline>
    <contour>
      <point x="170" y="754" type="line"/>
      <point x="180" y="764"/>
      <point x="196" y="770"/>
      <point x="214" y="770" type="curve" smooth="yes"/>
      <point x="221" y="770"/>
      <point x="230" y="767"/>
      <point x="229" y="763" type="curve" smooth="yes"/>
      <point x="160" y="400" type="line"/>
      <point x="153" y="392"/>
      <point x="134" y="383"/>
      <point x="115" y="383" type="curve" smooth="yes"/>
      <point x="109" y="383"/>
      <point x="99" y="386"/>
      <point x="100" y="391" type="curve" smooth="yes"/>
    </contour>
    <contour>
      <point x="72" y="248" type="line"/>
      <point x="82" y="258"/>
      <point x="98" y="264"/>
      <point x="116" y="264" type="curve" smooth="yes"/>
      <point x="123" y="264"/>
      <point x="132" y="261"/>
      <point x="131" y="257" type="curve" smooth="yes"/>
      <point x="62" y="-106" type="line"/>
      <point x="55" y="-114"/>
      <point x="35" y="-123"/>
      <point x="16" y="-123" type="curve" smooth="yes"/>
      <point x="10" y="-123"/>
      <point x="1" y="-120"/>
      <point x="2" y="-115" type="curve" smooth="yes"/>
    </contour>
  </outline>
</glyph>
<glyph name="section" format="1">
  <advance width="395"/>
  <unicode hex="00A7"/>
  <outline>
    <contour>
      <point x="155" y="524" type="curve"/>
      <point x="128.457" y="488.609"/>
      <point x="108.391" y="459.992"/>
      <point x="108.391" y="402.657" type="curve" smooth="yes"/>
      <point x="108.391" y="336.691"/>
      <point x="142.338" y="282.27"/>
      <point x="177" y="240" type="curve" smooth="yes"/>
      <point x="213" y="196"/>
      <point x="265" y="140"/>
      <point x="253" y="68" type="curve" smooth="yes"/>
      <point x="252" y="62"/>
      <point x="250" y="55"/>
      <point x="249" y="51" type="curve"/>
      <point x="275.543" y="86.3912"/>
      <point x="295.609" y="115.008"/>
      <point x="295.609" y="172.343" type="curve" smooth="yes"/>
      <point x="295.609" y="238.309"/>
      <point x="261.662" y="292.73"/>
      <point x="227" y="335" type="curve" smooth="yes"/>
      <point x="194.985" y="374.13"/>
      <point x="148.734" y="422.75"/>
      <point x="148.734" y="483.674" type="curve" smooth="yes"/>
      <point x="148.734" y="498.202"/>
      <point x="151.417" y="511.46"/>
    </contour>
    <contour>
      <point x="287" y="603" type="curve" smooth="yes"/>
      <point x="255.329" y="603"/>
      <point x="201.019" y="584.721"/>
      <point x="201.019" y="538.321" type="curve" smooth="yes"/>
      <point x="201.019" y="491.806"/>
      <point x="250.586" y="422.822"/>
      <point x="283" y="383" type="curve" smooth="yes"/>
      <point x="316.27" y="342.052"/>
      <point x="354.635" y="285.093"/>
      <point x="354.635" y="215.848" type="curve" smooth="yes"/>
      <point x="354.635" y="203.923"/>
      <point x="353.497" y="191.634"/>
      <point x="351" y="179" type="curve" smooth="yes"/>
      <point x="338" y="112"/>
      <point x="277" y="35"/>
      <point x="198" y="-25" type="curve" smooth="yes"/>
      <point x="151" y="-61"/>
      <point x="112" y="-78"/>
      <point x="54" y="-78" type="curve" smooth="yes"/>
      <point x="41" y="-78"/>
      <point x="29" y="-76"/>
      <point x="17" y="-70" type="curve"/>
      <point x="9.21754" y="-34.9789"/>
      <point x="33.8791" y="-8"/>
      <point x="57" y="-8" type="curve" smooth="yes"/>
      <point x="86.2924" y="-8"/>
      <point x="85.6465" y="-28"/>
      <point x="116" y="-28" type="curve" smooth="yes"/>
      <point x="147.731" y="-28"/>
      <point x="202.981" y="-9.8022"/>
      <point x="202.981" y="36.6793" type="curve" smooth="yes"/>
      <point x="202.981" y="83.1943"/>
      <point x="153.414" y="152.178"/>
      <point x="121" y="192" type="curve" smooth="yes"/>
      <point x="87.7295" y="232.948"/>
      <point x="49.3647" y="289.907"/>
      <point x="49.3647" y="359.152" type="curve" smooth="yes"/>
      <point x="49.3647" y="371.077"/>
      <point x="50.5025" y="383.366"/>
      <point x="53" y="396" type="curve" smooth="yes"/>
      <point x="66" y="463"/>
      <point x="128" y="541"/>
      <point x="206" y="600" type="curve" smooth="yes"/>
      <point x="244" y="629"/>
      <point x="292" y="653"/>
      <point x="350" y="653" type="curve" smooth="yes"/>
      <point x="363" y="653"/>
      <point x="375" y="651"/>
      <point x="387" y="645" type="curve"/>
      <point x="388" y="638"/>
      <point x="388" y="625"/>
      <point x="387" y="619" type="curve" smooth="yes"/>
      <point x="383.712" y="599.272"/>
      <point x="362" y="583"/>
      <point x="347" y="583" type="curve" smooth="yes"/>
      <point x="317.575" y="583"/>
      <point x="317.948" y="603"/>
    </contour>
  </outline>
</glyph>
<glyph name="copyright" format="1">
  <advance width="603"/>
  <unicode hex="00A9"/>
  <outline>
    <contour>
      <point x="342" y="483" type="curve" smooth="yes"/>
      <point x="370" y="483"/>
      <point x="413" y="477"/>
      <point x="442" y="464" type="curve"/>
      <point x="443" y="462"/>
      <point x="444" y="459"/>
      <point x="444" y="456" type="curve" smooth="yes"/>
      <point x="445" y="442"/>
      <point x="445" y="415"/>
      <point x="445" y="406" type="curve" smooth="yes"/>
      <point x="445" y="395"/>
      <point x="432" y="394"/>
      <point x="429" y="394" type="curve" smooth="yes"/>
      <point x="427" y="394"/>
      <point x="424" y="395"/>
      <point x="423" y="396" type="curve"/>
      <point x="423" y="409"/>
      <point x="413" y="449"/>
      <point x="347" y="449" type="curve" smooth="yes"/>
      <point x="292" y="449"/>
      <point x="234" y="390"/>
      <point x="234" y="315" type="curve" smooth="yes"/>
      <point x="234" y="255"/>
      <point x="275" y="227"/>
      <point x="312" y="227" type="curve" smooth="yes"/>
      <point x="388" y="227"/>
      <point x="395" y="267"/>
      <point x="403" y="279" type="curve"/>
      <point x="403" y="279"/>
      <point x="405" y="280"/>
      <point x="407" y="280" type="curve" smooth="yes"/>
      <point x="413" y="280"/>
      <point x="421" y="276"/>
      <point x="421" y="276" type="curve"/>
      <point x="420" y="273"/>
      <point x="397" y="217"/>
      <point x="390" y="214" type="curve" smooth="yes"/>
      <point x="358" y="201"/>
      <point x="327" y="195"/>
      <point x="288" y="195" type="curve" smooth="yes"/>
      <point x="223" y="195"/>
      <point x="179" y="242"/>
      <point x="179" y="307" type="curve" smooth="yes"/>
      <point x="179" y="394"/>
      <point x="254" y="483"/>
    </contour>
    <contour>
      <point x="369" y="615" type="curve" smooth="yes"/>
      <point x="491" y="615"/>
      <point x="575" y="522"/>
      <point x="575" y="398" type="curve" smooth="yes"/>
      <point x="575" y="225"/>
      <point x="421" y="69"/>
      <point x="262" y="69" type="curve" smooth="yes"/>
      <point x="140" y="69"/>
      <point x="57" y="162"/>
      <point x="57" y="286" type="curve" smooth="yes"/>
      <point x="57" y="459"/>
      <point x="210" y="615"/>
    </contour>
    <contour>
      <point x="363" y="584" type="curve" smooth="yes"/>
      <point x="224" y="584"/>
      <point x="87" y="446"/>
      <point x="87" y="292" type="curve" smooth="yes"/>
      <point x="87" y="183"/>
      <point x="161" y="100"/>
      <point x="269" y="100" type="curve" smooth="yes"/>
      <point x="408" y="100"/>
      <point x="546" y="238"/>
      <point x="546" y="391" type="curve" smooth="yes"/>
      <point x="546" y="501"/>
      <point x="471" y="584"/>
    </contour>
  </outline>
</glyph>
<glyph name="ordfeminine" format="1">
  <advance width="380"/>
  <unicode hex="00AA"/>
  <outline>
    <contour>
      <point x="257" y="249" type="curve" smooth="yes"/>
      <point x="241" y="249"/>
      <point x="231" y="265"/>
      <point x="231" y="286" type="curve" smooth="yes"/>
      <point x="231" y="292"/>
      <point x="233" y="308"/>
      <point x="236" y="323" type="curve" smooth="yes"/>
      <point x="238" y="336"/>
      <point x="240" y="339"/>
      <point x="241" y="344" type="curve"/>
      <point x="225" y="319"/>
      <point x="171" y="250"/>
      <point x="127" y="250" type="curve" smooth="yes"/>
      <point x="85" y="250"/>
      <point x="59" y="283"/>
      <point x="59" y="332" type="curve" smooth="yes"/>
      <point x="59" y="453"/>
      <point x="186" y="557"/>
      <point x="279" y="557" type="curve" smooth="yes"/>
      <point x="306" y="557"/>
      <point x="324" y="553"/>
      <point x="339" y="548" type="curve"/>
      <point x="292" y="327" type="line" smooth="yes"/>
      <point x="291" y="324"/>
      <point x="289" y="308"/>
      <point x="289" y="305" type="curve" smooth="yes"/>
      <point x="289" y="299"/>
      <point x="289" y="288"/>
      <point x="296" y="288" type="curve" smooth="yes"/>
      <point x="312" y="288"/>
      <point x="349" y="326"/>
      <point x="351" y="328" type="curve"/>
      <point x="353" y="328"/>
      <point x="358" y="319"/>
      <point x="358" y="315" type="curve"/>
      <point x="350" y="302"/>
      <point x="293" y="249"/>
    </contour>
    <contour>
      <point x="244" y="529" type="curve" smooth="yes"/>
      <point x="185" y="529"/>
      <point x="116" y="439"/>
      <point x="116" y="359" type="curve" smooth="yes"/>
      <point x="116" y="316"/>
      <point x="128" y="290"/>
      <point x="155" y="290" type="curve" smooth="yes"/>
      <point x="194" y="290"/>
      <point x="248" y="378"/>
      <point x="263" y="445" type="curve" smooth="yes"/>
      <point x="279" y="519" type="line"/>
      <point x="272" y="526"/>
      <point x="254" y="529"/>
    </contour>
  </outline>
</glyph>
<glyph name="logicalnot" format="1">
  <advance width="540"/>
  <unicode hex="00AC"/>
  <outline>
    <contour>
      <point x="70" y="357" type="curve" smooth="yes"/>
      <point x="493" y="357" type="line"/>
      <point x="446" y="115" type="line"/>
      <point x="443" y="112"/>
      <point x="425" y="103"/>
      <point x="411" y="103" type="curve" smooth="yes"/>
      <point x="405" y="103"/>
      <point x="396" y="105"/>
      <point x="397" y="111" type="curve" smooth="yes"/>
      <point x="434" y="314" type="line"/>
      <point x="52" y="314" type="line"/>
      <point x="52" y="314"/>
      <point x="49" y="322"/>
      <point x="49" y="328" type="curve" smooth="yes"/>
      <point x="49" y="345"/>
      <point x="61" y="357"/>
    </contour>
  </outline>
</glyph>
<glyph name="registered" format="1">
  <advance width="603"/>
  <unicode hex="00AE"/>
  <outline>
    <contour>
      <point x="344" y="529" type="curve" smooth="yes"/>
      <point x="315" y="529"/>
      <point x="311" y="525"/>
      <point x="310" y="519" type="curve" smooth="yes"/>
      <point x="296" y="444" type="line" smooth="yes"/>
      <point x="296" y="442"/>
      <point x="294" y="441"/>
      <point x="294" y="440" type="curve" smooth="yes"/>
      <point x="294" y="429"/>
      <point x="317" y="428"/>
      <point x="332" y="428" type="curve" smooth="yes"/>
      <point x="363" y="428"/>
      <point x="382" y="460"/>
      <point x="382" y="491" type="curve" smooth="yes"/>
      <point x="382" y="519"/>
      <point x="365" y="529"/>
    </contour>
    <contour>
      <point x="354" y="554" type="curve" smooth="yes"/>
      <point x="392" y="554"/>
      <point x="428" y="534"/>
      <point x="428" y="493" type="curve" smooth="yes"/>
      <point x="428" y="455"/>
      <point x="404" y="431"/>
      <point x="370" y="414" type="curve" smooth="yes"/>
      <point x="369" y="413"/>
      <point x="369" y="412"/>
      <point x="369" y="411" type="curve" smooth="yes"/>
      <point x="369" y="410" type="line"/>
      <point x="371" y="398"/>
      <point x="386" y="362"/>
      <point x="401" y="333" type="curve" smooth="yes"/>
      <point x="415" y="305"/>
      <point x="425" y="286"/>
      <point x="448" y="286" type="curve"/>
      <point x="448" y="282"/>
      <point x="447" y="277"/>
      <point x="446" y="275" type="curve"/>
      <point x="442" y="273"/>
      <point x="435" y="272"/>
      <point x="428" y="272" type="curve" smooth="yes"/>
      <point x="369" y="272"/>
      <point x="357" y="294"/>
      <point x="317" y="398" type="curve" smooth="yes"/>
      <point x="314" y="405"/>
      <point x="308" y="407"/>
      <point x="300" y="407" type="curve" smooth="yes"/>
      <point x="291" y="407"/>
      <point x="288" y="405"/>
      <point x="287" y="399" type="curve" smooth="yes"/>
      <point x="270" y="310" type="line"/>
      <point x="270" y="299" type="line" smooth="yes"/>
      <point x="270" y="296"/>
      <point x="271" y="292"/>
      <point x="273" y="291" type="curve" smooth="yes"/>
      <point x="279" y="288"/>
      <point x="288" y="285"/>
      <point x="292" y="285" type="curve" smooth="yes"/>
      <point x="293" y="285"/>
      <point x="293" y="283"/>
      <point x="293" y="282" type="curve" smooth="yes"/>
      <point x="293" y="278"/>
      <point x="292" y="276"/>
      <point x="291" y="272" type="curve"/>
      <point x="272" y="273"/>
      <point x="260" y="274"/>
      <point x="241" y="274" type="curve" smooth="yes"/>
      <point x="220" y="274"/>
      <point x="207" y="273"/>
      <point x="186" y="272" type="curve"/>
      <point x="186" y="275"/>
      <point x="185" y="277"/>
      <point x="185" y="280" type="curve" smooth="yes"/>
      <point x="185" y="282"/>
      <point x="187" y="283"/>
      <point x="188" y="285" type="curve"/>
      <point x="225" y="290"/>
      <point x="217" y="295"/>
      <point x="225" y="330" type="curve"/>
      <point x="258" y="499" type="line" smooth="yes"/>
      <point x="260" y="510"/>
      <point x="262" y="517"/>
      <point x="262" y="528" type="curve" smooth="yes"/>
      <point x="262" y="537"/>
      <point x="246" y="541"/>
      <point x="240" y="541" type="curve" smooth="yes"/>
      <point x="239" y="541"/>
      <point x="238" y="542"/>
      <point x="238" y="543" type="curve" smooth="yes"/>
      <point x="238" y="547"/>
      <point x="240" y="549"/>
      <point x="241" y="553" type="curve"/>
      <point x="258" y="552"/>
      <point x="267" y="550"/>
      <point x="284" y="550" type="curve" smooth="yes"/>
      <point x="311" y="550"/>
      <point x="327" y="554"/>
    </contour>
    <contour>
      <point x="381" y="680" type="curve" smooth="yes"/>
      <point x="521" y="680"/>
      <point x="612" y="558"/>
      <point x="583" y="407" type="curve" smooth="yes"/>
      <point x="554" y="256"/>
      <point x="415" y="133"/>
      <point x="275" y="133" type="curve" smooth="yes"/>
      <point x="135" y="133"/>
      <point x="45" y="256"/>
      <point x="74" y="407" type="curve" smooth="yes"/>
      <point x="103" y="558"/>
      <point x="241" y="680"/>
    </contour>
    <contour>
      <point x="376" y="648" type="curve" smooth="yes"/>
      <point x="252" y="648"/>
      <point x="131" y="540"/>
      <point x="105" y="407" type="curve" smooth="yes"/>
      <point x="79" y="274"/>
      <point x="158" y="165"/>
      <point x="282" y="165" type="curve" smooth="yes"/>
      <point x="406" y="165"/>
      <point x="528" y="274"/>
      <point x="554" y="407" type="curve" smooth="yes"/>
      <point x="580" y="540"/>
      <point x="500" y="648"/>
    </contour>
  </outline>
</glyph>
<glyph name="degree" format="1">
  <advance width="266"/>
  <unicode hex="00B0"/>
  <outline>
    <contour>
      <point x="126" y="524" type="curve" smooth="yes"/>
      <point x="126" y="496"/>
      <point x="144" y="474"/>
      <point x="172" y="474" type="curve" smooth="yes"/>
      <point x="207" y="474"/>
      <point x="241" y="509"/>
      <point x="241" y="548" type="curve" smooth="yes"/>
      <point x="241" y="576"/>
      <point x="223" y="597"/>
      <point x="195" y="597" type="curve" smooth="yes"/>
      <point x="160" y="597"/>
      <point x="126" y="565"/>
    </contour>
    <contour>
      <point x="90" y="517" type="curve" smooth="yes"/>
      <point x="90" y="582"/>
      <point x="149" y="634"/>
      <point x="202" y="634" type="curve" smooth="yes"/>
      <point x="246" y="634"/>
      <point x="277" y="600"/>
      <point x="277" y="555" type="curve" smooth="yes"/>
      <point x="277" y="493"/>
      <point x="220" y="437"/>
      <point x="165" y="437" type="curve" smooth="yes"/>
      <point x="121" y="437"/>
      <point x="90" y="472"/>
    </contour>
  </outline>
</glyph>
<glyph name="uni00B2" format="1">
  <advance width="345"/>
  <unicode hex="00B2"/>
  <outline>
    <contour>
      <point x="337" y="564" type="curve" smooth="yes"/>
      <point x="337" y="509"/>
      <point x="298" y="467"/>
      <point x="255" y="423" type="curve" smooth="yes"/>
      <point x="117" y="309" type="line"/>
      <point x="235" y="309" type="line" smooth="yes"/>
      <point x="266" y="309"/>
      <point x="283" y="334"/>
      <point x="295" y="360" type="curve" smooth="yes"/>
      <point x="296" y="363"/>
      <point x="300" y="364"/>
      <point x="304" y="364" type="curve" smooth="yes"/>
      <point x="306" y="364"/>
      <point x="317" y="357"/>
      <point x="318" y="356" type="curve"/>
      <point x="302" y="326"/>
      <point x="275" y="266"/>
      <point x="270" y="255" type="curve"/>
      <point x="270" y="255"/>
      <point x="54" y="255"/>
      <point x="50" y="255" type="curve"/>
      <point x="49" y="256"/>
      <point x="46" y="267"/>
      <point x="46" y="271" type="curve"/>
      <point x="80" y="301"/>
      <point x="167" y="384"/>
      <point x="203" y="425" type="curve" smooth="yes"/>
      <point x="244" y="472"/>
      <point x="259" y="510"/>
      <point x="259" y="545" type="curve" smooth="yes"/>
      <point x="259" y="579"/>
      <point x="231" y="602"/>
      <point x="201" y="602" type="curve" smooth="yes"/>
      <point x="156" y="602"/>
      <point x="131" y="564"/>
      <point x="122" y="552" type="curve"/>
      <point x="118" y="552"/>
      <point x="112" y="567"/>
      <point x="113" y="569" type="curve" smooth="yes"/>
      <point x="120" y="584"/>
      <point x="171" y="647"/>
      <point x="240" y="647" type="curve" smooth="yes"/>
      <point x="285" y="647"/>
      <point x="337" y="621"/>
    </contour>
  </outline>
</glyph>
<glyph name="uni00B3" format="1">
  <advance width="316"/>
  <unicode hex="00B3"/>
  <outline>
    <contour>
      <point x="229" y="648" type="curve" smooth="yes"/>
      <point x="258" y="648"/>
      <point x="296" y="627"/>
      <point x="296" y="581" type="curve" smooth="yes"/>
      <point x="296" y="540"/>
      <point x="252" y="503"/>
      <point x="220" y="485" type="curve"/>
      <point x="264" y="482"/>
      <point x="302" y="439"/>
      <point x="302" y="402" type="curve" smooth="yes"/>
      <point x="302" y="296"/>
      <point x="180" y="247"/>
      <point x="125" y="247" type="curve" smooth="yes"/>
      <point x="95" y="247"/>
      <point x="65" y="252"/>
      <point x="51" y="262" type="curve"/>
      <point x="49" y="265"/>
      <point x="45" y="273"/>
      <point x="45" y="280" type="curve" smooth="yes"/>
      <point x="45" y="299"/>
      <point x="63" y="322"/>
      <point x="77" y="322" type="curve" smooth="yes"/>
      <point x="97" y="322"/>
      <point x="102" y="305"/>
      <point x="111" y="294" type="curve" smooth="yes"/>
      <point x="122" y="281"/>
      <point x="139" y="278"/>
      <point x="155" y="278" type="curve" smooth="yes"/>
      <point x="190" y="278"/>
      <point x="231" y="316"/>
      <point x="231" y="386" type="curve" smooth="yes"/>
      <point x="231" y="428"/>
      <point x="206" y="452"/>
      <point x="168" y="452" type="curve" smooth="yes"/>
      <point x="156" y="452"/>
      <point x="143" y="450"/>
      <point x="136" y="448" type="curve"/>
      <point x="134" y="451"/>
      <point x="132" y="452"/>
      <point x="132" y="455" type="curve" smooth="yes"/>
      <point x="132" y="457"/>
      <point x="132" y="467"/>
      <point x="133" y="469" type="curve"/>
      <point x="183" y="478"/>
      <point x="241" y="513"/>
      <point x="241" y="560" type="curve" smooth="yes"/>
      <point x="241" y="584"/>
      <point x="226" y="608"/>
      <point x="200" y="608" type="curve" smooth="yes"/>
      <point x="163" y="608"/>
      <point x="140" y="571"/>
      <point x="134" y="567" type="curve"/>
      <point x="130" y="567"/>
      <point x="125" y="578"/>
      <point x="126" y="584" type="curve"/>
      <point x="153" y="622"/>
      <point x="184" y="648"/>
    </contour>
  </outline>
</glyph>
<glyph name="paragraph" format="1">
  <advance width="483"/>
  <unicode hex="00B6"/>
  <outline>
    <contour>
      <point x="299" y="659" type="curve" smooth="yes"/>
      <point x="354" y="659"/>
      <point x="394" y="657"/>
      <point x="430" y="657" type="curve" smooth="yes"/>
      <point x="466" y="657"/>
      <point x="485" y="660"/>
      <point x="524" y="662" type="curve"/>
      <point x="528" y="657"/>
      <point x="523" y="638"/>
      <point x="518" y="633" type="curve"/>
      <point x="507" y="633"/>
      <point x="468" y="628"/>
      <point x="463" y="617" type="curve" smooth="yes"/>
      <point x="455" y="601"/>
      <point x="449" y="573"/>
      <point x="444" y="543" type="curve" smooth="yes"/>
      <point x="412" y="357"/>
      <point x="405" y="312"/>
      <point x="381" y="186" type="curve" smooth="yes"/>
      <point x="349" y="22"/>
      <point x="254" y="-90"/>
      <point x="174" y="-90" type="curve" smooth="yes"/>
      <point x="145" y="-90"/>
      <point x="127" y="-78"/>
      <point x="120" y="-65" type="curve"/>
      <point x="120" y="-60"/>
      <point x="120" y="-54"/>
      <point x="121" y="-49" type="curve" smooth="yes"/>
      <point x="124" y="-28"/>
      <point x="133" y="-9"/>
      <point x="150" y="-9" type="curve" smooth="yes"/>
      <point x="167" y="-9"/>
      <point x="177" y="-20"/>
      <point x="188" y="-32" type="curve" smooth="yes"/>
      <point x="195" y="-39"/>
      <point x="203" y="-47"/>
      <point x="217" y="-47" type="curve" smooth="yes"/>
      <point x="256" y="-47"/>
      <point x="276" y="23"/>
      <point x="307" y="182" type="curve" smooth="yes"/>
      <point x="375" y="537" type="line" smooth="yes"/>
      <point x="381" y="567"/>
      <point x="387" y="600"/>
      <point x="385" y="612" type="curve" smooth="yes"/>
      <point x="383" y="621"/>
      <point x="374" y="622"/>
      <point x="366" y="622" type="curve" smooth="yes"/>
      <point x="322" y="622"/>
      <point x="279" y="516"/>
      <point x="279" y="439" type="curve" smooth="yes"/>
      <point x="279" y="371"/>
      <point x="296" y="341"/>
      <point x="314" y="326" type="curve" smooth="yes"/>
      <point x="316" y="325"/>
      <point x="324" y="318"/>
      <point x="324" y="316" type="curve" smooth="yes"/>
      <point x="324" y="290"/>
      <point x="261" y="273"/>
      <point x="230" y="273" type="curve" smooth="yes"/>
      <point x="108" y="273"/>
      <point x="64" y="369"/>
      <point x="64" y="440" type="curve" smooth="yes"/>
      <point x="64" y="584"/>
      <point x="214" y="659"/>
    </contour>
  </outline>
</glyph>
<glyph name="uni00B9" format="1">
  <advance width="270"/>
  <unicode hex="00B9"/>
  <outline>
    <contour>
      <point x="106" y="556" type="curve"/>
      <point x="103" y="559"/>
      <point x="101" y="566"/>
      <point x="101" y="570" type="curve" smooth="yes"/>
      <point x="101" y="571"/>
      <point x="102" y="575"/>
      <point x="104" y="576" type="curve" smooth="yes"/>
      <point x="161" y="603"/>
      <point x="245" y="648"/>
      <point x="247" y="648" type="curve" smooth="yes"/>
      <point x="248" y="648" type="line" smooth="yes"/>
      <point x="252" y="648"/>
      <point x="253" y="639"/>
      <point x="253" y="636" type="curve" smooth="yes"/>
      <point x="253" y="636"/>
      <point x="243" y="616"/>
      <point x="236" y="579" type="curve" smooth="yes"/>
      <point x="189" y="342" type="line" smooth="yes"/>
      <point x="185" y="321"/>
      <point x="182" y="305"/>
      <point x="183" y="288" type="curve" smooth="yes"/>
      <point x="184" y="281"/>
      <point x="226" y="275"/>
      <point x="230" y="275" type="curve" smooth="yes"/>
      <point x="232" y="275"/>
      <point x="233" y="266"/>
      <point x="232" y="262" type="curve" smooth="yes"/>
      <point x="231" y="259"/>
      <point x="230" y="254"/>
      <point x="229" y="253" type="curve"/>
      <point x="206" y="254"/>
      <point x="153" y="256"/>
      <point x="130" y="256" type="curve" smooth="yes"/>
      <point x="107" y="256"/>
      <point x="78" y="254"/>
      <point x="55" y="253" type="curve"/>
      <point x="53" y="256"/>
      <point x="55" y="275"/>
      <point x="58" y="275" type="curve" smooth="yes"/>
      <point x="65" y="275"/>
      <point x="107" y="281"/>
      <point x="110" y="288" type="curve" smooth="yes"/>
      <point x="116" y="300"/>
      <point x="118" y="311"/>
      <point x="120" y="323" type="curve" smooth="yes"/>
      <point x="157" y="512" type="line" smooth="yes"/>
      <point x="164" y="549"/>
      <point x="168" y="570"/>
      <point x="159" y="570" type="curve" smooth="yes"/>
      <point x="144" y="570"/>
      <point x="114" y="559"/>
    </contour>
  </outline>
</glyph>
<glyph name="onequarter" format="1">
  <advance width="637"/>
  <unicode hex="00BC"/>
  <outline>
    <contour>
      <point x="580" y="405" type="curve" smooth="yes"/>
      <point x="586" y="405"/>
      <point x="592" y="395"/>
      <point x="591" y="390" type="curve" smooth="yes"/>
      <point x="544" y="152" type="line"/>
      <point x="579" y="152" type="line" smooth="yes"/>
      <point x="583" y="152"/>
      <point x="583" y="134"/>
      <point x="581" y="121" type="curve" smooth="yes"/>
      <point x="580" y="115"/>
      <point x="577" y="108"/>
      <point x="576" y="106" type="curve"/>
      <point x="536" y="106" type="line"/>
      <point x="516" y="1" type="line"/>
      <point x="516" y="1"/>
      <point x="502" y="-2"/>
      <point x="480" y="-2" type="curve" smooth="yes"/>
      <point x="466" y="-2"/>
      <point x="449" y="-1"/>
      <point x="450" y="3" type="curve" smooth="yes"/>
      <point x="470" y="106" type="line"/>
      <point x="299" y="106" type="line"/>
      <point x="295" y="108"/>
      <point x="294" y="116"/>
      <point x="295" y="120" type="curve"/>
      <point x="558" y="398" type="line" smooth="yes"/>
      <point x="563" y="403"/>
      <point x="576" y="405"/>
    </contour>
    <contour>
      <point x="513" y="314" type="line"/>
      <point x="360" y="152" type="line"/>
      <point x="479" y="152" type="line"/>
    </contour>
    <contour>
      <point x="90" y="556" type="curve"/>
      <point x="87" y="559"/>
      <point x="85" y="566"/>
      <point x="85" y="570" type="curve" smooth="yes"/>
      <point x="85" y="571"/>
      <point x="86" y="575"/>
      <point x="88" y="576" type="curve" smooth="yes"/>
      <point x="145" y="603"/>
      <point x="229" y="648"/>
      <point x="231" y="648" type="curve" smooth="yes"/>
      <point x="232" y="648" type="line" smooth="yes"/>
      <point x="236" y="648"/>
      <point x="237" y="639"/>
      <point x="237" y="636" type="curve" smooth="yes"/>
      <point x="237" y="636"/>
      <point x="227" y="616"/>
      <point x="220" y="579" type="curve" smooth="yes"/>
      <point x="173" y="342" type="line" smooth="yes"/>
      <point x="169" y="321"/>
      <point x="166" y="305"/>
      <point x="167" y="288" type="curve" smooth="yes"/>
      <point x="168" y="281"/>
      <point x="210" y="275"/>
      <point x="214" y="275" type="curve" smooth="yes"/>
      <point x="216" y="275"/>
      <point x="217" y="266"/>
      <point x="216" y="262" type="curve" smooth="yes"/>
      <point x="215" y="259"/>
      <point x="214" y="254"/>
      <point x="213" y="253" type="curve"/>
      <point x="190" y="254"/>
      <point x="137" y="256"/>
      <point x="114" y="256" type="curve" smooth="yes"/>
      <point x="91" y="256"/>
      <point x="62" y="254"/>
      <point x="39" y="253" type="curve"/>
      <point x="37" y="256"/>
      <point x="39" y="275"/>
      <point x="42" y="275" type="curve" smooth="yes"/>
      <point x="49" y="275"/>
      <point x="91" y="281"/>
      <point x="94" y="288" type="curve" smooth="yes"/>
      <point x="100" y="300"/>
      <point x="102" y="311"/>
      <point x="104" y="323" type="curve" smooth="yes"/>
      <point x="141" y="512" type="line" smooth="yes"/>
      <point x="148" y="549"/>
      <point x="152" y="570"/>
      <point x="143" y="570" type="curve" smooth="yes"/>
      <point x="128" y="570"/>
      <point x="98" y="559"/>
    </contour>
    <contour>
      <point x="580" y="626" type="curve" smooth="yes"/>
      <point x="134" y="-6" type="line"/>
      <point x="134" y="-6"/>
      <point x="109" y="-7"/>
      <point x="109" y="4" type="curve" smooth="yes"/>
      <point x="109" y="6"/>
      <point x="110" y="8"/>
      <point x="111" y="10" type="curve" smooth="yes"/>
      <point x="558" y="642" type="line"/>
      <point x="558" y="642"/>
      <point x="581" y="642"/>
      <point x="581" y="631" type="curve" smooth="yes"/>
      <point x="581" y="629"/>
      <point x="581" y="627"/>
    </contour>
  </outline>
</glyph>
<glyph name="onehalf" format="1">
  <advance width="689"/>
  <unicode hex="00BD"/>
  <outline>
    <contour>
      <point x="650" y="311" type="curve" smooth="yes"/>
      <point x="650" y="256"/>
      <point x="611" y="214"/>
      <point x="568" y="170" type="curve" smooth="yes"/>
      <point x="429" y="56" type="line"/>
      <point x="548" y="56" type="line" smooth="yes"/>
      <point x="579" y="56"/>
      <point x="596" y="81"/>
      <point x="608" y="107" type="curve" smooth="yes"/>
      <point x="609" y="110"/>
      <point x="613" y="111"/>
      <point x="617" y="111" type="curve" smooth="yes"/>
      <point x="619" y="111"/>
      <point x="630" y="104"/>
      <point x="631" y="103" type="curve"/>
      <point x="615" y="73"/>
      <point x="588" y="13"/>
      <point x="583" y="2" type="curve"/>
      <point x="583" y="2"/>
      <point x="367" y="2"/>
      <point x="363" y="2" type="curve"/>
      <point x="362" y="3"/>
      <point x="359" y="14"/>
      <point x="359" y="18" type="curve"/>
      <point x="393" y="48"/>
      <point x="480" y="131"/>
      <point x="516" y="172" type="curve" smooth="yes"/>
      <point x="557" y="219"/>
      <point x="572" y="257"/>
      <point x="572" y="292" type="curve" smooth="yes"/>
      <point x="572" y="326"/>
      <point x="544" y="349"/>
      <point x="514" y="349" type="curve" smooth="yes"/>
      <point x="469" y="349"/>
      <point x="443" y="311"/>
      <point x="434" y="299" type="curve"/>
      <point x="430" y="299"/>
      <point x="425" y="314"/>
      <point x="426" y="316" type="curve" smooth="yes"/>
      <point x="433" y="331"/>
      <point x="484" y="394"/>
      <point x="553" y="394" type="curve" smooth="yes"/>
      <point x="598" y="394"/>
      <point x="650" y="368"/>
    </contour>
    <contour>
      <point x="91" y="556" type="curve"/>
      <point x="88" y="559"/>
      <point x="86" y="566"/>
      <point x="86" y="570" type="curve" smooth="yes"/>
      <point x="86" y="571"/>
      <point x="87" y="575"/>
      <point x="89" y="576" type="curve" smooth="yes"/>
      <point x="146" y="603"/>
      <point x="230" y="648"/>
      <point x="232" y="648" type="curve" smooth="yes"/>
      <point x="233" y="648" type="line" smooth="yes"/>
      <point x="237" y="648"/>
      <point x="238" y="639"/>
      <point x="238" y="636" type="curve" smooth="yes"/>
      <point x="238" y="636"/>
      <point x="228" y="616"/>
      <point x="221" y="579" type="curve" smooth="yes"/>
      <point x="174" y="342" type="line" smooth="yes"/>
      <point x="170" y="321"/>
      <point x="167" y="305"/>
      <point x="168" y="288" type="curve" smooth="yes"/>
      <point x="169" y="281"/>
      <point x="211" y="275"/>
      <point x="215" y="275" type="curve" smooth="yes"/>
      <point x="217" y="275"/>
      <point x="218" y="266"/>
      <point x="217" y="262" type="curve" smooth="yes"/>
      <point x="216" y="259"/>
      <point x="215" y="254"/>
      <point x="214" y="253" type="curve"/>
      <point x="191" y="254"/>
      <point x="138" y="256"/>
      <point x="115" y="256" type="curve" smooth="yes"/>
      <point x="92" y="256"/>
      <point x="63" y="254"/>
      <point x="40" y="253" type="curve"/>
      <point x="38" y="256"/>
      <point x="40" y="275"/>
      <point x="43" y="275" type="curve" smooth="yes"/>
      <point x="50" y="275"/>
      <point x="92" y="281"/>
      <point x="95" y="288" type="curve" smooth="yes"/>
      <point x="101" y="300"/>
      <point x="103" y="311"/>
      <point x="105" y="323" type="curve" smooth="yes"/>
      <point x="142" y="512" type="line" smooth="yes"/>
      <point x="149" y="549"/>
      <point x="153" y="570"/>
      <point x="144" y="570" type="curve" smooth="yes"/>
      <point x="129" y="570"/>
      <point x="99" y="559"/>
    </contour>
    <contour>
      <point x="581" y="626" type="curve" smooth="yes"/>
      <point x="135" y="-6" type="line"/>
      <point x="135" y="-6"/>
      <point x="110" y="-7"/>
      <point x="110" y="4" type="curve" smooth="yes"/>
      <point x="110" y="6"/>
      <point x="111" y="8"/>
      <point x="112" y="10" type="curve" smooth="yes"/>
      <point x="559" y="642" type="line"/>
      <point x="559" y="642"/>
      <point x="582" y="642"/>
      <point x="582" y="631" type="curve" smooth="yes"/>
      <point x="582" y="629"/>
      <point x="582" y="627"/>
    </contour>
  </outline>
</glyph>
<glyph name="multiply" format="1">
  <advance width="411"/>
  <unicode hex="00D7"/>
  <outline>
    <contour>
      <point x="27" y="68" type="curve" smooth="yes"/>
      <point x="21" y="68"/>
      <point x="14" y="92"/>
      <point x="14" y="108" type="curve"/>
      <point x="168" y="243" type="line" smooth="yes"/>
      <point x="169" y="244"/>
      <point x="170" y="245"/>
      <point x="170" y="246" type="curve" smooth="yes"/>
      <point x="170" y="248"/>
      <point x="166" y="254"/>
      <point x="165" y="255" type="curve" smooth="yes"/>
      <point x="68" y="388" type="line"/>
      <point x="68" y="402"/>
      <point x="90" y="421"/>
      <point x="95" y="421" type="curve" smooth="yes"/>
      <point x="97" y="421"/>
      <point x="97" y="419"/>
      <point x="99" y="417" type="curve" smooth="yes"/>
      <point x="203" y="276" type="line" smooth="yes"/>
      <point x="204" y="275"/>
      <point x="206" y="274"/>
      <point x="207" y="274" type="curve" smooth="yes"/>
      <point x="209" y="275" type="line"/>
      <point x="367" y="416" type="line" smooth="yes"/>
      <point x="369" y="418"/>
      <point x="371" y="419"/>
      <point x="373" y="419" type="curve" smooth="yes"/>
      <point x="380" y="419"/>
      <point x="386" y="396"/>
      <point x="386" y="378" type="curve"/>
      <point x="233" y="242" type="line" smooth="yes"/>
      <point x="232" y="241"/>
      <point x="231" y="241"/>
      <point x="231" y="240" type="curve" smooth="yes"/>
      <point x="231" y="239"/>
      <point x="231" y="239"/>
      <point x="232" y="238" type="curve" smooth="yes"/>
      <point x="332" y="102" type="line"/>
      <point x="332" y="88"/>
      <point x="317" y="68"/>
      <point x="310" y="68" type="curve" smooth="yes"/>
      <point x="306" y="68"/>
      <point x="304" y="69"/>
      <point x="303" y="71" type="curve" smooth="yes"/>
      <point x="200" y="211" type="line" smooth="yes"/>
      <point x="199" y="212"/>
      <point x="198" y="213"/>
      <point x="197" y="213" type="curve" smooth="yes"/>
      <point x="196" y="213"/>
      <point x="194" y="212"/>
      <point x="193" y="211" type="curve" smooth="yes"/>
      <point x="32" y="71" type="line" smooth="yes"/>
      <point x="30" y="69"/>
      <point x="29" y="68"/>
    </contour>
  </outline>
</glyph>
<glyph name="germandbls" format="1">
  <advance width="500"/>
  <unicode hex="00DF"/>
  <outline>
    <contour>
      <point x="128" y="413" type="line"/>
      <point x="160" y="577"/>
      <point x="255" y="685"/>
      <point x="335" y="685" type="curve" smooth="yes"/>
      <point x="386" y="685"/>
      <point x="452" y="651"/>
      <point x="452" y="572" type="curve" smooth="yes"/>
      <point x="452" y="484"/>
      <point x="394" y="453"/>
      <point x="365" y="426" type="curve" smooth="yes"/>
      <point x="338" y="401"/>
      <point x="309" y="376"/>
      <point x="309" y="352" type="curve" smooth="yes"/>
      <point x="309" y="325"/>
      <point x="339" y="299"/>
      <point x="362" y="272" type="curve" smooth="yes"/>
      <point x="402" y="226"/>
      <point x="446" y="189"/>
      <point x="446" y="122" type="curve" smooth="yes"/>
      <point x="446" y="49"/>
      <point x="387" y="-4"/>
      <point x="308" y="-4" type="curve" smooth="yes"/>
      <point x="248" y="-4"/>
      <point x="222" y="18"/>
      <point x="208" y="32" type="curve"/>
      <point x="206" y="38"/>
      <point x="201" y="50"/>
      <point x="202" y="58" type="curve" smooth="yes"/>
      <point x="204" y="86"/>
      <point x="221" y="99"/>
      <point x="242" y="99" type="curve" smooth="yes"/>
      <point x="271" y="99"/>
      <point x="280" y="26"/>
      <point x="329" y="26" type="curve" smooth="yes"/>
      <point x="369" y="26"/>
      <point x="383" y="56"/>
      <point x="383" y="88" type="curve" smooth="yes"/>
      <point x="383" y="131"/>
      <point x="334" y="186"/>
      <point x="308" y="216" type="curve" smooth="yes"/>
      <point x="279" y="249"/>
      <point x="252" y="278"/>
      <point x="252" y="324" type="curve" smooth="yes"/>
      <point x="252" y="369"/>
      <point x="276" y="380"/>
      <point x="331" y="435" type="curve" smooth="yes"/>
      <point x="359" y="463"/>
      <point x="384" y="495"/>
      <point x="384" y="547" type="curve" smooth="yes"/>
      <point x="384" y="608"/>
      <point x="341" y="642"/>
      <point x="300" y="642" type="curve" smooth="yes"/>
      <point x="256" y="642"/>
      <point x="233" y="572"/>
      <point x="204" y="413" type="curve" smooth="yes"/>
      <point x="177" y="267"/>
      <point x="160" y="169"/>
      <point x="136" y="43" type="curve" smooth="yes"/>
      <point x="104" y="-121"/>
      <point x="9" y="-233"/>
      <point x="-71" y="-233" type="curve" smooth="yes"/>
      <point x="-100" y="-233"/>
      <point x="-118" y="-221"/>
      <point x="-125" y="-208" type="curve"/>
      <point x="-125" y="-202"/>
      <point x="-125" y="-197"/>
      <point x="-124" y="-191" type="curve" smooth="yes"/>
      <point x="-121" y="-171"/>
      <point x="-112" y="-152"/>
      <point x="-95" y="-152" type="curve" smooth="yes"/>
      <point x="-78" y="-152"/>
      <point x="-68" y="-163"/>
      <point x="-57" y="-175" type="curve" smooth="yes"/>
      <point x="-50" y="-182"/>
      <point x="-42" y="-190"/>
      <point x="-28" y="-190" type="curve" smooth="yes"/>
      <point x="11" y="-190"/>
      <point x="31" y="-120"/>
      <point x="62" y="39" type="curve"/>
    </contour>
  </outline>
</glyph>
<glyph name="Aogonek" format="1">
  <advance width="586"/>
  <unicode hex="0104"/>
  <outline>
    <contour>
      <point x="488" y="60" type="curve" smooth="yes"/>
      <point x="493" y="36"/>
      <point x="537" y="26"/>
      <point x="544" y="26" type="curve"/>
      <point x="547" y="19"/>
      <point x="543" y="0"/>
      <point x="541" y="-3" type="curve"/>
      <point x="504" y="-1"/>
      <point x="529" y="0"/>
      <point x="493" y="0" type="curve" smooth="yes"/>
      <point x="384" y="0"/>
      <point x="307" y="-104"/>
      <point x="307" y="-139" type="curve" smooth="yes"/>
      <point x="307" y="-154"/>
      <point x="313" y="-171"/>
      <point x="338" y="-171" type="curve" smooth="yes"/>
      <point x="385" y="-171"/>
      <point x="415" y="-133"/>
      <point x="421" y="-133" type="curve" smooth="yes"/>
      <point x="429" y="-133"/>
      <point x="418" y="-160"/>
      <point x="415" y="-163" type="curve" smooth="yes"/>
      <point x="389" y="-192"/>
      <point x="346" y="-230"/>
      <point x="304" y="-230" type="curve" smooth="yes"/>
      <point x="274" y="-230"/>
      <point x="253" y="-205"/>
      <point x="253" y="-178" type="curve" smooth="yes"/>
      <point x="253" y="-123"/>
      <point x="316" y="-56"/>
      <point x="361" y="-11" type="curve" smooth="yes"/>
      <point x="382" y="10"/>
      <point x="398" y="15"/>
      <point x="398" y="53" type="curve" smooth="yes"/>
      <point x="398" y="65"/>
      <point x="396" y="97"/>
      <point x="395" y="106" type="curve" smooth="yes"/>
      <point x="373" y="256" type="line"/>
      <point x="174" y="256" type="line"/>
      <point x="140" y="194"/>
      <point x="112" y="142"/>
      <point x="103" y="125" type="curve" smooth="yes"/>
      <point x="85" y="90"/>
      <point x="74" y="65"/>
      <point x="74" y="50" type="curve" smooth="yes"/>
      <point x="74" y="29"/>
      <point x="129" y="26"/>
      <point x="136" y="26" type="curve"/>
      <point x="138" y="23"/>
      <point x="135" y="3"/>
      <point x="132" y="-3" type="curve"/>
      <point x="95" y="-1"/>
      <point x="84" y="2"/>
      <point x="43" y="2" type="curve" smooth="yes"/>
      <point x="0" y="2"/>
      <point x="-12" y="-1"/>
      <point x="-55" y="-3" type="curve"/>
      <point x="-57" y="0"/>
      <point x="-53" y="19"/>
      <point x="-49" y="26" type="curve"/>
      <point x="-38" y="26"/>
      <point x="-4" y="32"/>
      <point x="8" y="45" type="curve" smooth="yes"/>
      <point x="32" y="71"/>
      <point x="50" y="103"/>
      <point x="70" y="139" type="curve" smooth="yes"/>
      <point x="346" y="634" type="line" smooth="yes"/>
      <point x="355" y="650"/>
      <point x="378" y="663"/>
      <point x="386" y="663" type="curve" smooth="yes"/>
      <point x="389" y="663"/>
      <point x="390" y="661"/>
      <point x="391" y="660" type="curve" smooth="yes"/>
      <point x="477" y="126" type="line" smooth="yes"/>
      <point x="479" y="115"/>
      <point x="484" y="80"/>
    </contour>
    <contour>
      <point x="192" y="289" type="line"/>
      <point x="367" y="289" type="line"/>
      <point x="329" y="535" type="line"/>
    </contour>
  </outline>
</glyph>
<glyph name="aogonek" format="1">
  <advance width="449"/>
  <unicode hex="0105"/>
  <outline>
    <contour>
      <point x="259" y="395" type="curve" smooth="yes"/>
      <point x="182" y="395"/>
      <point x="93" y="266"/>
      <point x="93" y="151" type="curve" smooth="yes"/>
      <point x="93" y="89"/>
      <point x="109" y="53"/>
      <point x="144" y="53" type="curve" smooth="yes"/>
      <point x="194" y="53"/>
      <point x="265" y="178"/>
      <point x="284" y="274" type="curve" smooth="yes"/>
      <point x="305" y="380" type="line"/>
      <point x="296" y="390"/>
      <point x="272" y="395"/>
    </contour>
    <contour>
      <point x="408" y="88" type="curve"/>
      <point x="402" y="77"/>
      <point x="372" y="47"/>
      <point x="345" y="25" type="curve" smooth="yes"/>
      <point x="308" y="-5"/>
      <point x="212" y="-88"/>
      <point x="212" y="-139" type="curve" smooth="yes"/>
      <point x="212" y="-154"/>
      <point x="218" y="-171"/>
      <point x="243" y="-171" type="curve" smooth="yes"/>
      <point x="290" y="-171"/>
      <point x="320" y="-133"/>
      <point x="326" y="-133" type="curve" smooth="yes"/>
      <point x="334" y="-133"/>
      <point x="323" y="-160"/>
      <point x="320" y="-163" type="curve" smooth="yes"/>
      <point x="294" y="-192"/>
      <point x="251" y="-230"/>
      <point x="209" y="-230" type="curve" smooth="yes"/>
      <point x="179" y="-230"/>
      <point x="158" y="-207"/>
      <point x="158" y="-180" type="curve" smooth="yes"/>
      <point x="158" y="-129"/>
      <point x="219" y="-51"/>
      <point x="266" y="-4" type="curve"/>
      <point x="251" y="2"/>
      <point x="243" y="22"/>
      <point x="243" y="46" type="curve" smooth="yes"/>
      <point x="243" y="54"/>
      <point x="246" y="78"/>
      <point x="250" y="99" type="curve" smooth="yes"/>
      <point x="253" y="117"/>
      <point x="254" y="123"/>
      <point x="255" y="130" type="curve"/>
      <point x="235" y="94"/>
      <point x="166" y="-5"/>
      <point x="108" y="-5" type="curve" smooth="yes"/>
      <point x="54" y="-5"/>
      <point x="19" y="43"/>
      <point x="19" y="113" type="curve" smooth="yes"/>
      <point x="19" y="287"/>
      <point x="183" y="435"/>
      <point x="305" y="435" type="curve" smooth="yes"/>
      <point x="340" y="435"/>
      <point x="364" y="429"/>
      <point x="383" y="422" type="curve"/>
      <point x="322" y="106" type="line" smooth="yes"/>
      <point x="321" y="102"/>
      <point x="318" y="79"/>
      <point x="318" y="74" type="curve" smooth="yes"/>
      <point x="318" y="65"/>
      <point x="318" y="49"/>
      <point x="328" y="49" type="curve" smooth="yes"/>
      <point x="349" y="49"/>
      <point x="395" y="104"/>
      <point x="398" y="107" type="curve"/>
      <point x="401" y="107"/>
      <point x="408" y="94"/>
    </contour>
  </outline>
</glyph>
<glyph name="Iogonek" format="1">
  <advance width="313"/>
  <unicode hex="012E"/>
  <outline>
    <contour>
      <point x="218" y="26" type="curve"/>
      <point x="220" y="22"/>
      <point x="214" y="1"/>
      <point x="212" y="-3" type="curve"/>
      <point x="196" y="-3"/>
      <point x="180" y="-6"/>
      <point x="165" y="-10" type="curve" smooth="yes"/>
      <point x="93" y="-31"/>
      <point x="39" y="-97"/>
      <point x="39" y="-139" type="curve" smooth="yes"/>
      <point x="39" y="-154"/>
      <point x="45" y="-171"/>
      <point x="70" y="-171" type="curve" smooth="yes"/>
      <point x="117" y="-171"/>
      <point x="147" y="-133"/>
      <point x="153" y="-133" type="curve" smooth="yes"/>
      <point x="161" y="-133"/>
      <point x="150" y="-160"/>
      <point x="147" y="-163" type="curve" smooth="yes"/>
      <point x="121" y="-192"/>
      <point x="78" y="-230"/>
      <point x="36" y="-230" type="curve" smooth="yes"/>
      <point x="6" y="-230"/>
      <point x="-14" y="-207"/>
      <point x="-14" y="-180" type="curve" smooth="yes"/>
      <point x="-14" y="-118"/>
      <point x="51" y="-25"/>
      <point x="108" y="2" type="curve"/>
      <point x="72" y="2"/>
      <point x="33" y="-1"/>
      <point x="-6" y="-3" type="curve"/>
      <point x="-10" y="2"/>
      <point x="-6" y="21"/>
      <point x="-1" y="26" type="curve"/>
      <point x="10" y="26"/>
      <point x="62" y="31"/>
      <point x="67" y="42" type="curve" smooth="yes"/>
      <point x="75" y="58"/>
      <point x="80" y="86"/>
      <point x="86" y="116" type="curve" smooth="yes"/>
      <point x="169" y="543" type="line" smooth="yes"/>
      <point x="175" y="573"/>
      <point x="180" y="601"/>
      <point x="178" y="617" type="curve" smooth="yes"/>
      <point x="177" y="628"/>
      <point x="128" y="633"/>
      <point x="117" y="633" type="curve"/>
      <point x="114" y="638"/>
      <point x="117" y="657"/>
      <point x="123" y="662" type="curve"/>
      <point x="161" y="660"/>
      <point x="196" y="657"/>
      <point x="232" y="657" type="curve" smooth="yes"/>
      <point x="268" y="657"/>
      <point x="303" y="660"/>
      <point x="342" y="662" type="curve"/>
      <point x="346" y="657"/>
      <point x="341" y="638"/>
      <point x="336" y="633" type="curve"/>
      <point x="325" y="633"/>
      <point x="274" y="628"/>
      <point x="269" y="617" type="curve" smooth="yes"/>
      <point x="261" y="601"/>
      <point x="256" y="573"/>
      <point x="250" y="543" type="curve" smooth="yes"/>
      <point x="167" y="116" type="line" smooth="yes"/>
      <point x="161" y="86"/>
      <point x="155" y="58"/>
      <point x="157" y="42" type="curve" smooth="yes"/>
      <point x="158" y="31"/>
      <point x="207" y="26"/>
    </contour>
  </outline>
</glyph>
<glyph name="dotlessi" format="1">
  <advance width="262"/>
  <unicode hex="0131"/>
  <outline>
    <contour>
      <point x="111" y="323" type="line" smooth="yes"/>
      <point x="112" y="329"/>
      <point x="115" y="350"/>
      <point x="115" y="355" type="curve" smooth="yes"/>
      <point x="115" y="364"/>
      <point x="115" y="380"/>
      <point x="105" y="380" type="curve" smooth="yes"/>
      <point x="84" y="380"/>
      <point x="38" y="325"/>
      <point x="35" y="322" type="curve"/>
      <point x="32" y="322"/>
      <point x="25" y="335"/>
      <point x="25" y="341" type="curve"/>
      <point x="36" y="360"/>
      <point x="104" y="435"/>
      <point x="151" y="435" type="curve" smooth="yes"/>
      <point x="172" y="435"/>
      <point x="190" y="413"/>
      <point x="190" y="383" type="curve" smooth="yes"/>
      <point x="190" y="375"/>
      <point x="187" y="351"/>
      <point x="183" y="330" type="curve" smooth="yes"/>
      <point x="132" y="106" type="line" smooth="yes"/>
      <point x="130" y="96"/>
      <point x="128" y="79"/>
      <point x="128" y="74" type="curve" smooth="yes"/>
      <point x="128" y="65"/>
      <point x="128" y="49"/>
      <point x="138" y="49" type="curve" smooth="yes"/>
      <point x="159" y="49"/>
      <point x="205" y="104"/>
      <point x="208" y="107" type="curve"/>
      <point x="211" y="107"/>
      <point x="218" y="94"/>
      <point x="218" y="88" type="curve"/>
      <point x="207" y="69"/>
      <point x="134" y="-6"/>
      <point x="87" y="-6" type="curve" smooth="yes"/>
      <point x="66" y="-6"/>
      <point x="53" y="16"/>
      <point x="53" y="46" type="curve" smooth="yes"/>
      <point x="53" y="54"/>
      <point x="56" y="78"/>
      <point x="60" y="99" type="curve" smooth="yes"/>
    </contour>
  </outline>
</glyph>
<glyph name="Lslash" format="1">
  <advance width="529"/>
  <unicode hex="0141"/>
  <outline>
    <contour>
      <point x="22" y="206" type="line"/>
      <point x="17" y="202"/>
      <point x="27" y="242"/>
      <point x="32" y="247" type="curve"/>
      <point x="155" y="314.397" type="line"/>
      <point x="185" y="322.836" type="line"/>
      <point x="397" y="439" type="line" smooth="yes"/>
      <point x="403" y="443"/>
      <point x="392" y="402"/>
      <point x="387" y="398" type="curve"/>
      <point x="173" y="277.739" type="line"/>
      <point x="142" y="269.754" type="line"/>
    </contour>
    <component base="L" xOffset="-1"/>
  </outline>
</glyph>
<glyph name="eng" format="1">
  <advance width="476"/>
  <unicode hex="014B"/>
  <outline>
    <contour>
      <point x="360" y="45" type="line" smooth="yes"/>
      <point x="352" y="9"/>
      <point x="332" y="-67"/>
      <point x="289" y="-124" type="curve" smooth="yes"/>
      <point x="247" y="-179"/>
      <point x="185" y="-221"/>
      <point x="150" y="-235" type="curve"/>
      <point x="146" y="-232"/>
      <point x="141" y="-222"/>
      <point x="141" y="-215" type="curve"/>
      <point x="208" y="-177"/>
      <point x="259" y="-89"/>
      <point x="283" y="22" type="curve" smooth="yes"/>
      <point x="335" y="264" type="line" smooth="yes"/>
      <point x="337" y="273"/>
      <point x="342" y="307"/>
      <point x="342" y="318" type="curve" smooth="yes"/>
      <point x="342" y="344"/>
      <point x="341" y="361"/>
      <point x="323" y="361" type="curve" smooth="yes"/>
      <point x="286" y="361"/>
      <point x="162" y="247"/>
      <point x="138" y="122" type="curve" smooth="yes"/>
      <point x="129" y="74"/>
      <point x="123" y="48"/>
      <point x="113" y="0" type="curve"/>
      <point x="99" y="-2"/>
      <point x="91" y="-4"/>
      <point x="77" y="-4" type="curve" smooth="yes"/>
      <point x="63" y="-4"/>
      <point x="56" y="-2"/>
      <point x="42" y="0" type="curve"/>
      <point x="108" y="323" type="line" smooth="yes"/>
      <point x="109" y="329"/>
      <point x="112" y="350"/>
      <point x="112" y="355" type="curve" smooth="yes"/>
      <point x="112" y="364"/>
      <point x="112" y="380"/>
      <point x="102" y="380" type="curve" smooth="yes"/>
      <point x="81" y="380"/>
      <point x="35" y="325"/>
      <point x="32" y="322" type="curve"/>
      <point x="29" y="322"/>
      <point x="22" y="335"/>
      <point x="22" y="341" type="curve"/>
      <point x="33" y="360"/>
      <point x="101" y="435"/>
      <point x="148" y="435" type="curve" smooth="yes"/>
      <point x="169" y="435"/>
      <point x="187" y="413"/>
      <point x="187" y="383" type="curve" smooth="yes"/>
      <point x="187" y="375"/>
      <point x="184" y="351"/>
      <point x="179" y="330" type="curve" smooth="yes"/>
      <point x="161" y="246" type="line"/>
      <point x="174" y="271"/>
      <point x="290" y="435"/>
      <point x="357" y="435" type="curve" smooth="yes"/>
      <point x="403" y="435"/>
      <point x="419" y="410"/>
      <point x="419" y="369" type="curve" smooth="yes"/>
      <point x="419" y="338"/>
      <point x="412" y="294"/>
      <point x="405" y="260" type="curve" smooth="yes"/>
    </contour>
  </outline>
</glyph>
<glyph name="OE" format="1">
  <advance width="886"/>
  <unicode hex="0152"/>
  <outline>
    <contour>
      <point x="600" y="657" type="curve" smooth="yes"/>
      <point x="687" y="657"/>
      <point x="792" y="664"/>
      <point x="893" y="664" type="curve"/>
      <point x="890" y="614"/>
      <point x="894" y="573"/>
      <point x="894" y="528" type="curve"/>
      <point x="891" y="525"/>
      <point x="883" y="523"/>
      <point x="876" y="523" type="curve" smooth="yes"/>
      <point x="869" y="523"/>
      <point x="865" y="525"/>
      <point x="865" y="530" type="curve" smooth="yes"/>
      <point x="860" y="610"/>
      <point x="826" y="630"/>
      <point x="777" y="630" type="curve" smooth="yes"/>
      <point x="697" y="630" type="line" smooth="yes"/>
      <point x="686" y="630"/>
      <point x="636" y="629"/>
      <point x="631" y="619" type="curve" smooth="yes"/>
      <point x="623" y="603"/>
      <point x="616" y="574"/>
      <point x="611" y="547" type="curve" smooth="yes"/>
      <point x="574" y="355" type="line" smooth="yes"/>
      <point x="573" y="350"/>
      <point x="593" y="349"/>
      <point x="613" y="349" type="curve" smooth="yes"/>
      <point x="662" y="349" type="line" smooth="yes"/>
      <point x="751" y="349"/>
      <point x="749" y="355"/>
      <point x="778" y="421" type="curve" smooth="yes"/>
      <point x="780" y="426"/>
      <point x="787" y="428"/>
      <point x="794" y="428" type="curve" smooth="yes"/>
      <point x="801" y="428"/>
      <point x="806" y="426"/>
      <point x="808" y="423" type="curve"/>
      <point x="772" y="234" type="line"/>
      <point x="770" y="232"/>
      <point x="763" y="230"/>
      <point x="756" y="230" type="curve" smooth="yes"/>
      <point x="749" y="230"/>
      <point x="744" y="233"/>
      <point x="743" y="238" type="curve" smooth="yes"/>
      <point x="740" y="295"/>
      <point x="737" y="302"/>
      <point x="730" y="308" type="curve" smooth="yes"/>
      <point x="721" y="315"/>
      <point x="668" y="316"/>
      <point x="633" y="316" type="curve" smooth="yes"/>
      <point x="607" y="316"/>
      <point x="566" y="316"/>
      <point x="564" y="307" type="curve" smooth="yes"/>
      <point x="525" y="109" type="line" smooth="yes"/>
      <point x="522" y="94"/>
      <point x="513" y="45"/>
      <point x="518" y="40" type="curve" smooth="yes"/>
      <point x="528" y="30"/>
      <point x="543" y="30"/>
      <point x="582" y="30" type="curve" smooth="yes"/>
      <point x="626" y="30" type="line" smooth="yes"/>
      <point x="677" y="30"/>
      <point x="718" y="40"/>
      <point x="750" y="61" type="curve" smooth="yes"/>
      <point x="777" y="79"/>
      <point x="803" y="109"/>
      <point x="828" y="162" type="curve" smooth="yes"/>
      <point x="830" y="166"/>
      <point x="836" y="168"/>
      <point x="843" y="168" type="curve" smooth="yes"/>
      <point x="852" y="168"/>
      <point x="863" y="165"/>
      <point x="865" y="162" type="curve"/>
      <point x="837" y="108"/>
      <point x="797" y="40"/>
      <point x="782" y="-4" type="curve"/>
      <point x="681" y="-4"/>
      <point x="589" y="2"/>
      <point x="466" y="0" type="curve" smooth="yes"/>
      <point x="411" y="-1"/>
      <point x="359" y="-11"/>
      <point x="325" y="-11" type="curve" smooth="yes"/>
      <point x="142" y="-11"/>
      <point x="57" y="123"/>
      <point x="57" y="274" type="curve" smooth="yes"/>
      <point x="57" y="489"/>
      <point x="214" y="666"/>
      <point x="413" y="666" type="curve" smooth="yes"/>
      <point x="486" y="666"/>
      <point x="537" y="656"/>
    </contour>
    <contour>
      <point x="530" y="557" type="line" smooth="yes"/>
      <point x="542" y="620"/>
      <point x="459" y="636"/>
      <point x="404" y="636" type="curve" smooth="yes"/>
      <point x="253" y="636"/>
      <point x="151" y="444"/>
      <point x="151" y="272" type="curve" smooth="yes"/>
      <point x="151" y="109"/>
      <point x="212" y="18"/>
      <point x="325" y="18" type="curve" smooth="yes"/>
      <point x="399" y="18"/>
      <point x="424" y="51"/>
      <point x="429" y="62" type="curve" smooth="yes"/>
      <point x="437" y="78"/>
      <point x="441" y="86"/>
      <point x="447" y="116" type="curve" smooth="yes"/>
    </contour>
  </outline>
</glyph>
<glyph name="oe" format="1">
  <advance width="614"/>
  <unicode hex="0153"/>
  <outline>
    <contour>
      <point x="356" y="218" type="curve"/>
      <point x="401" y="220"/>
      <point x="517" y="282"/>
      <point x="517" y="354" type="curve" smooth="yes"/>
      <point x="517" y="381"/>
      <point x="494" y="394"/>
      <point x="475" y="394" type="curve" smooth="yes"/>
      <point x="414" y="394"/>
      <point x="365" y="290"/>
    </contour>
    <contour>
      <point x="237" y="403" type="curve" smooth="yes"/>
      <point x="153" y="403"/>
      <point x="102" y="258"/>
      <point x="102" y="158" type="curve" smooth="yes"/>
      <point x="102" y="78"/>
      <point x="123" y="27"/>
      <point x="159" y="27" type="curve" smooth="yes"/>
      <point x="225" y="27"/>
      <point x="290" y="136"/>
      <point x="290" y="273" type="curve" smooth="yes"/>
      <point x="290" y="353"/>
      <point x="273" y="403"/>
    </contour>
    <contour>
      <point x="525" y="435" type="curve" smooth="yes"/>
      <point x="576" y="435"/>
      <point x="591" y="403"/>
      <point x="591" y="373" type="curve" smooth="yes"/>
      <point x="591" y="277"/>
      <point x="416" y="193"/>
      <point x="354" y="193" type="curve"/>
      <point x="353" y="190"/>
      <point x="352" y="166"/>
      <point x="352" y="161" type="curve" smooth="yes"/>
      <point x="352" y="100"/>
      <point x="371" y="53"/>
      <point x="421" y="53" type="curve" smooth="yes"/>
      <point x="466" y="53"/>
      <point x="521" y="119"/>
      <point x="524" y="122" type="curve"/>
      <point x="527" y="122"/>
      <point x="536" y="108"/>
      <point x="536" y="102" type="curve"/>
      <point x="523" y="80"/>
      <point x="447" y="-6"/>
      <point x="384" y="-6" type="curve" smooth="yes"/>
      <point x="333" y="-6"/>
      <point x="298" y="22"/>
      <point x="283" y="72" type="curve"/>
      <point x="242" y="26"/>
      <point x="191" y="-5"/>
      <point x="140" y="-5" type="curve" smooth="yes"/>
      <point x="60" y="-5"/>
      <point x="24" y="52"/>
      <point x="24" y="138" type="curve" smooth="yes"/>
      <point x="24" y="278"/>
      <point x="136" y="435"/>
      <point x="251" y="435" type="curve" smooth="yes"/>
      <point x="311" y="435"/>
      <point x="347" y="401"/>
      <point x="361" y="348" type="curve"/>
      <point x="409" y="401"/>
      <point x="469" y="435"/>
    </contour>
  </outline>
</glyph>
<glyph name="Tbar" format="1">
  <advance width="588"/>
  <unicode hex="0166"/>
  <outline>
    <contour>
      <point x="153" y="348" type="curve"/>
      <point x="180" y="348"/>
      <point x="460" y="348"/>
      <point x="473" y="348" type="curve" smooth="yes"/>
      <point x="477" y="348"/>
      <point x="478" y="343"/>
      <point x="477" y="338" type="curve" smooth="yes"/>
      <point x="476" y="332"/>
      <point x="470" y="317"/>
      <point x="465" y="308" type="curve"/>
      <point x="438" y="308"/>
      <point x="158" y="308"/>
      <point x="145" y="308" type="curve" smooth="yes"/>
      <point x="141" y="308"/>
      <point x="141" y="316"/>
      <point x="142" y="321" type="curve" smooth="yes"/>
      <point x="143" y="327"/>
      <point x="146" y="339"/>
    </contour>
    <component base="T" xOffset="1"/>
  </outline>
</glyph>
<glyph name="tbar" format="1">
  <advance width="285"/>
  <unicode hex="0167"/>
  <outline>
    <contour>
      <point x="54" y="315" type="curve"/>
      <point x="81" y="315"/>
      <point x="269" y="315"/>
      <point x="282" y="315" type="curve" smooth="yes"/>
      <point x="286" y="315"/>
      <point x="287" y="310"/>
      <point x="286" y="305" type="curve" smooth="yes"/>
      <point x="285" y="299"/>
      <point x="279" y="284"/>
      <point x="274" y="275" type="curve"/>
      <point x="247" y="275"/>
      <point x="59" y="275"/>
      <point x="46" y="275" type="curve" smooth="yes"/>
      <point x="42" y="275"/>
      <point x="42" y="283"/>
      <point x="43" y="288" type="curve" smooth="yes"/>
      <point x="44" y="294"/>
      <point x="47" y="306"/>
    </contour>
    <component base="t" xOffset="1"/>
  </outline>
</glyph>
<glyph name="uogonek" format="1">
  <advance width="490"/>
  <unicode hex="0173"/>
  <outline>
    <contour>
      <point x="199" y="-180" type="curve" smooth="yes"/>
      <point x="199" y="-129"/>
      <point x="260" y="-51"/>
      <point x="307" y="-4" type="curve"/>
      <point x="292" y="2"/>
      <point x="284" y="22"/>
      <point x="284" y="46" type="curve" smooth="yes"/>
      <point x="285" y="54"/>
      <point x="288" y="78"/>
      <point x="292" y="99" type="curve" smooth="yes"/>
      <point x="298" y="133"/>
      <point x="303" y="152"/>
      <point x="310" y="186" type="curve"/>
      <point x="284" y="130"/>
      <point x="175" y="-6"/>
      <point x="109" y="-6" type="curve" smooth="yes"/>
      <point x="70" y="-6"/>
      <point x="59" y="28"/>
      <point x="59" y="66" type="curve" smooth="yes"/>
      <point x="59" y="94"/>
      <point x="67" y="140"/>
      <point x="73" y="169" type="curve" smooth="yes"/>
      <point x="106" y="323" type="line" smooth="yes"/>
      <point x="107" y="329"/>
      <point x="110" y="350"/>
      <point x="110" y="355" type="curve" smooth="yes"/>
      <point x="110" y="364"/>
      <point x="110" y="380"/>
      <point x="100" y="380" type="curve" smooth="yes"/>
      <point x="79" y="380"/>
      <point x="33" y="325"/>
      <point x="30" y="322" type="curve"/>
      <point x="27" y="322"/>
      <point x="20" y="335"/>
      <point x="20" y="341" type="curve"/>
      <point x="31" y="360"/>
      <point x="99" y="435"/>
      <point x="146" y="435" type="curve" smooth="yes"/>
      <point x="167" y="435"/>
      <point x="185" y="413"/>
      <point x="185" y="383" type="curve" smooth="yes"/>
      <point x="185" y="375"/>
      <point x="182" y="351"/>
      <point x="178" y="330" type="curve" smooth="yes"/>
      <point x="143" y="165" type="line" smooth="yes"/>
      <point x="141" y="156"/>
      <point x="136" y="122"/>
      <point x="136" y="111" type="curve" smooth="yes"/>
      <point x="136" y="88"/>
      <point x="138" y="68"/>
      <point x="155" y="68" type="curve" smooth="yes"/>
      <point x="191" y="68"/>
      <point x="310" y="194"/>
      <point x="334" y="319" type="curve" smooth="yes"/>
      <point x="342" y="362"/>
      <point x="347" y="386"/>
      <point x="356" y="429" type="curve"/>
      <point x="366" y="432"/>
      <point x="377" y="433"/>
      <point x="387" y="433" type="curve" smooth="yes"/>
      <point x="397" y="433"/>
      <point x="414" y="432"/>
      <point x="426" y="429" type="curve"/>
      <point x="364" y="106" type="line" smooth="yes"/>
      <point x="362" y="96"/>
      <point x="360" y="79"/>
      <point x="359" y="74" type="curve" smooth="yes"/>
      <point x="359" y="65"/>
      <point x="359" y="49"/>
      <point x="369" y="49" type="curve" smooth="yes"/>
      <point x="390" y="49"/>
      <point x="436" y="104"/>
      <point x="439" y="107" type="curve"/>
      <point x="442" y="107"/>
      <point x="449" y="94"/>
      <point x="449" y="88" type="curve"/>
      <point x="443" y="77"/>
      <point x="413" y="47"/>
      <point x="386" y="25" type="curve" smooth="yes"/>
      <point x="349" y="-5"/>
      <point x="253" y="-88"/>
      <point x="253" y="-139" type="curve" smooth="yes"/>
      <point x="253" y="-154"/>
      <point x="259" y="-171"/>
      <point x="284" y="-171" type="curve" smooth="yes"/>
      <point x="331" y="-171"/>
      <point x="361" y="-133"/>
      <point x="367" y="-133" type="curve" smooth="yes"/>
      <point x="375" y="-133"/>
      <point x="364" y="-160"/>
      <point x="361" y="-163" type="curve" smooth="yes"/>
      <point x="335" y="-192"/>
      <point x="292" y="-230"/>
      <point x="250" y="-230" type="curve" smooth="yes"/>
      <point x="220" y="-230"/>
      <point x="199" y="-207"/>
    </contour>
  </outline>
</glyph>
<glyph name="longs" format="1">
  <advance width="296"/>
  <unicode hex="017F"/>
  <outline>
    <contour>
      <point x="129" y="413" type="line"/>
      <point x="161" y="577"/>
      <point x="256" y="685"/>
      <point x="336" y="685" type="curve" smooth="yes"/>
      <point x="365" y="685"/>
      <point x="383" y="673"/>
      <point x="390" y="660" type="curve"/>
      <point x="390" y="657"/>
      <point x="390" y="654"/>
      <point x="390" y="651" type="curve" smooth="yes"/>
      <point x="388" y="628"/>
      <point x="379" y="604"/>
      <point x="360" y="604" type="curve" smooth="yes"/>
      <point x="343" y="604"/>
      <point x="333" y="615"/>
      <point x="322" y="627" type="curve" smooth="yes"/>
      <point x="315" y="634"/>
      <point x="307" y="642"/>
      <point x="293" y="642" type="curve" smooth="yes"/>
      <point x="250" y="642"/>
      <point x="223" y="527"/>
      <point x="196" y="376" type="curve" smooth="yes"/>
    </contour>
  </outline>
</glyph>
<glyph name="Ohorn" format="1">
  <advance width="710"/>
  <unicode hex="01A0"/>
  <outline>
    <contour>
      <point x="406" y="635" type="curve" smooth="yes"/>
      <point x="280" y="635"/>
      <point x="155" y="478"/>
      <point x="155" y="268" type="curve" smooth="yes"/>
      <point x="155" y="153"/>
      <point x="191" y="18"/>
      <point x="328" y="18" type="curve" smooth="yes"/>
      <point x="481" y="18"/>
      <point x="578" y="214"/>
      <point x="578" y="393" type="curve" smooth="yes"/>
      <point x="578" y="489"/>
      <point x="547" y="635"/>
    </contour>
    <contour>
      <point x="645" y="592" type="curve" smooth="yes"/>
      <point x="666" y="592"/>
      <point x="687" y="606"/>
      <point x="687" y="627" type="curve" smooth="yes"/>
      <point x="687" y="636"/>
      <point x="680" y="644"/>
      <point x="678" y="648" type="curve" smooth="yes"/>
      <point x="675" y="655"/>
      <point x="671" y="659"/>
      <point x="671" y="670" type="curve" smooth="yes"/>
      <point x="671" y="694"/>
      <point x="701" y="708"/>
      <point x="720" y="708" type="curve" smooth="yes"/>
      <point x="729" y="708"/>
      <point x="737" y="706"/>
      <point x="742" y="704" type="curve"/>
      <point x="749" y="692"/>
      <point x="752" y="682"/>
      <point x="752" y="670" type="curve" smooth="yes"/>
      <point x="752" y="607"/>
      <point x="678" y="561"/>
      <point x="633" y="561" type="curve" smooth="yes"/>
      <point x="629" y="561"/>
      <point x="624" y="561"/>
      <point x="619" y="562" type="curve"/>
      <point x="653" y="514"/>
      <point x="672" y="451"/>
      <point x="672" y="382" type="curve" smooth="yes"/>
      <point x="672" y="148"/>
      <point x="511" y="-11"/>
      <point x="319" y="-11" type="curve" smooth="yes"/>
      <point x="157" y="-11"/>
      <point x="61" y="115"/>
      <point x="61" y="273" type="curve" smooth="yes"/>
      <point x="61" y="503"/>
      <point x="233" y="665"/>
      <point x="415" y="665" type="curve" smooth="yes"/>
      <point x="464" y="665"/>
      <point x="508" y="653"/>
      <point x="544" y="632" type="curve" smooth="yes"/>
      <point x="581" y="611"/>
      <point x="610" y="592"/>
    </contour>
  </outline>
</glyph>
<glyph name="uni02BE" format="1">
  <advance width="195"/>
  <unicode hex="02BE"/>
  <outline>
    <contour>
      <point x="29" y="472" type="curve"/>
      <point x="76" y="472"/>
      <point x="118" y="517"/>
      <point x="128" y="568" type="curve" smooth="yes"/>
      <point x="139" y="623"/>
      <point x="118" y="664"/>
      <point x="63" y="664" type="curve"/>
      <point x="61" y="670"/>
      <point x="61" y="685"/>
      <point x="72" y="698" type="curve"/>
      <point x="146" y="698"/>
      <point x="193" y="639"/>
      <point x="179" y="569" type="curve" smooth="yes"/>
      <point x="165" y="499"/>
      <point x="93" y="438"/>
      <point x="20" y="438" type="curve"/>
      <point x="19" y="447"/>
      <point x="21" y="458"/>
    </contour>
  </outline>
</glyph>
<glyph name="uni0302" format="1">
  <advance width="0"/>
  <unicode hex="0302"/>
  <outline>
    <contour>
      <point x="-240" y="625" type="curve" smooth="yes"/>
      <point x="-236" y="625"/>
      <point x="-233" y="621"/>
      <point x="-231" y="617" type="curve" smooth="yes"/>
      <point x="-206" y="570"/>
      <point x="-192" y="546"/>
      <point x="-163" y="501" type="curve"/>
      <point x="-164" y="495"/>
      <point x="-171" y="490"/>
      <point x="-176" y="490" type="curve"/>
      <point x="-207" y="514"/>
      <point x="-254" y="554"/>
      <point x="-254" y="554" type="curve"/>
      <point x="-254" y="554"/>
      <point x="-320" y="515"/>
      <point x="-359" y="490" type="curve"/>
      <point x="-364" y="490"/>
      <point x="-369" y="495"/>
      <point x="-368" y="501" type="curve"/>
      <point x="-321" y="546"/>
      <point x="-296" y="570"/>
      <point x="-252" y="617" type="curve" smooth="yes"/>
      <point x="-248" y="621"/>
      <point x="-244" y="625"/>
    </contour>
  </outline>
</glyph>
<glyph name="tildecomb" format="1">
  <advance width="0"/>
  <unicode hex="0303"/>
  <outline>
    <contour>
      <point x="-297" y="568" type="curve" smooth="yes"/>
      <point x="-274" y="568"/>
      <point x="-257" y="563"/>
      <point x="-241" y="555" type="curve" smooth="yes"/>
      <point x="-221" y="546"/>
      <point x="-205" y="532"/>
      <point x="-176" y="532" type="curve" smooth="yes"/>
      <point x="-144" y="532"/>
      <point x="-118" y="561"/>
      <point x="-111" y="568" type="curve"/>
      <point x="-108" y="567"/>
      <point x="-104" y="566"/>
      <point x="-105" y="559" type="curve" smooth="yes"/>
      <point x="-107" y="545"/>
      <point x="-117" y="530"/>
      <point x="-126" y="522" type="curve" smooth="yes"/>
      <point x="-152" y="498"/>
      <point x="-177" y="490"/>
      <point x="-204" y="490" type="curve" smooth="yes"/>
      <point x="-227" y="490"/>
      <point x="-242" y="496"/>
      <point x="-259" y="504" type="curve" smooth="yes"/>
      <point x="-278" y="513"/>
      <point x="-297" y="526"/>
      <point x="-326" y="526" type="curve" smooth="yes"/>
      <point x="-358" y="526"/>
      <point x="-384" y="497"/>
      <point x="-391" y="490" type="curve"/>
      <point x="-394" y="491"/>
      <point x="-397" y="493"/>
      <point x="-396" y="500" type="curve" smooth="yes"/>
      <point x="-394" y="514"/>
      <point x="-385" y="528"/>
      <point x="-376" y="536" type="curve" smooth="yes"/>
      <point x="-350" y="560"/>
      <point x="-324" y="568"/>
    </contour>
  </outline>
</glyph>
<glyph name="uni0304" format="1">
  <advance width="0"/>
  <unicode hex="0304"/>
  <outline>
    <contour>
      <point x="-157" y="490" type="curve"/>
      <point x="-367" y="490" type="line"/>
      <point x="-367" y="490"/>
      <point x="-370" y="493"/>
      <point x="-370" y="499" type="curve" smooth="yes"/>
      <point x="-370" y="506"/>
      <point x="-363" y="529"/>
      <point x="-358" y="529" type="curve" smooth="yes"/>
      <point x="-152" y="529" type="line" smooth="yes"/>
      <point x="-150" y="529"/>
      <point x="-147" y="526"/>
      <point x="-147" y="522" type="curve" smooth="yes"/>
      <point x="-147" y="517"/>
      <point x="-149" y="499"/>
    </contour>
  </outline>
</glyph>
<glyph name="uni0308" format="1">
  <advance width="0"/>
  <unicode hex="0308"/>
  <outline>
    <contour>
      <point x="-158" y="582" type="curve" smooth="yes"/>
      <point x="-135" y="582"/>
      <point x="-120" y="560"/>
      <point x="-125" y="535" type="curve" smooth="yes"/>
      <point x="-130" y="510"/>
      <point x="-154" y="490"/>
      <point x="-177" y="490" type="curve" smooth="yes"/>
      <point x="-200" y="490"/>
      <point x="-217" y="511"/>
      <point x="-212" y="536" type="curve" smooth="yes"/>
      <point x="-207" y="561"/>
      <point x="-181" y="582"/>
    </contour>
    <contour>
      <point x="-329" y="582" type="curve" smooth="yes"/>
      <point x="-306" y="582"/>
      <point x="-290" y="560"/>
      <point x="-295" y="535" type="curve" smooth="yes"/>
      <point x="-300" y="510"/>
      <point x="-324" y="490"/>
      <point x="-347" y="490" type="curve" smooth="yes"/>
      <point x="-370" y="490"/>
      <point x="-387" y="511"/>
      <point x="-382" y="536" type="curve" smooth="yes"/>
      <point x="-377" y="561"/>
      <point x="-352" y="582"/>
    </contour>
  </outline>
</glyph>
<glyph name="hookabovecomb" format="1">
  <advance width="0"/>
  <unicode hex="0309"/>
  <outline>
    <contour>
      <point x="-278" y="607" type="curve" smooth="yes"/>
      <point x="-297" y="607"/>
      <point x="-314" y="596"/>
      <point x="-318" y="590" type="curve"/>
      <point x="-321" y="591"/>
      <point x="-324" y="596"/>
      <point x="-324" y="601" type="curve" smooth="yes"/>
      <point x="-324" y="617"/>
      <point x="-288" y="642"/>
      <point x="-259" y="642" type="curve" smooth="yes"/>
      <point x="-222" y="642"/>
      <point x="-196" y="621"/>
      <point x="-196" y="590" type="curve" smooth="yes"/>
      <point x="-196" y="551"/>
      <point x="-243" y="536"/>
      <point x="-264" y="527" type="curve" smooth="yes"/>
      <point x="-276" y="522"/>
      <point x="-278" y="516"/>
      <point x="-278" y="510" type="curve" smooth="yes"/>
      <point x="-278" y="504"/>
      <point x="-275" y="498"/>
      <point x="-273" y="495" type="curve"/>
      <point x="-277" y="491"/>
      <point x="-287" y="487"/>
      <point x="-292" y="487" type="curve"/>
      <point x="-297" y="489"/>
      <point x="-310" y="498"/>
      <point x="-310" y="515" type="curve" smooth="yes"/>
      <point x="-310" y="532"/>
      <point x="-291" y="538"/>
      <point x="-276" y="545" type="curve" smooth="yes"/>
      <point x="-256" y="554"/>
      <point x="-241" y="562"/>
      <point x="-241" y="579" type="curve" smooth="yes"/>
      <point x="-241" y="597"/>
      <point x="-261" y="607"/>
    </contour>
  </outline>
</glyph>
<glyph name="uni030C" format="1">
  <advance width="0"/>
  <unicode hex="030C"/>
  <outline>
    <contour>
      <point x="-270" y="493" type="curve" smooth="yes"/>
      <point x="-274" y="493"/>
      <point x="-277" y="497"/>
      <point x="-279" y="501" type="curve" smooth="yes"/>
      <point x="-304" y="548"/>
      <point x="-318" y="572"/>
      <point x="-347" y="617" type="curve"/>
      <point x="-346" y="623"/>
      <point x="-339" y="628"/>
      <point x="-334" y="628" type="curve"/>
      <point x="-302" y="601"/>
      <point x="-256" y="564"/>
      <point x="-256" y="564" type="curve"/>
      <point x="-256" y="564"/>
      <point x="-190" y="603"/>
      <point x="-151" y="628" type="curve"/>
      <point x="-146" y="628"/>
      <point x="-141" y="623"/>
      <point x="-142" y="617" type="curve"/>
      <point x="-189" y="572"/>
      <point x="-214" y="548"/>
      <point x="-258" y="501" type="curve" smooth="yes"/>
      <point x="-262" y="497"/>
      <point x="-266" y="493"/>
    </contour>
  </outline>
</glyph>
<glyph name="uni0315" format="1">
  <advance width="0"/>
  <unicode hex="0315"/>
  <outline>
    <contour>
      <point x="162" y="592" type="curve" smooth="yes"/>
      <point x="162" y="630"/>
      <point x="196" y="652"/>
      <point x="236" y="652" type="curve"/>
      <point x="240" y="645"/>
      <point x="241" y="636"/>
      <point x="241" y="624" type="curve" smooth="yes"/>
      <point x="241" y="614"/>
      <point x="240" y="603"/>
      <point x="238" y="590" type="curve" smooth="yes"/>
      <point x="229" y="545"/>
      <point x="169" y="480"/>
      <point x="144" y="466" type="curve" smooth="yes"/>
      <point x="143" y="465"/>
      <point x="139" y="465"/>
      <point x="137" y="465" type="curve" smooth="yes"/>
      <point x="132" y="465"/>
      <point x="127" y="472"/>
      <point x="127" y="477" type="curve" smooth="yes"/>
      <point x="127" y="481"/>
      <point x="173" y="504"/>
      <point x="173" y="551" type="curve" smooth="yes"/>
      <point x="173" y="562"/>
      <point x="162" y="574"/>
    </contour>
  </outline>
</glyph>
<glyph name="dotbelowcomb" format="1">
  <advance width="0"/>
  <unicode hex="0323"/>
  <outline>
    <contour>
      <point x="-305" y="-82" type="curve" smooth="yes"/>
      <point x="-300" y="-54"/>
      <point x="-275" y="-32"/>
      <point x="-249" y="-32" type="curve" smooth="yes"/>
      <point x="-223" y="-32"/>
      <point x="-207" y="-54"/>
      <point x="-212" y="-82" type="curve" smooth="yes"/>
      <point x="-217" y="-110"/>
      <point x="-243" y="-132"/>
      <point x="-269" y="-132" type="curve" smooth="yes"/>
      <point x="-295" y="-132"/>
      <point x="-310" y="-110"/>
    </contour>
  </outline>
</glyph>
<glyph name="uni0326" format="1">
  <advance width="0"/>
  <unicode hex="0326"/>
  <outline>
    <contour>
      <point x="-302" y="-68" type="curve" smooth="yes"/>
      <point x="-302" y="-36"/>
      <point x="-255" y="-13"/>
      <point x="-216" y="-13" type="curve"/>
      <point x="-203" y="-23"/>
      <point x="-203" y="-46"/>
      <point x="-203" y="-54" type="curve" smooth="yes"/>
      <point x="-203" y="-109"/>
      <point x="-264" y="-173"/>
      <point x="-297" y="-191" type="curve" smooth="yes"/>
      <point x="-298" y="-192"/>
      <point x="-301" y="-193"/>
      <point x="-305" y="-193" type="curve" smooth="yes"/>
      <point x="-317" y="-193"/>
      <point x="-323" y="-189"/>
      <point x="-323" y="-186" type="curve" smooth="yes"/>
      <point x="-323" y="-180"/>
      <point x="-280" y="-166"/>
      <point x="-272" y="-125" type="curve" smooth="yes"/>
      <point x="-266" y="-95"/>
      <point x="-302" y="-94"/>
    </contour>
  </outline>
</glyph>
<glyph name="uni0327" format="1">
  <advance width="0"/>
  <unicode hex="0327"/>
  <outline>
    <contour>
      <point x="-247" y="-27" type="line"/>
      <point x="-224" y="-27" type="line" smooth="yes"/>
      <point x="-200" y="-27"/>
      <point x="-187" y="-50"/>
      <point x="-192" y="-76" type="curve" smooth="yes"/>
      <point x="-201" y="-123"/>
      <point x="-246" y="-152"/>
      <point x="-294" y="-152" type="curve" smooth="yes"/>
      <point x="-305" y="-152"/>
      <point x="-319" y="-147"/>
      <point x="-324" y="-143" type="curve"/>
      <point x="-324" y="-138"/>
      <point x="-325" y="-135"/>
      <point x="-324" y="-129" type="curve" smooth="yes"/>
      <point x="-323" y="-122"/>
      <point x="-315" y="-115"/>
      <point x="-309" y="-115" type="curve" smooth="yes"/>
      <point x="-298" y="-115"/>
      <point x="-292" y="-128"/>
      <point x="-277" y="-128" type="curve" smooth="yes"/>
      <point x="-251" y="-128"/>
      <point x="-233" y="-112"/>
      <point x="-230" y="-95" type="curve" smooth="yes"/>
      <point x="-225" y="-71"/>
      <point x="-240" y="-61"/>
      <point x="-252" y="-61" type="curve" smooth="yes"/>
      <point x="-262" y="-61"/>
      <point x="-268" y="-64"/>
      <point x="-278" y="-68" type="curve" smooth="yes"/>
      <point x="-280" y="-68"/>
      <point x="-288" y="-59"/>
      <point x="-285" y="-55" type="curve" smooth="yes"/>
      <point x="-274" y="-40"/>
      <point x="-255" y="-18"/>
      <point x="-245" y="-4" type="curve"/>
      <point x="-226" y="-4" type="line"/>
    </contour>
  </outline>
</glyph>
<glyph name="dieresistonos" format="1">
  <advance width="344"/>
  <unicode hex="0385"/>
  <outline>
    <contour>
      <point x="380" y="597" type="curve" smooth="yes"/>
      <point x="403" y="597"/>
      <point x="418" y="576"/>
      <point x="413" y="551" type="curve" smooth="yes"/>
      <point x="408" y="526"/>
      <point x="385" y="507"/>
      <point x="362" y="507" type="curve" smooth="yes"/>
      <point x="339" y="507"/>
      <point x="323" y="527"/>
      <point x="328" y="552" type="curve" smooth="yes"/>
      <point x="333" y="577"/>
      <point x="357" y="597"/>
    </contour>
    <contour>
      <point x="183" y="597" type="curve" smooth="yes"/>
      <point x="206" y="597"/>
      <point x="221" y="576"/>
      <point x="216" y="551" type="curve" smooth="yes"/>
      <point x="211" y="526"/>
      <point x="188" y="507"/>
      <point x="165" y="507" type="curve" smooth="yes"/>
      <point x="142" y="507"/>
      <point x="126" y="527"/>
      <point x="131" y="552" type="curve" smooth="yes"/>
      <point x="136" y="577"/>
      <point x="160" y="597"/>
    </contour>
    <component base="tonos" xScale="0.86" yScale="0.962085" xOffset="119" yOffset="25"/>
  </outline>
</glyph>
<glyph name="Alpha" format="1">
  <advance width="497"/>
  <unicode hex="0391"/>
  <outline>
    <contour>
      <point x="-60" y="26" type="curve"/>
      <point x="41" y="119"/>
      <point x="187" y="451"/>
      <point x="257" y="599" type="curve"/>
      <point x="247" y="616"/>
      <point x="217" y="610"/>
      <point x="192" y="597" type="curve"/>
      <point x="191" y="601"/>
      <point x="192" y="607"/>
      <point x="193" y="613" type="curve"/>
      <point x="203" y="636"/>
      <point x="241" y="666"/>
      <point x="267" y="666" type="curve" smooth="yes"/>
      <point x="292" y="666"/>
      <point x="312" y="655"/>
      <point x="328" y="626" type="curve" smooth="yes"/>
      <point x="367" y="557"/>
      <point x="368" y="451"/>
      <point x="382" y="339" type="curve" smooth="yes"/>
      <point x="399" y="200"/>
      <point x="419" y="60"/>
      <point x="451" y="4" type="curve"/>
      <point x="447" y="-5"/>
      <point x="434" y="-12"/>
      <point x="434" y="-12" type="curve"/>
      <point x="434" y="-12"/>
      <point x="384" y="-5"/>
      <point x="368" y="17" type="curve"/>
      <point x="342" y="101"/>
      <point x="335" y="180"/>
      <point x="325" y="289" type="curve"/>
      <point x="132" y="248" type="line"/>
      <point x="18" y="0" type="line" smooth="yes"/>
      <point x="16" y="-5"/>
      <point x="4" y="-10"/>
      <point x="-2" y="-10" type="curve"/>
      <point x="-26" y="0"/>
      <point x="-51" y="8"/>
    </contour>
    <contour>
      <point x="157" y="303" type="line"/>
      <point x="323" y="314" type="line"/>
      <point x="314" y="413"/>
      <point x="309" y="509"/>
      <point x="280" y="582" type="curve"/>
    </contour>
  </outline>
</glyph>
<glyph name="Epsilon" format="1">
  <advance width="479"/>
  <unicode hex="0395"/>
  <outline>
    <contour>
      <point x="206" y="43" type="curve" smooth="yes"/>
      <point x="295" y="43"/>
      <point x="399" y="108"/>
      <point x="406" y="119" type="curve"/>
      <point x="413" y="116"/>
      <point x="415" y="101"/>
      <point x="414" y="96" type="curve" smooth="yes"/>
      <point x="412" y="88"/>
      <point x="367" y="0"/>
      <point x="321" y="0" type="curve" smooth="yes"/>
      <point x="282" y="0"/>
      <point x="176" y="0"/>
      <point x="64" y="0" type="curve" smooth="yes"/>
      <point x="47" y="0"/>
      <point x="4" y="5"/>
      <point x="-7" y="34" type="curve"/>
      <point x="9" y="52"/>
      <point x="33" y="116"/>
      <point x="44" y="171" type="curve" smooth="yes"/>
      <point x="123" y="603" type="line"/>
      <point x="119" y="620"/>
      <point x="108" y="636"/>
      <point x="96" y="642" type="curve"/>
      <point x="97" y="649"/>
      <point x="103" y="658"/>
      <point x="109" y="661" type="curve"/>
      <point x="155" y="658"/>
      <point x="165" y="658"/>
      <point x="205" y="658" type="curve" smooth="yes"/>
      <point x="299" y="659"/>
      <point x="320" y="662"/>
      <point x="424" y="664" type="curve"/>
      <point x="424" y="664"/>
      <point x="444" y="626"/>
      <point x="459" y="584" type="curve"/>
      <point x="452" y="574"/>
      <point x="453" y="570"/>
      <point x="444" y="566" type="curve"/>
      <point x="386" y="606"/>
      <point x="355" y="615"/>
      <point x="280" y="615" type="curve" smooth="yes"/>
      <point x="233" y="615"/>
      <point x="229" y="612"/>
      <point x="189" y="607" type="curve"/>
      <point x="183" y="577"/>
      <point x="161" y="456"/>
      <point x="142" y="355" type="curve"/>
      <point x="147" y="355"/>
      <point x="154" y="355"/>
      <point x="165" y="355" type="curve" smooth="yes"/>
      <point x="223" y="355"/>
      <point x="261" y="363"/>
      <point x="315" y="384" type="curve"/>
      <point x="334" y="368"/>
      <point x="348" y="321"/>
      <point x="355" y="304" type="curve"/>
      <point x="355" y="297"/>
      <point x="344" y="287"/>
      <point x="338" y="285" type="curve"/>
      <point x="314" y="298"/>
      <point x="283" y="309"/>
      <point x="236" y="309" type="curve" smooth="yes"/>
      <point x="213" y="309"/>
      <point x="166" y="309"/>
      <point x="134" y="307" type="curve"/>
      <point x="128" y="275"/>
      <point x="124" y="250"/>
      <point x="121" y="236" type="curve" smooth="yes"/>
      <point x="108" y="166"/>
      <point x="87" y="79"/>
      <point x="90" y="58" type="curve"/>
      <point x="120" y="46"/>
      <point x="154" y="43"/>
    </contour>
  </outline>
</glyph>
<glyph name="Eta" format="1">
  <advance width="480"/>
  <unicode hex="0397"/>
  <outline>
    <contour>
      <point x="471" y="468" type="line" smooth="yes"/>
      <point x="450" y="358"/>
      <point x="434" y="278"/>
      <point x="423" y="218" type="curve" smooth="yes"/>
      <point x="410" y="148"/>
      <point x="395" y="22"/>
      <point x="398" y="1" type="curve"/>
      <point x="390" y="-9"/>
      <point x="380" y="-16"/>
      <point x="371" y="-16" type="curve" smooth="yes"/>
      <point x="365" y="-16"/>
      <point x="320" y="5"/>
      <point x="323" y="20" type="curve" smooth="yes"/>
      <point x="323" y="20"/>
      <point x="358" y="174"/>
      <point x="386" y="312" type="curve"/>
      <point x="315" y="309"/>
      <point x="185" y="308"/>
      <point x="108" y="295" type="curve"/>
      <point x="103" y="266"/>
      <point x="98" y="241"/>
      <point x="94" y="218" type="curve" smooth="yes"/>
      <point x="81" y="148"/>
      <point x="65" y="22"/>
      <point x="68" y="1" type="curve"/>
      <point x="60" y="-9"/>
      <point x="51" y="-16"/>
      <point x="42" y="-16" type="curve" smooth="yes"/>
      <point x="36" y="-16"/>
      <point x="-10" y="5"/>
      <point x="-7" y="20" type="curve" smooth="yes"/>
    </contour>
  </outline>
</glyph>
<glyph name="Iota" format="1">
  <advance width="151"/>
  <unicode hex="0399"/>
  <outline>
    <contour>
      <point x="142" y="468" type="line" smooth="yes"/>
      <point x="121" y="358"/>
      <point x="105" y="278"/>
      <point x="94" y="218" type="curve" smooth="yes"/>
      <point x="81" y="148"/>
      <point x="66" y="22"/>
      <point x="69" y="1" type="curve"/>
      <point x="61" y="-9"/>
      <point x="51" y="-16"/>
      <point x="42" y="-16" type="curve" smooth="yes"/>
      <point x="36" y="-16"/>
      <point x="-10" y="5"/>
      <point x="-7" y="20" type="curve" smooth="yes"/>
    </contour>
  </outline>
</glyph>
<glyph name="Kappa" format="1">
  <advance width="441"/>
  <unicode hex="039A"/>
  <outline>
    <contour>
      <point x="427" y="50" type="line"/>
      <point x="402" y="20"/>
      <point x="367" y="-4"/>
      <point x="326" y="-4" type="curve" smooth="yes"/>
      <point x="233" y="-4"/>
      <point x="188" y="179"/>
      <point x="185" y="315" type="curve"/>
      <point x="130" y="236"/>
      <point x="88" y="158"/>
      <point x="78" y="98" type="curve"/>
      <point x="72" y="52"/>
      <point x="68" y="12"/>
      <point x="70" y="1" type="curve"/>
      <point x="62" y="-9"/>
      <point x="53" y="-16"/>
      <point x="44" y="-16" type="curve" smooth="yes"/>
      <point x="38" y="-16"/>
      <point x="-8" y="5"/>
      <point x="-5" y="20" type="curve" smooth="yes"/>
    </contour>
  </outline>
</glyph>
<glyph name="Mu" format="1">
  <advance width="603"/>
  <unicode hex="039C"/>
  <outline>
    <contour>
      <point x="602" y="467" type="curve" smooth="yes"/>
      <point x="590" y="357"/>
      <point x="581" y="277"/>
      <point x="575" y="217" type="curve" smooth="yes"/>
      <point x="568" y="147"/>
      <point x="562" y="23"/>
      <point x="567" y="3" type="curve"/>
      <point x="559" y="-8"/>
      <point x="551" y="-16"/>
      <point x="542" y="-17" type="curve" smooth="yes"/>
      <point x="536" y="-18"/>
      <point x="485" y="3"/>
      <point x="487" y="18" type="curve" smooth="yes"/>
      <point x="504" y="145"/>
      <point x="514" y="198"/>
      <point x="532" y="345" type="curve" smooth="yes"/>
      <point x="540" y="417"/>
      <point x="548" y="482"/>
      <point x="550" y="550" type="curve"/>
      <point x="486" y="368"/>
      <point x="413" y="223"/>
      <point x="328" y="80" type="curve" smooth="yes"/>
      <point x="312" y="64" type="line"/>
      <point x="312" y="64"/>
      <point x="259" y="66"/>
      <point x="243" y="88" type="curve"/>
      <point x="220" y="137"/>
      <point x="206" y="201"/>
      <point x="182" y="300" type="curve" smooth="yes"/>
      <point x="166" y="366"/>
      <point x="154" y="438"/>
      <point x="149" y="500" type="curve"/>
      <point x="128" y="420"/>
      <point x="108" y="353"/>
      <point x="84" y="251" type="curve" smooth="yes"/>
      <point x="61" y="150"/>
      <point x="48" y="45"/>
      <point x="50" y="-6" type="curve"/>
      <point x="47" y="-11"/>
      <point x="38" y="-21"/>
      <point x="32" y="-22" type="curve"/>
      <point x="20" y="-18"/>
      <point x="-18" y="0"/>
      <point x="-24" y="24" type="curve"/>
      <point x="58" y="275"/>
      <point x="95" y="482"/>
      <point x="126" y="642" type="curve" smooth="yes"/>
      <point x="127" y="648"/>
      <point x="138" y="666"/>
      <point x="146" y="666" type="curve" smooth="yes"/>
      <point x="158" y="666"/>
      <point x="171" y="642"/>
      <point x="178" y="633" type="curve"/>
      <point x="194" y="563"/>
      <point x="216" y="441"/>
      <point x="241" y="334" type="curve" smooth="yes"/>
      <point x="265" y="232"/>
      <point x="285" y="170"/>
      <point x="307" y="121" type="curve"/>
      <point x="415" y="295"/>
      <point x="482" y="446"/>
      <point x="550" y="635" type="curve" smooth="yes"/>
      <point x="554" y="647"/>
      <point x="568" y="663"/>
      <point x="574" y="663" type="curve" smooth="yes"/>
      <point x="591" y="663"/>
      <point x="621" y="638"/>
      <point x="623" y="626" type="curve"/>
      <point x="623" y="619"/>
      <point x="610" y="531"/>
    </contour>
  </outline>
</glyph>
<glyph name="Nu" format="1">
  <advance width="429"/>
  <unicode hex="039D"/>
  <outline>
    <contour>
      <point x="363" y="7" type="curve" smooth="yes"/>
      <point x="361" y="-2"/>
      <point x="344" y="-10"/>
      <point x="344" y="-10" type="curve"/>
      <point x="344" y="-10"/>
      <point x="293" y="0"/>
      <point x="279" y="15" type="curve"/>
      <point x="251" y="90"/>
      <point x="213" y="202"/>
      <point x="187" y="302" type="curve" smooth="yes"/>
      <point x="167" y="377"/>
      <point x="146" y="447"/>
      <point x="132" y="508" type="curve"/>
      <point x="115" y="436"/>
      <point x="102" y="370"/>
      <point x="81" y="250" type="curve"/>
      <point x="63" y="140"/>
      <point x="59" y="45"/>
      <point x="64" y="-5" type="curve"/>
      <point x="62" y="-10"/>
      <point x="52" y="-20"/>
      <point x="46" y="-22" type="curve"/>
      <point x="22" y="-11"/>
      <point x="-5" y="5"/>
      <point x="-13" y="29" type="curve"/>
      <point x="53" y="282"/>
      <point x="79" y="451"/>
      <point x="106" y="640" type="curve" smooth="yes"/>
      <point x="108" y="648"/>
      <point x="114" y="663"/>
      <point x="119" y="663" type="curve" smooth="yes"/>
      <point x="132" y="663"/>
      <point x="155" y="636"/>
      <point x="158" y="630" type="curve"/>
      <point x="179" y="563"/>
      <point x="216" y="438"/>
      <point x="247" y="339" type="curve" smooth="yes"/>
      <point x="277" y="241"/>
      <point x="311" y="129"/>
      <point x="339" y="57" type="curve"/>
      <point x="360" y="166"/>
      <point x="379" y="258"/>
      <point x="398" y="386" type="curve" smooth="yes"/>
      <point x="414" y="487"/>
      <point x="430" y="593"/>
      <point x="427" y="644" type="curve"/>
      <point x="429" y="649"/>
      <point x="438" y="660"/>
      <point x="444" y="661" type="curve"/>
      <point x="468" y="648"/>
      <point x="474" y="549"/>
      <point x="474" y="512" type="curve"/>
      <point x="416" y="260"/>
      <point x="402" y="190"/>
    </contour>
  </outline>
</glyph>
<glyph name="Xi" format="1">
  <advance width="441"/>
  <unicode hex="039E"/>
  <outline>
    <contour>
      <point x="206" y="661" type="curve" smooth="yes"/>
      <point x="315" y="661"/>
      <point x="319" y="661"/>
      <point x="423" y="662" type="curve"/>
      <point x="443" y="633"/>
      <point x="459" y="580"/>
      <point x="465" y="546" type="curve"/>
      <point x="461" y="536"/>
      <point x="444" y="528"/>
      <point x="436" y="530" type="curve"/>
      <point x="419" y="569"/>
      <point x="384" y="617"/>
      <point x="294" y="617" type="curve" smooth="yes"/>
      <point x="238" y="617" type="line" smooth="yes"/>
      <point x="196" y="617"/>
      <point x="138" y="602"/>
      <point x="125" y="536" type="curve"/>
      <point x="122" y="532"/>
      <point x="105" y="524"/>
      <point x="99" y="529" type="curve"/>
      <point x="95" y="554"/>
      <point x="93" y="615"/>
      <point x="93" y="632" type="curve"/>
      <point x="119" y="650"/>
      <point x="165" y="661"/>
    </contour>
    <contour>
      <point x="209" y="358" type="curve" smooth="yes"/>
      <point x="271" y="358"/>
      <point x="306" y="365"/>
      <point x="339" y="397" type="curve" smooth="yes"/>
      <point x="342" y="400"/>
      <point x="345" y="397"/>
      <point x="347" y="395" type="curve"/>
      <point x="353" y="380"/>
      <point x="366" y="321"/>
      <point x="369" y="297" type="curve" smooth="yes"/>
      <point x="369" y="290"/>
      <point x="358" y="282"/>
      <point x="352" y="280" type="curve"/>
      <point x="317" y="308"/>
      <point x="313" y="317"/>
      <point x="254" y="317" type="curve" smooth="yes"/>
      <point x="192" y="317"/>
      <point x="156" y="310"/>
      <point x="123" y="278" type="curve" smooth="yes"/>
      <point x="120" y="275"/>
      <point x="118" y="278"/>
      <point x="116" y="280" type="curve"/>
      <point x="110" y="295"/>
      <point x="97" y="354"/>
      <point x="94" y="378" type="curve" smooth="yes"/>
      <point x="94" y="385"/>
      <point x="105" y="393"/>
      <point x="111" y="395" type="curve"/>
      <point x="146" y="367"/>
      <point x="150" y="358"/>
    </contour>
    <contour>
      <point x="204" y="43" type="curve" smooth="yes"/>
      <point x="330" y="43"/>
      <point x="406" y="133"/>
      <point x="413" y="144" type="curve"/>
      <point x="420" y="141"/>
      <point x="421" y="126"/>
      <point x="420" y="121" type="curve" smooth="yes"/>
      <point x="418" y="113"/>
      <point x="355" y="0"/>
      <point x="309" y="0" type="curve" smooth="yes"/>
      <point x="270" y="0"/>
      <point x="225" y="0"/>
      <point x="113" y="0" type="curve" smooth="yes"/>
      <point x="75" y="0"/>
      <point x="24" y="3"/>
      <point x="-10" y="18" type="curve"/>
      <point x="-15" y="36"/>
      <point x="-19" y="110"/>
      <point x="-10" y="144" type="curve"/>
      <point x="-6" y="148"/>
      <point x="16" y="138"/>
      <point x="17" y="133" type="curve" smooth="yes"/>
      <point x="40" y="52"/>
      <point x="86" y="43"/>
    </contour>
  </outline>
</glyph>
<glyph name="Omicron" format="1">
  <advance width="680"/>
  <unicode hex="039F"/>
  <outline>
    <contour>
      <point x="414" y="627" type="curve" smooth="yes"/>
      <point x="279" y="627"/>
      <point x="172" y="461"/>
      <point x="142" y="309" type="curve" smooth="yes"/>
      <point x="115" y="172"/>
      <point x="156" y="29"/>
      <point x="284" y="29" type="curve" smooth="yes"/>
      <point x="416" y="29"/>
      <point x="532" y="188"/>
      <point x="561" y="339" type="curve" smooth="yes"/>
      <point x="588" y="480"/>
      <point x="545" y="627"/>
    </contour>
    <contour>
      <point x="417" y="667" type="curve" smooth="yes"/>
      <point x="573" y="667"/>
      <point x="675" y="530"/>
      <point x="634" y="319" type="curve" smooth="yes"/>
      <point x="598" y="132"/>
      <point x="441" y="-10"/>
      <point x="285" y="-10" type="curve" smooth="yes"/>
      <point x="129" y="-10"/>
      <point x="29" y="120"/>
      <point x="71" y="337" type="curve" smooth="yes"/>
      <point x="107" y="524"/>
      <point x="261" y="667"/>
    </contour>
  </outline>
</glyph>
<glyph name="Pi" format="1">
  <advance width="519"/>
  <unicode hex="03A0"/>
  <outline>
    <contour>
      <point x="168" y="610" type="line"/>
      <point x="159" y="564"/>
      <point x="110" y="289"/>
      <point x="99" y="230" type="curve" smooth="yes"/>
      <point x="86" y="160"/>
      <point x="65" y="22"/>
      <point x="68" y="1" type="curve"/>
      <point x="60" y="-9"/>
      <point x="50" y="-16"/>
      <point x="41" y="-16" type="curve" smooth="yes"/>
      <point x="35" y="-16"/>
      <point x="-8" y="5"/>
      <point x="-5" y="20" type="curve" smooth="yes"/>
      <point x="106" y="603" type="line"/>
      <point x="100" y="624"/>
      <point x="60" y="639"/>
      <point x="41" y="644" type="curve"/>
      <point x="42" y="651"/>
      <point x="48" y="660"/>
      <point x="54" y="663" type="curve"/>
      <point x="100" y="660"/>
      <point x="131" y="657"/>
      <point x="184" y="658" type="curve" smooth="yes"/>
      <point x="272" y="659"/>
      <point x="307" y="667"/>
      <point x="411" y="669" type="curve"/>
    </contour>
  </outline>
</glyph>
<glyph name="Rho" format="1">
  <advance width="433"/>
  <unicode hex="03A1"/>
  <outline>
    <contour>
      <point x="260" y="620" type="curve" smooth="yes"/>
      <point x="229" y="620"/>
      <point x="203" y="620"/>
      <point x="166" y="610" type="curve"/>
      <point x="157" y="564"/>
      <point x="108" y="289"/>
      <point x="97" y="230" type="curve" smooth="yes"/>
      <point x="84" y="160"/>
      <point x="63" y="22"/>
      <point x="66" y="1" type="curve"/>
      <point x="58" y="-9"/>
      <point x="48" y="-16"/>
      <point x="39" y="-16" type="curve" smooth="yes"/>
      <point x="33" y="-16"/>
      <point x="-10" y="5"/>
      <point x="-7" y="20" type="curve" smooth="yes"/>
      <point x="104" y="603" type="line"/>
      <point x="98" y="624"/>
      <point x="58" y="639"/>
      <point x="39" y="644" type="curve"/>
      <point x="40" y="651"/>
      <point x="46" y="660"/>
      <point x="52" y="663" type="curve"/>
      <point x="98" y="660"/>
      <point x="129" y="658"/>
      <point x="182" y="658" type="curve" smooth="yes"/>
      <point x="218" y="658"/>
      <point x="256" y="662"/>
      <point x="303" y="656" type="curve" smooth="yes"/>
      <point x="419" y="642"/>
      <point x="459" y="558"/>
      <point x="441" y="468" type="curve" smooth="yes"/>
      <point x="419" y="356"/>
      <point x="320" y="280"/>
      <point x="215" y="280" type="curve" smooth="yes"/>
      <point x="206" y="280"/>
      <point x="181" y="292"/>
      <point x="174" y="302" type="curve" smooth="yes"/>
      <point x="170" y="308"/>
      <point x="173" y="321"/>
      <point x="180" y="326" type="curve"/>
      <point x="193" y="319"/>
      <point x="198" y="316"/>
      <point x="222" y="316" type="curve" smooth="yes"/>
      <point x="288" y="316"/>
      <point x="347" y="401"/>
      <point x="360" y="466" type="curve" smooth="yes"/>
      <point x="374" y="538"/>
      <point x="337" y="620"/>
    </contour>
  </outline>
</glyph>
